<svg width="16" height="24" viewBox="0 0 16 24" fill="none" xmlns="http://www.w3.org/2000/svg">
<path fill-rule="evenodd" clip-rule="evenodd" d="M7.99998 4C5.8273 4 5.5549 4.00921 4.70161 4.04814C3.85007 4.08701 3.26855 4.22223 2.75966 4.42001C2.23359 4.62445 1.78745 4.898 1.34271 5.34274C0.897966 5.78748 0.624419 6.23363 0.419974 6.7597C0.222197 7.26859 0.0869798 7.8501 0.0481104 8.70164C0.0091775 9.5549 0 9.82733 0 12C0 14.1727 0.0091775 14.4451 0.0481104 15.2984C0.0869798 16.1499 0.222197 16.7314 0.419974 17.2403C0.624419 17.7664 0.897966 18.2125 1.34271 18.6573C1.78745 19.102 2.23359 19.3756 2.75966 19.58C3.26855 19.7778 3.85007 19.913 4.70161 19.9519C5.5549 19.9908 5.8273 20 7.99998 20C10.1727 20 10.4451 19.9908 11.2984 19.9519C12.1499 19.913 12.7314 19.7778 13.2403 19.58C13.7664 19.3756 14.2125 19.102 14.6573 18.6573C15.102 18.2125 15.3755 17.7664 15.58 17.2403C15.7778 16.7314 15.913 16.1499 15.9519 15.2984C15.9908 14.4451 16 14.1727 16 12C16 9.82733 15.9908 9.5549 15.9519 8.70164C15.913 7.8501 15.7778 7.26859 15.58 6.7597C15.3755 6.23363 15.102 5.78748 14.6573 5.34274C14.2125 4.898 13.7664 4.62445 13.2403 4.42001C12.7314 4.22223 12.1499 4.08701 11.2984 4.04814C10.4451 4.00921 10.1727 4 7.99998 4ZM8.01587 7.90479C5.74537 7.90479 3.90475 9.7454 3.90475 12.0159C3.90475 14.2864 5.74537 16.127 8.01587 16.127C10.2864 16.127 12.127 14.2864 12.127 12.0159C12.127 9.7454 10.2864 7.90479 8.01587 7.90479ZM8.01588 14.6845C6.54206 14.6845 5.34726 13.4897 5.34726 12.0159C5.34726 10.5421 6.54206 9.34729 8.01588 9.34729C9.48971 9.34729 10.6845 10.5421 10.6845 12.0159C10.6845 13.4897 9.48971 14.6845 8.01588 14.6845ZM13.2063 7.71433C13.2063 8.24032 12.78 8.66672 12.254 8.66672C11.728 8.66672 11.3016 8.24032 11.3016 7.71433C11.3016 7.18834 11.728 6.76196 12.254 6.76196C12.78 6.76196 13.2063 7.18834 13.2063 7.71433Z" fill="white"/>
</svg>
