<?xml version="1.0" encoding="utf-8"?>
<!-- Generator: Adobe Illustrator 24.0.2, SVG Export Plug-In . SVG Version: 6.00 Build 0)  -->
<svg version="1.1" id="Layer_1" xmlns="http://www.w3.org/2000/svg" xmlns:xlink="http://www.w3.org/1999/xlink" x="0px" y="0px"
	 viewBox="0 0 296.9 75.2" width="297" height="75" style="enable-background:new 0 0 296.9 75.2;" xml:space="preserve">
<style type="text/css">
	.st0{fill:#CC0000;}
	.st1{fill-rule:evenodd;clip-rule:evenodd;fill:#00843D;}
</style>
<g>
	<path class="st0" d="M37.93,32.12c-1.63,2.33-4.32,3.85-7.37,3.85c-4.96,0-8.99-4.03-8.99-9s4.03-9,8.99-9
		c1.75,0,3.38,0.5,4.77,1.37l-4.76,7.63l8.94-5.16c-1.43-2.22-3.56-3.95-6.08-4.89c-1.99-0.74-4.15-1.13-6.4-1.13
		c-2.25,0-4.4,0.4-6.4,1.13c-2.05,0.76-3.85,2.05-5.23,3.71c-1.42,1.72-2.27,3.92-2.27,6.33c0,2.41,0.85,4.62,2.27,6.33
		c1.37,1.66,3.17,2.96,5.23,3.71c1.99,0.74,4.15,1.13,6.4,1.13c1.43,0,2.83-0.17,4.17-0.47c2.79-0.64,5.26-2.12,7.12-4.16
		L37.93,32.12z"/>
	<path class="st0" d="M75.67,19.6c-0.49,0-0.96,0.11-1.38,0.31l-5.2,2.43c-0.25-1.55-1.6-2.73-3.22-2.73
		c-0.49,0-0.96,0.11-1.38,0.31l-6.36,2.96h4.47v14.72h6.54v-13.1c0-0.9,0.73-1.64,1.63-1.64c0.9,0,1.63,0.74,1.63,1.64V37.6h6.54
		V22.87C78.94,21.07,77.47,19.6,75.67,19.6"/>
	<path class="st0" d="M116.69,19.6c-0.49,0-0.96,0.11-1.38,0.31l-5.2,2.43c-0.25-1.55-1.6-2.73-3.22-2.73
		c-0.49,0-0.96,0.11-1.38,0.31l-6.36,2.96h4.47v14.72h6.54V24.52c0-0.9,0.73-1.64,1.63-1.64c0.9,0,1.63,0.74,1.63,1.64v13.09h6.54
		V22.87C119.96,21.07,118.5,19.6,116.69,19.6"/>
	<path class="st0" d="M93.05,36.78c-1.09,0.29-2.21-0.35-2.5-1.45l-3.17-11.86c-0.29-1.09,0.35-2.21,1.45-2.51
		c1.09-0.29,2.21,0.35,2.5,1.45l3.17,11.86C94.79,35.37,94.14,36.49,93.05,36.78 M90.93,19.6c-5.11,0-9.27,4.15-9.27,9.28
		c0,5.12,4.15,9.28,9.27,9.28c5.11,0,9.27-4.15,9.27-9.28C100.2,23.75,96.05,19.6,90.93,19.6"/>
	<path class="st0" d="M53.77,37.61h6.54l-3.76-14.06c-0.61-2.27-2.68-3.94-5.14-3.94c-0.64,0-1.25,0.11-1.81,0.32l-8.11,2.96h8.34
		l1.42,5.32c-1.39-1.19-3.19-1.91-5.15-1.91c-1.47,0-2.85,0.38-4.05,1.04c-0.94,0.52-1.72,1.27-2.29,2.18
		c-0.47,0.77-0.75,1.68-0.75,2.65c0,0.98,0.27,1.88,0.75,2.65c0.56,0.91,1.35,1.67,2.29,2.18c1.2,0.66,2.58,1.04,4.05,1.04
		c2.81,0,5.31-1.38,6.85-3.5L53.77,37.61z M52.09,32.15c0,1.81-1.46,3.27-3.27,3.27s-3.27-1.46-3.27-3.27
		c0-1.81,1.46-3.27,3.27-3.27S52.09,30.34,52.09,32.15"/>
	<path class="st1" d="M140.7,36.56c-0.67,0.5-1.31,0.74-1.92,0.71c-0.57-0.03-1.1-0.29-1.6-0.79c-0.49-0.49-0.73-1.04-0.72-1.65
		c0.01-0.62,0.24-1.22,0.7-1.81l-0.32-0.32l1.26-1.26l0.33,0.31c0.5-0.51,1.1-0.74,1.79-0.72c0.66,0.02,1.22,0.27,1.69,0.74
		c0.51,0.51,0.76,1.08,0.77,1.71c0.01,0.63-0.24,1.26-0.73,1.87l0.31,0.31l-1.23,1.23L140.7,36.56z M140.76,32.93
		c-0.22-0.23-0.46-0.33-0.7-0.29c-0.14,0.02-0.33,0.11-0.55,0.26l1.36,1.36c0.13-0.22,0.22-0.4,0.22-0.56
		C141.11,33.43,141,33.17,140.76,32.93 M138.29,35.4c0.25,0.26,0.52,0.37,0.79,0.33c0.17-0.02,0.35-0.11,0.53-0.25l-1.35-1.36
		c-0.14,0.21-0.23,0.38-0.25,0.53C137.97,34.92,138.06,35.17,138.29,35.4 M145.57,32.35l-1.25,1.25l-2.79-5.58l1.3-1.3l5.58,2.79
		l-1.27,1.28l-0.7-0.4l-1.27,1.27L145.57,32.35z M145.35,29.73l-1.91-1.09l1.1,1.9L145.35,29.73z M150.06,27.86l-1.27,1.28
		l-4.18-4.19l1.87-1.88c0.55-0.55,1.09-0.83,1.63-0.87c0.52-0.03,1,0.18,1.44,0.62c0.46,0.47,0.7,0.95,0.69,1.46
		c-0.01,0.53-0.28,1.07-0.84,1.63l-0.64,0.65L150.06,27.86z M147.78,25.58l0.53-0.53c0.16-0.17,0.25-0.32,0.26-0.47
		c0.01-0.18-0.07-0.35-0.24-0.53c-0.16-0.17-0.37-0.21-0.6-0.13c-0.16,0.06-0.34,0.18-0.52,0.37l-0.36,0.36L147.78,25.58z
		 M153.74,19.62l1.49,2.8l-0.87,0.86l-2.8-1.51l2.29,2.29l-1.15,1.15l-4.18-4.19l1.54-1.55l3.3,1.93l-1.92-3.3l1.54-1.55l4.18,4.19
		l-1.15,1.15L153.74,19.62z M134.67,15.1h23.72v6.78l-5.09,5.1l5.09,5.1v6.78h-6.75l-5.11-5.11l-5.11,5.11h-6.75L134.67,15.1
		L134.67,15.1z M139.52,19.86h8.19l-8.19,8.2V19.86z M156.04,26.97l2.35-2.35v4.7L156.04,26.97z M146.53,36.49l2.35,2.35h-4.7
		L146.53,36.49"/>
	<path class="st1" d="M133.89,14.32h25.28v25.3h-25.28V14.32z M133.25,13.67h26.57v26.59h-26.57V13.67z"/>
	<path d="M15.07,56.2c0,0.67,0.09,1.27,0.26,1.81c0.17,0.53,0.42,1,0.74,1.38c0.32,0.38,0.71,0.68,1.17,0.88
		c0.45,0.2,0.97,0.31,1.53,0.31c0.55,0,1.06-0.11,1.51-0.32c0.45-0.2,0.84-0.5,1.15-0.89c0.32-0.38,0.57-0.85,0.74-1.38
		s0.26-1.14,0.26-1.8s-0.09-1.25-0.26-1.79c-0.17-0.53-0.42-0.99-0.74-1.37c-0.32-0.38-0.71-0.68-1.17-0.87
		c-0.45-0.2-0.97-0.31-1.53-0.31c-0.63,0-1.17,0.13-1.63,0.36c-0.46,0.23-0.84,0.56-1.15,0.96c-0.3,0.4-0.52,0.87-0.67,1.38
		C15.14,55.08,15.07,55.63,15.07,56.2 M23.84,56.13c0,0.78-0.11,1.52-0.32,2.2c-0.21,0.68-0.53,1.29-0.96,1.8
		c-0.43,0.51-0.96,0.93-1.59,1.22c-0.64,0.29-1.37,0.44-2.22,0.44c-0.85,0-1.6-0.17-2.23-0.46c-0.64-0.29-1.17-0.71-1.59-1.23
		s-0.74-1.13-0.95-1.81s-0.31-1.42-0.31-2.19c0-0.83,0.13-1.58,0.36-2.25s0.58-1.25,1.02-1.72c0.44-0.47,0.98-0.85,1.6-1.1
		c0.62-0.26,1.33-0.38,2.1-0.38c0.82,0,1.56,0.14,2.19,0.41c0.63,0.27,1.17,0.65,1.6,1.14c0.43,0.49,0.76,1.07,0.98,1.73
		C23.73,54.6,23.84,55.34,23.84,56.13"/>
	<path d="M26.56,56.2c0,0.67,0.09,1.27,0.26,1.81c0.17,0.53,0.42,1,0.74,1.38c0.32,0.38,0.71,0.68,1.17,0.88
		c0.45,0.2,0.97,0.31,1.53,0.31c0.55,0,1.06-0.11,1.51-0.32c0.45-0.2,0.84-0.5,1.15-0.89c0.32-0.38,0.57-0.85,0.74-1.38
		s0.26-1.14,0.26-1.8s-0.09-1.25-0.26-1.79c-0.17-0.53-0.42-0.99-0.74-1.37c-0.32-0.38-0.71-0.68-1.17-0.87
		c-0.45-0.2-0.97-0.31-1.53-0.31c-0.63,0-1.17,0.13-1.63,0.36c-0.46,0.23-0.84,0.56-1.15,0.96c-0.3,0.4-0.52,0.87-0.67,1.38
		C26.63,55.08,26.56,55.63,26.56,56.2 M35.34,56.13c0,0.78-0.11,1.52-0.32,2.2c-0.21,0.68-0.53,1.29-0.96,1.8
		c-0.43,0.51-0.96,0.93-1.59,1.22c-0.64,0.29-1.37,0.44-2.22,0.44c-0.85,0-1.6-0.17-2.23-0.46c-0.64-0.29-1.17-0.71-1.59-1.23
		s-0.74-1.13-0.95-1.81s-0.31-1.42-0.31-2.19c0-0.83,0.13-1.58,0.36-2.25s0.58-1.25,1.02-1.72c0.44-0.47,0.98-0.85,1.6-1.1
		c0.62-0.26,1.33-0.38,2.1-0.38c0.82,0,1.56,0.14,2.19,0.41c0.63,0.27,1.17,0.65,1.6,1.14c0.43,0.49,0.76,1.07,0.98,1.73
		C35.23,54.6,35.34,55.34,35.34,56.13"/>
	<path d="M38.05,56.2c0,0.67,0.09,1.27,0.26,1.81c0.17,0.53,0.42,1,0.74,1.38s0.71,0.68,1.17,0.88c0.45,0.2,0.97,0.31,1.53,0.31
		c0.55,0,1.06-0.11,1.51-0.32c0.45-0.2,0.84-0.5,1.15-0.89c0.32-0.38,0.57-0.85,0.74-1.38s0.26-1.14,0.26-1.8s-0.09-1.25-0.26-1.79
		c-0.17-0.53-0.42-0.99-0.74-1.37c-0.32-0.38-0.71-0.68-1.17-0.87c-0.45-0.2-0.97-0.31-1.53-0.31c-0.63,0-1.17,0.13-1.63,0.36
		c-0.46,0.23-0.84,0.56-1.15,0.96c-0.3,0.4-0.52,0.87-0.67,1.38C38.12,55.08,38.05,55.63,38.05,56.2 M46.83,56.13
		c0,0.78-0.11,1.52-0.32,2.2c-0.21,0.68-0.53,1.29-0.96,1.8c-0.43,0.51-0.96,0.93-1.59,1.22c-0.64,0.29-1.37,0.44-2.22,0.44
		c-0.85,0-1.6-0.17-2.23-0.46c-0.64-0.29-1.17-0.71-1.59-1.23s-0.74-1.13-0.95-1.81s-0.31-1.42-0.31-2.19
		c0-0.83,0.13-1.58,0.36-2.25s0.58-1.25,1.02-1.72c0.44-0.47,0.98-0.85,1.6-1.1c0.62-0.26,1.33-0.38,2.1-0.38
		c0.82,0,1.56,0.14,2.19,0.41c0.63,0.27,1.17,0.65,1.6,1.14c0.43,0.49,0.76,1.07,0.98,1.73C46.72,54.6,46.83,55.34,46.83,56.13"/>
	<path d="M57.82,56.46l-0.37,0.29l-0.37,0.29l-0.37,0.28l-0.37,0.29l0.37,0.29l0.37,0.29l0.37,0.29l0.37,0.29v0.32v0.32v0.32v0.32
		l-0.57-0.45l-0.57-0.45l-0.57-0.45l-0.57-0.45V57.9v-0.32v-0.32v-0.32l0.57-0.44l0.57-0.44l0.57-0.44l0.57-0.44v0.32v0.32v0.32
		V56.46z M54.91,56.43l-0.38,0.29L54.15,57l-0.38,0.29l-0.38,0.29l0.38,0.29l0.38,0.29l0.38,0.29l0.38,0.29v0.32v0.32v0.32v0.32
		l-0.58-0.46l-0.58-0.46l-0.58-0.46L52.6,58.2v-0.32v-0.32v-0.32v-0.32l0.58-0.44l0.58-0.44l0.58-0.44l0.58-0.44v0.32v0.32v0.32
		V56.43z"/>
	<path d="M63.74,52.25l-0.46,1.23l-0.46,1.23l-0.46,1.23l-0.46,1.23h0.91h0.91h0.91h0.91l-0.45-1.23l-0.45-1.23l-0.45-1.23
		L63.74,52.25z M68.71,61.54h-0.39h-0.39h-0.39h-0.39l-0.29-0.81l-0.29-0.81l-0.29-0.81l-0.29-0.81h-1.14h-1.12h-1.12h-1.12
		l-0.3,0.81l-0.3,0.81l-0.3,0.81l-0.3,0.81h-0.37h-0.37h-0.37h-0.37l1.04-2.66l1.04-2.66l1.04-2.66l1.04-2.66h0.4h0.4h0.4h0.4
		l1.03,2.66l1.03,2.66l1.03,2.66L68.71,61.54z"/>
	<path d="M70.92,57.65c0,0.47,0.06,0.89,0.16,1.26s0.27,0.68,0.48,0.95c0.21,0.26,0.46,0.46,0.76,0.59s0.64,0.21,1,0.21
		c0.36,0,0.69-0.08,0.97-0.21s0.53-0.34,0.73-0.6c0.2-0.26,0.36-0.58,0.46-0.95s0.16-0.79,0.16-1.25s-0.05-0.89-0.16-1.26
		c-0.1-0.37-0.26-0.68-0.47-0.95c-0.2-0.26-0.46-0.46-0.75-0.59c-0.29-0.14-0.63-0.21-1-0.21c-0.37,0-0.7,0.07-1,0.21
		c-0.29,0.14-0.54,0.34-0.75,0.59c-0.2,0.26-0.36,0.58-0.47,0.95C70.97,56.77,70.92,57.19,70.92,57.65 M70.89,54.92
		c0.15-0.24,0.31-0.44,0.49-0.61c0.18-0.17,0.38-0.31,0.6-0.41c0.22-0.11,0.45-0.18,0.7-0.23c0.25-0.05,0.52-0.08,0.8-0.08
		c0.54,0,1.03,0.1,1.45,0.29c0.43,0.19,0.8,0.46,1.1,0.81c0.31,0.35,0.54,0.78,0.7,1.28c0.16,0.5,0.25,1.06,0.25,1.69
		c0,0.62-0.08,1.19-0.24,1.69c-0.16,0.5-0.39,0.94-0.69,1.29c-0.3,0.35-0.67,0.63-1.09,0.83c-0.42,0.19-0.9,0.29-1.42,0.29
		c-0.28,0-0.55-0.02-0.79-0.08c-0.25-0.05-0.47-0.12-0.68-0.23c-0.21-0.11-0.4-0.23-0.59-0.4c-0.19-0.16-0.36-0.35-0.52-0.58v1.01
		v1.01v1.01v1.01h-0.31h-0.31h-0.31h-0.31v-2.67v-2.67V56.5v-2.67h0.3h0.3h0.3h0.3v0.27v0.27v0.27v0.28H70.89z"/>
	<polygon points="87.34,61.54 86.98,61.54 86.63,61.54 86.28,61.54 85.93,61.54 85.93,59.18 85.93,56.83 85.93,54.47 85.93,52.13
		84.52,52.13 83.12,52.13 81.72,52.13 80.32,52.13 80.32,54.48 80.32,56.84 80.32,59.2 80.32,61.55 79.96,61.55 79.61,61.55
		79.26,61.55 78.91,61.55 78.91,58.9 78.91,56.24 78.91,53.58 78.91,50.93 81.01,50.93 83.12,50.93 85.23,50.93 87.34,50.93
		87.34,53.58 87.34,56.24 87.34,58.9 	"/>
	<polygon points="89.61,61.54 89.61,59.61 89.61,57.68 89.61,55.75 89.61,53.82 89.93,53.82 90.24,53.82 90.56,53.82 90.87,53.82
		90.87,55.4 90.87,56.98 90.87,58.55 90.87,60.13 90.88,60.13 90.89,60.13 90.9,60.13 90.9,60.13 91.77,58.55 92.63,56.98
		93.49,55.4 94.35,53.82 94.76,53.82 95.16,53.82 95.57,53.82 95.97,53.82 95.97,55.75 95.97,57.68 95.97,59.61 95.97,61.54
		95.66,61.54 95.34,61.54 95.03,61.54 94.71,61.54 94.71,59.96 94.71,58.39 94.71,56.81 94.71,55.23 94.71,55.23 94.7,55.23
		94.69,55.23 94.68,55.23 93.82,56.81 92.96,58.39 92.1,59.96 91.23,61.54 90.83,61.54 90.42,61.54 90.02,61.54 	"/>
	<polygon points="106.74,55.17 107.9,56.77 109.06,58.36 110.22,59.95 111.39,61.54 110.94,61.54 110.49,61.54 110.04,61.54
		109.59,61.54 108.63,60.19 107.67,58.84 106.71,57.49 105.75,56.14 105.3,56.56 104.86,56.98 104.42,57.4 103.98,57.82
		103.98,58.75 103.98,59.68 103.98,60.61 103.98,61.54 103.62,61.54 103.27,61.54 102.92,61.54 102.57,61.54 102.57,58.88
		102.57,56.23 102.57,53.57 102.57,50.91 102.92,50.91 103.27,50.91 103.62,50.91 103.98,50.91 103.98,52.23 103.98,53.55
		103.98,54.87 103.98,56.2 105.33,54.87 106.68,53.55 108.03,52.23 109.38,50.91 109.83,50.91 110.29,50.91 110.75,50.91
		111.21,50.91 110.09,51.98 108.97,53.04 107.85,54.11 	"/>
	<path d="M115.54,58c-0.23,0.03-0.48,0.06-0.73,0.11c-0.25,0.05-0.49,0.11-0.7,0.21c-0.22,0.1-0.4,0.23-0.53,0.42
		c-0.13,0.19-0.21,0.43-0.21,0.74c0,0.2,0.04,0.38,0.1,0.53c0.07,0.16,0.17,0.29,0.31,0.41c0.14,0.11,0.29,0.2,0.49,0.26
		c0.19,0.06,0.4,0.09,0.64,0.09c0.3,0,0.59-0.05,0.87-0.14c0.28-0.09,0.53-0.23,0.75-0.39s0.4-0.36,0.52-0.58
		c0.13-0.22,0.19-0.45,0.19-0.7v-0.35v-0.35v-0.35v-0.35c-0.12,0.09-0.25,0.16-0.39,0.21c-0.13,0.05-0.28,0.1-0.43,0.13
		c-0.15,0.03-0.3,0.05-0.45,0.08C115.83,57.96,115.68,57.98,115.54,58 M119.29,61.51c-0.07,0.02-0.14,0.05-0.21,0.07
		c-0.07,0.02-0.14,0.04-0.22,0.05c-0.07,0.01-0.15,0.02-0.22,0.03s-0.15,0.01-0.22,0.01c-0.18,0-0.34-0.02-0.47-0.08
		c-0.14-0.05-0.26-0.12-0.35-0.22c-0.1-0.1-0.16-0.22-0.22-0.35c-0.05-0.14-0.07-0.3-0.08-0.49c-0.19,0.21-0.38,0.4-0.59,0.55
		c-0.21,0.15-0.42,0.28-0.64,0.38c-0.22,0.1-0.46,0.17-0.73,0.23c-0.26,0.05-0.53,0.08-0.83,0.08c-0.38,0-0.73-0.05-1.03-0.15
		s-0.56-0.25-0.77-0.44c-0.21-0.19-0.37-0.42-0.49-0.69c-0.11-0.27-0.17-0.57-0.17-0.91c0-0.35,0.06-0.65,0.17-0.92
		c0.11-0.27,0.28-0.51,0.51-0.71c0.22-0.2,0.51-0.37,0.85-0.5s0.74-0.22,1.19-0.28c0.46-0.05,0.84-0.1,1.16-0.14
		c0.31-0.05,0.57-0.09,0.76-0.17c0.19-0.08,0.33-0.17,0.42-0.32c0.09-0.14,0.13-0.34,0.13-0.6c0-0.2-0.04-0.39-0.11-0.55
		s-0.19-0.29-0.34-0.4c-0.15-0.11-0.33-0.19-0.55-0.24c-0.22-0.05-0.46-0.08-0.75-0.08c-0.29,0-0.55,0.03-0.78,0.08
		c-0.22,0.06-0.41,0.15-0.57,0.27c-0.16,0.13-0.28,0.29-0.38,0.49c-0.09,0.2-0.15,0.44-0.18,0.72h-0.31h-0.31h-0.31h-0.31
		c0.01-0.41,0.1-0.78,0.24-1.1c0.15-0.32,0.37-0.6,0.64-0.82c0.28-0.23,0.61-0.4,1-0.51c0.39-0.12,0.84-0.18,1.33-0.18
		c0.25,0,0.5,0.02,0.74,0.05c0.23,0.03,0.46,0.08,0.67,0.14c0.2,0.06,0.4,0.14,0.56,0.23c0.17,0.09,0.32,0.2,0.45,0.32
		c0.13,0.13,0.23,0.28,0.31,0.44s0.12,0.33,0.16,0.5c0.03,0.17,0.04,0.35,0.05,0.53c0.01,0.18,0.01,0.36,0.01,0.53
		c0,0.29,0,0.57-0.01,0.86c-0.01,0.29-0.01,0.57-0.02,0.86c-0.01,0.29-0.01,0.57-0.02,0.86c-0.01,0.29-0.01,0.57-0.01,0.86
		c0,0.14,0.01,0.26,0.03,0.36c0.01,0.1,0.04,0.17,0.09,0.23c0.04,0.06,0.1,0.11,0.16,0.13c0.07,0.03,0.15,0.04,0.25,0.04h0.08
		c0.02,0,0.04-0.01,0.07-0.01c0.02,0,0.04-0.01,0.07-0.01c0.03-0.01,0.05-0.02,0.09-0.02v0.25v0.25v0.25v0.25H119.29z"/>
	<polygon points="120.63,61.54 120.63,59.61 120.63,57.68 120.63,55.75 120.63,53.82 120.95,53.82 121.26,53.82 121.58,53.82
		121.89,53.82 121.89,54.59 121.89,55.35 121.89,56.12 121.89,56.89 122.85,56.89 123.81,56.89 124.77,56.89 125.73,56.89
		125.73,56.12 125.73,55.35 125.73,54.59 125.73,53.82 126.05,53.82 126.36,53.82 126.68,53.82 126.99,53.82 126.99,55.75
		126.99,57.68 126.99,59.61 126.99,61.54 126.68,61.54 126.36,61.54 126.05,61.54 125.73,61.54 125.73,60.66 125.73,59.78
		125.73,58.9 125.73,58.03 124.77,58.03 123.81,58.03 122.85,58.03 121.89,58.03 121.89,58.9 121.89,59.78 121.89,60.66
		121.89,61.54 121.58,61.54 121.26,61.54 120.95,61.54 	"/>
	<path d="M129.99,57.68c0,0.47,0.06,0.9,0.16,1.27c0.1,0.37,0.27,0.69,0.48,0.95s0.47,0.46,0.77,0.59c0.31,0.14,0.65,0.2,1.04,0.2
		c0.37,0,0.71-0.07,1-0.21c0.29-0.14,0.55-0.34,0.75-0.6c0.2-0.26,0.37-0.58,0.47-0.95s0.16-0.8,0.16-1.28
		c0-0.46-0.06-0.88-0.16-1.25c-0.11-0.37-0.27-0.68-0.48-0.95s-0.46-0.47-0.76-0.6c-0.3-0.14-0.64-0.21-1-0.21s-0.71,0.08-1.01,0.21
		c-0.3,0.14-0.55,0.35-0.76,0.61s-0.37,0.59-0.49,0.95C130.05,56.8,129.99,57.22,129.99,57.68 M136.14,57.64
		c0,0.65-0.08,1.24-0.25,1.75s-0.4,0.95-0.72,1.3s-0.7,0.62-1.16,0.81c-0.46,0.18-0.98,0.28-1.57,0.28c-0.59,0-1.12-0.1-1.58-0.28
		c-0.46-0.18-0.86-0.45-1.18-0.8s-0.57-0.78-0.74-1.28c-0.16-0.5-0.25-1.07-0.25-1.7c0-0.64,0.09-1.21,0.26-1.71
		c0.17-0.5,0.43-0.94,0.75-1.29c0.33-0.35,0.73-0.63,1.19-0.82c0.46-0.19,0.99-0.29,1.57-0.29c0.58,0,1.1,0.09,1.56,0.27
		c0.46,0.18,0.84,0.44,1.15,0.79s0.55,0.77,0.72,1.27C136.05,56.43,136.14,57,136.14,57.64"/>
	<polygon points="137.79,61.54 137.79,59.61 137.79,57.68 137.79,55.75 137.79,53.82 138.11,53.82 138.42,53.82 138.74,53.82
		139.05,53.82 139.05,54.59 139.05,55.35 139.05,56.12 139.05,56.89 140.01,56.89 140.97,56.89 141.93,56.89 142.89,56.89
		142.89,56.12 142.89,55.35 142.89,54.59 142.89,53.82 143.21,53.82 143.52,53.82 143.84,53.82 144.15,53.82 144.15,55.75
		144.15,57.68 144.15,59.61 144.15,61.54 143.84,61.54 143.52,61.54 143.21,61.54 142.89,61.54 142.89,60.66 142.89,59.78
		142.89,58.9 142.89,58.03 141.93,58.03 140.97,58.03 140.01,58.03 139.05,58.03 139.05,58.9 139.05,59.78 139.05,60.66
		139.05,61.54 138.74,61.54 138.42,61.54 138.11,61.54 	"/>
	<polygon points="152.72,50.9 153.57,53.15 154.43,55.4 155.28,57.65 156.14,59.9 156.96,57.65 157.79,55.4 158.61,53.15
		159.44,50.9 159.93,50.9 160.41,50.9 160.9,50.9 161.39,50.9 161.39,53.55 161.39,56.21 161.39,58.87 161.39,61.52 161.06,61.52
		160.73,61.52 160.4,61.52 160.07,61.52 160.07,59.3 160.07,57.08 160.07,54.86 160.07,52.64 159.24,54.86 158.4,57.08 157.57,59.3
		156.74,61.52 156.43,61.52 156.12,61.52 155.82,61.52 155.52,61.52 154.67,59.3 153.82,57.08 152.97,54.86 152.13,52.64
		152.13,54.86 152.13,57.08 152.13,59.3 152.13,61.52 151.79,61.52 151.45,61.52 151.11,61.52 150.78,61.52 150.78,58.87
		150.78,56.21 150.78,53.55 150.78,50.9 151.26,50.9 151.75,50.9 152.24,50.9 	"/>
	<path d="M166.84,54.65c-0.31,0-0.59,0.05-0.85,0.17c-0.25,0.11-0.49,0.26-0.68,0.47s-0.36,0.45-0.48,0.74s-0.21,0.62-0.25,0.98
		h1.12h1.12h1.12h1.12c-0.03-0.37-0.1-0.7-0.22-0.98c-0.11-0.29-0.27-0.53-0.46-0.74c-0.19-0.2-0.41-0.36-0.67-0.47
		C167.45,54.7,167.15,54.65,166.84,54.65 M166.91,61.79c-0.57,0-1.08-0.09-1.52-0.27c-0.45-0.18-0.83-0.44-1.14-0.79
		c-0.31-0.35-0.55-0.77-0.71-1.26c-0.16-0.5-0.25-1.06-0.25-1.68c0-0.62,0.09-1.19,0.26-1.7c0.17-0.51,0.42-0.95,0.73-1.32
		c0.31-0.37,0.7-0.65,1.13-0.86c0.43-0.2,0.93-0.3,1.46-0.3c0.64,0,1.17,0.13,1.62,0.35c0.45,0.23,0.8,0.55,1.08,0.94
		c0.28,0.39,0.48,0.86,0.61,1.35c0.13,0.5,0.19,1.04,0.19,1.6v0.05v0.05v0.05v0.05h-1.45h-1.45h-1.45h-1.45v0.02v0.02v0.02v0.02
		c0,0.41,0.06,0.78,0.16,1.1c0.1,0.32,0.27,0.6,0.47,0.83c0.21,0.23,0.46,0.4,0.76,0.52c0.29,0.12,0.63,0.18,1,0.18
		c0.28,0,0.52-0.03,0.74-0.09c0.22-0.06,0.41-0.16,0.58-0.29c0.16-0.14,0.31-0.3,0.43-0.51c0.13-0.21,0.23-0.46,0.32-0.75h0.31h0.31
		h0.31h0.31c-0.1,0.44-0.24,0.83-0.43,1.17c-0.19,0.34-0.43,0.62-0.71,0.84c-0.28,0.23-0.61,0.4-0.97,0.51
		C167.78,61.73,167.37,61.79,166.91,61.79"/>
	<path d="M176.78,54.95h-0.75h-0.75h-0.75h-0.75v0.16v0.16v0.16v0.16c0,0.48-0.03,0.98-0.08,1.45c-0.05,0.48-0.13,0.95-0.21,1.37
		c-0.08,0.43-0.19,0.83-0.28,1.17c-0.1,0.34-0.21,0.62-0.31,0.83h0.97h0.97h0.97h0.97v-1.37v-1.36v-1.37v-1.37H176.78z
		 M177.84,63.99v-0.62v-0.62v-0.62v-0.62h-1.47h-1.47h-1.47h-1.47v0.62v0.62v0.62v0.62h-0.3h-0.3h-0.3h-0.3v-0.89V62.2v-0.89v-0.89
		h0.21h0.21h0.21h0.21c0.11-0.21,0.22-0.51,0.34-0.86c0.11-0.35,0.22-0.76,0.31-1.21c0.09-0.44,0.17-0.92,0.22-1.41
		c0.05-0.49,0.09-0.98,0.09-1.47v-0.41v-0.41v-0.41v-0.41h1.37h1.37h1.37h1.37v1.64v1.64v1.64v1.64h0.25h0.25h0.25h0.25v0.89v0.89
		v0.89v0.89h-0.3h-0.3h-0.3h-0.31V63.99z"/>
	<polygon points="180.3,61.54 180.3,59.61 180.3,57.68 180.3,55.75 180.3,53.82 180.62,53.82 180.93,53.82 181.25,53.82
		181.56,53.82 181.56,55.4 181.56,56.98 181.56,58.55 181.56,60.13 181.57,60.13 181.58,60.13 181.58,60.13 181.59,60.13
		182.45,58.55 183.32,56.98 184.18,55.4 185.04,53.82 185.45,53.82 185.85,53.82 186.26,53.82 186.66,53.82 186.66,55.75
		186.66,57.68 186.66,59.61 186.66,61.54 186.35,61.54 186.03,61.54 185.72,61.54 185.4,61.54 185.4,59.96 185.4,58.39 185.4,56.81
		185.4,55.23 185.39,55.23 185.39,55.23 185.38,55.23 185.37,55.23 184.51,56.81 183.65,58.39 182.78,59.96 181.92,61.54
		181.52,61.54 181.11,61.54 180.71,61.54 	"/>
	<polygon points="194.03,61.54 193.33,60.59 192.62,59.65 191.92,58.7 191.21,57.76 190.91,58.05 190.61,58.34 190.31,58.63
		190.01,58.93 190.01,59.58 190.01,60.23 190.01,60.89 190.01,61.54 189.7,61.54 189.38,61.54 189.07,61.54 188.75,61.54
		188.75,59.61 188.75,57.68 188.75,55.75 188.75,53.82 189.07,53.82 189.38,53.82 189.7,53.82 190.01,53.82 190.01,54.74
		190.01,55.66 190.01,56.57 190.01,57.49 190.89,56.57 191.77,55.66 192.65,54.74 193.52,53.82 193.95,53.82 194.38,53.82
		194.81,53.82 195.23,53.82 194.45,54.58 193.67,55.34 192.89,56.1 192.11,56.86 192.99,58.03 193.87,59.2 194.75,60.37
		195.62,61.54 195.22,61.54 194.81,61.54 194.41,61.54 	"/>
	<path d="M199.72,58c-0.23,0.03-0.48,0.06-0.73,0.11c-0.25,0.05-0.49,0.11-0.7,0.21c-0.22,0.1-0.4,0.23-0.53,0.42
		c-0.13,0.19-0.21,0.43-0.21,0.74c0,0.2,0.04,0.38,0.11,0.53c0.07,0.16,0.17,0.29,0.31,0.41c0.14,0.11,0.29,0.2,0.49,0.26
		c0.19,0.06,0.4,0.09,0.64,0.09c0.3,0,0.59-0.05,0.87-0.14s0.53-0.23,0.75-0.39s0.4-0.36,0.52-0.58s0.19-0.45,0.19-0.7v-0.35v-0.35
		v-0.35v-0.35c-0.12,0.09-0.25,0.16-0.39,0.21c-0.13,0.05-0.28,0.1-0.43,0.13c-0.15,0.03-0.3,0.05-0.45,0.08
		C200.01,57.96,199.86,57.98,199.72,58 M203.47,61.51c-0.07,0.02-0.14,0.05-0.21,0.07c-0.07,0.02-0.14,0.04-0.22,0.05
		c-0.08,0.01-0.15,0.02-0.23,0.03c-0.07,0.01-0.15,0.01-0.22,0.01c-0.18,0-0.34-0.02-0.47-0.08c-0.14-0.05-0.26-0.12-0.35-0.22
		c-0.1-0.1-0.16-0.22-0.22-0.35c-0.05-0.14-0.08-0.3-0.08-0.49c-0.19,0.21-0.38,0.4-0.59,0.55c-0.2,0.16-0.42,0.28-0.64,0.38
		c-0.22,0.1-0.46,0.17-0.73,0.23c-0.26,0.05-0.53,0.08-0.83,0.08c-0.38,0-0.73-0.05-1.03-0.15s-0.56-0.25-0.77-0.44
		c-0.21-0.19-0.38-0.42-0.49-0.69s-0.17-0.57-0.17-0.91c0-0.35,0.06-0.65,0.17-0.92c0.11-0.27,0.28-0.51,0.51-0.71
		c0.23-0.2,0.51-0.37,0.85-0.5c0.34-0.13,0.74-0.22,1.19-0.28c0.46-0.05,0.84-0.1,1.16-0.14c0.31-0.05,0.57-0.09,0.76-0.17
		c0.19-0.08,0.33-0.17,0.42-0.32c0.09-0.14,0.13-0.34,0.13-0.6c0-0.2-0.04-0.39-0.11-0.55c-0.07-0.16-0.19-0.29-0.34-0.4
		c-0.15-0.11-0.33-0.19-0.55-0.24c-0.22-0.05-0.46-0.08-0.75-0.08c-0.29,0-0.55,0.03-0.78,0.08c-0.22,0.06-0.41,0.15-0.57,0.27
		c-0.16,0.13-0.28,0.29-0.38,0.49c-0.09,0.2-0.15,0.44-0.18,0.72h-0.31h-0.31h-0.31h-0.31c0.01-0.41,0.1-0.78,0.24-1.1
		c0.15-0.32,0.37-0.6,0.64-0.82c0.28-0.23,0.61-0.4,1-0.51c0.39-0.12,0.84-0.18,1.33-0.18c0.25,0,0.5,0.02,0.74,0.05
		c0.23,0.03,0.46,0.08,0.67,0.14c0.2,0.06,0.4,0.14,0.56,0.23c0.17,0.09,0.32,0.2,0.45,0.32c0.14,0.13,0.23,0.28,0.31,0.44
		c0.08,0.16,0.12,0.33,0.16,0.5c0.03,0.17,0.04,0.35,0.05,0.53c0.01,0.18,0.01,0.36,0.01,0.53c0,0.29-0.01,0.57-0.01,0.86
		c-0.01,0.29-0.01,0.57-0.02,0.86s-0.02,0.57-0.02,0.86c-0.01,0.29-0.01,0.57-0.01,0.86c0,0.14,0.01,0.26,0.03,0.36
		c0.01,0.1,0.04,0.17,0.09,0.23c0.04,0.06,0.1,0.11,0.16,0.13c0.07,0.03,0.15,0.04,0.25,0.04h0.08c0.02,0,0.05-0.01,0.07-0.01
		s0.05-0.01,0.08-0.01c0.03-0.01,0.05-0.02,0.09-0.02v0.25v0.25v0.25v0.25H203.47z"/>
	<path d="M211.23,61.54h-0.32h-0.32h-0.31h-0.32V59.9v-1.64v-1.64v-1.64h-0.69h-0.69h-0.69h-0.69l-0.02,0.85l-0.02,0.85l-0.02,0.85
		l-0.02,0.85c-0.02,0.63-0.1,1.16-0.22,1.59c-0.12,0.44-0.29,0.77-0.48,1.04c-0.2,0.26-0.42,0.44-0.67,0.56
		c-0.25,0.12-0.51,0.17-0.78,0.17c-0.09,0-0.19-0.01-0.28-0.02s-0.18-0.02-0.26-0.04c-0.08-0.02-0.16-0.04-0.22-0.05
		c-0.07-0.02-0.12-0.04-0.16-0.06v-0.26v-0.26v-0.26v-0.26c0.04,0.02,0.09,0.04,0.15,0.05c0.06,0.01,0.12,0.02,0.19,0.03
		c0.06,0.01,0.13,0.01,0.19,0.01h0.15c0.13,0,0.25-0.03,0.38-0.1c0.13-0.07,0.25-0.17,0.35-0.34c0.11-0.16,0.2-0.38,0.26-0.65
		c0.07-0.28,0.11-0.62,0.12-1.04l0.03-1.16l0.03-1.16l0.03-1.16l0.03-1.16h1.31h1.31h1.31h1.31v1.93v1.93v1.93V61.54z"/>
	<path d="M222.18,61.79c-0.76,0-1.45-0.14-2.05-0.39c-0.61-0.26-1.12-0.63-1.55-1.11c-0.43-0.48-0.76-1.07-0.98-1.75
		c-0.22-0.68-0.34-1.46-0.34-2.3c0-0.77,0.11-1.49,0.33-2.15c0.22-0.67,0.54-1.27,0.96-1.77c0.43-0.5,0.95-0.92,1.57-1.2
		s1.35-0.44,2.17-0.44c0.52,0,1.04,0.08,1.54,0.22c0.49,0.14,0.96,0.36,1.36,0.65c0.4,0.29,0.76,0.65,1.01,1.07
		c0.26,0.43,0.43,0.93,0.48,1.49h-0.35h-0.35h-0.35h-0.35c-0.07-0.35-0.21-0.66-0.38-0.93c-0.17-0.27-0.4-0.51-0.66-0.7
		c-0.26-0.2-0.56-0.34-0.89-0.44c-0.34-0.1-0.7-0.15-1.09-0.15c-0.63,0-1.17,0.14-1.63,0.37c-0.46,0.23-0.82,0.56-1.11,0.97
		c-0.29,0.41-0.5,0.88-0.64,1.39c-0.13,0.51-0.2,1.07-0.2,1.62c0,0.68,0.08,1.28,0.25,1.82c0.16,0.53,0.4,1,0.7,1.37
		c0.31,0.38,0.68,0.67,1.12,0.86c0.43,0.2,0.94,0.3,1.49,0.3c0.45,0,0.86-0.07,1.22-0.2s0.67-0.33,0.94-0.59s0.48-0.58,0.64-0.96
		c0.16-0.38,0.28-0.82,0.33-1.31h0.35h0.35h0.35h0.35c-0.06,0.68-0.21,1.28-0.45,1.81s-0.55,0.98-0.95,1.34
		c-0.4,0.37-0.86,0.65-1.4,0.83C223.44,61.7,222.84,61.79,222.18,61.79"/>
	<polygon points="228.48,61.54 228.48,59.61 228.48,57.68 228.48,55.75 228.48,53.82 228.8,53.82 229.11,53.82 229.43,53.82
		229.74,53.82 229.74,55.4 229.74,56.98 229.74,58.55 229.74,60.13 229.75,60.13 229.76,60.13 229.77,60.13 229.78,60.13
		230.64,58.55 231.5,56.98 232.37,55.4 233.23,53.82 233.63,53.82 234.04,53.82 234.44,53.82 234.85,53.82 234.85,55.75
		234.85,57.68 234.85,59.61 234.85,61.54 234.53,61.54 234.22,61.54 233.9,61.54 233.59,61.54 233.59,59.96 233.59,58.39
		233.59,56.81 233.59,55.24 233.58,55.24 233.57,55.24 233.57,55.24 233.56,55.24 232.7,56.81 231.83,58.39 230.97,59.96
		230.11,61.54 229.7,61.54 229.3,61.54 228.89,61.54 	"/>
	<path d="M240.19,61.76c-0.6,0-1.12-0.11-1.58-0.29c-0.46-0.19-0.84-0.47-1.15-0.82s-0.54-0.77-0.7-1.25
		c-0.16-0.48-0.23-1.02-0.23-1.61c0-0.65,0.09-1.22,0.26-1.74c0.17-0.52,0.42-0.95,0.74-1.32c0.32-0.36,0.71-0.65,1.17-0.83
		c0.45-0.2,0.97-0.29,1.54-0.29c0.47,0,0.9,0.06,1.27,0.18c0.38,0.12,0.7,0.3,0.99,0.53c0.28,0.23,0.5,0.52,0.67,0.86
		c0.17,0.34,0.29,0.73,0.34,1.16h-0.33h-0.33h-0.33h-0.33c-0.05-0.27-0.14-0.51-0.25-0.72c-0.11-0.21-0.25-0.38-0.41-0.53
		c-0.17-0.14-0.35-0.25-0.56-0.32s-0.45-0.11-0.71-0.11c-0.37,0-0.7,0.08-0.99,0.21c-0.29,0.14-0.55,0.35-0.75,0.6
		c-0.21,0.26-0.37,0.58-0.48,0.95c-0.11,0.37-0.17,0.79-0.17,1.25c0,0.47,0.05,0.89,0.16,1.27c0.1,0.37,0.25,0.69,0.46,0.95
		c0.19,0.26,0.44,0.46,0.72,0.59c0.28,0.14,0.61,0.21,0.97,0.21c0.28,0,0.55-0.05,0.79-0.13c0.23-0.08,0.44-0.21,0.62-0.38
		c0.18-0.17,0.33-0.38,0.44-0.62c0.12-0.25,0.2-0.53,0.25-0.84h0.32h0.32h0.32h0.32c-0.05,0.46-0.17,0.88-0.35,1.25
		c-0.17,0.37-0.41,0.69-0.7,0.95c-0.28,0.26-0.62,0.47-1.01,0.62C241.11,61.69,240.67,61.76,240.19,61.76"/>
	<polygon points="248.23,54.95 248.23,56.59 248.23,58.24 248.23,59.88 248.23,61.52 247.91,61.52 247.6,61.52 247.28,61.52
		246.97,61.52 246.97,59.88 246.97,58.24 246.97,56.59 246.97,54.95 246.28,54.95 245.59,54.95 244.9,54.95 244.21,54.95
		244.21,54.67 244.21,54.39 244.21,54.12 244.21,53.84 245.9,53.84 247.6,53.84 249.29,53.84 250.99,53.84 250.99,54.12
		250.99,54.39 250.99,54.67 250.99,54.95 250.3,54.95 249.61,54.95 248.92,54.95 	"/>
	<path d="M255.03,54.65c-0.31,0-0.59,0.05-0.85,0.17c-0.25,0.11-0.49,0.26-0.68,0.47c-0.2,0.2-0.36,0.45-0.48,0.74
		s-0.21,0.62-0.25,0.98h1.12H255h1.12h1.12c-0.03-0.37-0.11-0.7-0.22-0.98s-0.27-0.53-0.46-0.74c-0.19-0.2-0.41-0.36-0.67-0.47
		C255.64,54.7,255.35,54.65,255.03,54.65 M255.1,61.79c-0.57,0-1.08-0.09-1.52-0.27c-0.45-0.18-0.83-0.44-1.14-0.79
		c-0.32-0.35-0.55-0.77-0.71-1.26c-0.16-0.5-0.25-1.06-0.25-1.68c0-0.62,0.09-1.19,0.26-1.7s0.42-0.95,0.73-1.32
		c0.31-0.37,0.7-0.65,1.13-0.86c0.43-0.2,0.93-0.3,1.46-0.3c0.64,0,1.17,0.13,1.62,0.35c0.45,0.23,0.8,0.55,1.08,0.94
		s0.48,0.86,0.61,1.35c0.13,0.5,0.19,1.04,0.19,1.6v0.05v0.05v0.05v0.05h-1.45h-1.45h-1.45h-1.45v0.02v0.02v0.02v0.02
		c0,0.41,0.06,0.78,0.16,1.1c0.11,0.32,0.27,0.6,0.47,0.83c0.21,0.23,0.46,0.4,0.76,0.52c0.29,0.12,0.63,0.18,1,0.18
		c0.28,0,0.52-0.03,0.74-0.09c0.22-0.06,0.41-0.16,0.58-0.29c0.17-0.14,0.32-0.3,0.43-0.51c0.13-0.21,0.23-0.46,0.32-0.75h0.31h0.31
		h0.31h0.31c-0.1,0.44-0.24,0.83-0.43,1.17c-0.19,0.34-0.43,0.62-0.71,0.84c-0.28,0.23-0.61,0.4-0.97,0.51
		C255.97,61.73,255.56,61.79,255.1,61.79"/>
	<polygon points="267.13,61.54 267.13,60.02 267.13,58.49 267.13,56.97 267.13,55.45 267.11,55.45 267.1,55.45 267.08,55.45
		267.07,55.45 266.5,56.97 265.93,58.49 265.36,60.02 264.79,61.54 264.49,61.54 264.2,61.54 263.91,61.54 263.62,61.54
		263.05,60.02 262.48,58.49 261.91,56.97 261.34,55.45 261.33,55.45 261.32,55.45 261.31,55.45 261.31,55.45 261.31,56.97
		261.31,58.49 261.31,60.02 261.31,61.54 260.99,61.54 260.68,61.54 260.36,61.54 260.05,61.54 260.05,59.61 260.05,57.68
		260.05,55.75 260.05,53.82 260.5,53.82 260.96,53.82 261.42,53.82 261.88,53.82 262.46,55.39 263.05,56.95 263.63,58.51
		264.22,60.07 264.22,60.07 264.23,60.07 264.24,60.07 264.25,60.07 264.83,58.51 265.42,56.95 266,55.39 266.59,53.82
		267.04,53.82 267.5,53.82 267.96,53.82 268.42,53.82 268.42,55.75 268.42,57.68 268.42,59.61 268.42,61.54 268.1,61.54
		267.79,61.54 267.47,61.54 	"/>
	<path d="M273.24,53.61c0.4,0,0.77,0.04,1.12,0.12c0.35,0.08,0.66,0.21,0.92,0.38c0.26,0.17,0.48,0.38,0.62,0.65
		c0.15,0.26,0.23,0.57,0.23,0.93c0,0.22-0.04,0.42-0.11,0.61c-0.07,0.18-0.17,0.35-0.28,0.49c-0.11,0.14-0.25,0.26-0.4,0.35
		c-0.14,0.09-0.3,0.15-0.46,0.19v0.01v0.01v0.01v0.01c0.18,0.03,0.36,0.1,0.53,0.19c0.17,0.09,0.34,0.22,0.48,0.37
		c0.14,0.16,0.26,0.35,0.35,0.57c0.08,0.23,0.13,0.49,0.13,0.78c0,0.42-0.1,0.79-0.27,1.1c-0.17,0.32-0.42,0.58-0.72,0.79
		s-0.64,0.37-1.02,0.47c-0.38,0.11-0.78,0.16-1.18,0.16c-0.5,0-0.96-0.06-1.36-0.18s-0.75-0.29-1.03-0.52
		c-0.28-0.23-0.51-0.5-0.67-0.83c-0.16-0.32-0.26-0.7-0.28-1.12h0.32h0.32h0.32h0.32c0.02,0.28,0.08,0.52,0.2,0.72
		c0.1,0.2,0.25,0.37,0.43,0.5c0.18,0.14,0.39,0.23,0.63,0.29c0.24,0.07,0.5,0.1,0.79,0.1c0.3,0,0.57-0.05,0.81-0.12
		c0.23-0.08,0.43-0.19,0.59-0.32c0.16-0.14,0.28-0.29,0.37-0.47c0.08-0.17,0.13-0.37,0.13-0.56s-0.03-0.37-0.09-0.53
		c-0.06-0.16-0.16-0.29-0.28-0.4c-0.14-0.11-0.3-0.2-0.51-0.25c-0.21-0.06-0.46-0.09-0.76-0.09h-0.26h-0.26h-0.26h-0.26v-0.26v-0.26
		v-0.26v-0.26h0.21h0.21h0.21h0.21c0.22,0,0.43-0.02,0.63-0.07c0.19-0.05,0.37-0.12,0.52-0.22s0.27-0.23,0.35-0.39
		c0.08-0.16,0.13-0.35,0.13-0.58c0-0.14-0.04-0.29-0.11-0.41c-0.07-0.13-0.18-0.25-0.31-0.35c-0.14-0.11-0.31-0.19-0.51-0.25
		c-0.2-0.06-0.43-0.09-0.7-0.09c-0.23,0-0.46,0.02-0.67,0.08c-0.22,0.05-0.43,0.13-0.61,0.24c-0.18,0.11-0.34,0.26-0.46,0.44
		c-0.12,0.18-0.19,0.41-0.22,0.66h-0.32h-0.32h-0.32h-0.32c0.03-0.47,0.15-0.86,0.34-1.19c0.19-0.32,0.45-0.56,0.75-0.75
		c0.3-0.19,0.65-0.32,1.02-0.4C272.46,53.64,272.86,53.61,273.24,53.61"/>
	<path d="M283.24,56.98v0.32v0.32v0.32v0.32l-0.58,0.44l-0.58,0.44l-0.58,0.44l-0.58,0.44v-0.31v-0.32v-0.32v-0.32l0.38-0.29
		l0.38-0.29l0.38-0.29l0.38-0.29l-0.38-0.29l-0.38-0.29l-0.38-0.29l-0.38-0.29v-0.33v-0.33v-0.33v-0.33l0.58,0.47l0.58,0.47
		l0.58,0.47L283.24,56.98z M280.29,56.97v0.32v0.32v0.32v0.32l-0.57,0.44l-0.57,0.44l-0.56,0.44L278.02,60v-0.32v-0.32v-0.32v-0.32
		l0.37-0.28l0.38-0.28l0.38-0.28l0.37-0.28l-0.37-0.29l-0.38-0.29l-0.38-0.29l-0.37-0.29v-0.32v-0.32v-0.32v-0.32l0.57,0.45
		l0.57,0.45l0.57,0.45L280.29,56.97z"/>
</g>
</svg>
