<svg width="18" height="18" viewBox="0 0 18 18" fill="none" xmlns="http://www.w3.org/2000/svg">
<path fill-rule="evenodd" clip-rule="evenodd" d="M4 1.5C2.89543 1.5 2 2.39543 2 3.5V15.5C2 16.6046 2.89543 17.5 4 17.5H16C17.1046 17.5 18 16.6046 18 15.5V3.5C18 2.39543 17.1046 1.5 16 1.5H4ZM9.87725 7.97415L9.85557 7.62813C9.79054 6.73129 10.3614 5.91214 11.2646 5.59436C11.5969 5.48137 12.1605 5.46725 12.529 5.56611C12.6735 5.60848 12.9481 5.74972 13.1432 5.87683L13.4972 6.10986L13.8874 5.98981C14.1042 5.92626 14.3932 5.82033 14.5233 5.74972C14.6461 5.68616 14.7545 5.65085 14.7545 5.67204C14.7545 5.79209 14.4871 6.20166 14.2632 6.42764C13.9597 6.74541 14.0464 6.77366 14.6606 6.56181C15.0291 6.44176 15.0363 6.44176 14.964 6.57593C14.9207 6.64655 14.6967 6.89371 14.4582 7.11968C14.0536 7.50808 14.0319 7.55045 14.0319 7.87528C14.0319 8.37666 13.7863 9.42179 13.5406 9.99379C13.0854 11.0672 12.1099 12.1759 11.1345 12.7337C9.76164 13.5176 7.93357 13.7153 6.39453 13.2563C5.88152 13.1009 5 12.7055 5 12.6349C5 12.6137 5.26735 12.5854 5.5925 12.5784C6.2717 12.5642 6.9509 12.3806 7.52894 12.0558L7.91912 11.8298L7.47114 11.6815C6.83529 11.4697 6.26447 10.9824 6.11996 10.5234C6.07661 10.3751 6.09106 10.3681 6.49569 10.3681L6.91477 10.361L6.56072 10.1986C6.14164 9.99379 5.75868 9.64777 5.57082 9.29468C5.43353 9.04046 5.26012 8.39785 5.3107 8.34842C5.32515 8.32723 5.47689 8.3696 5.6503 8.4261C6.14886 8.60264 6.21389 8.56027 5.92487 8.26368C5.38295 7.72699 5.21677 6.92902 5.47689 6.17342L5.59972 5.83446L6.07661 6.29347C7.05206 7.21855 8.20092 7.76936 9.51597 7.93178L9.87725 7.97415Z" fill="black"/>
</svg>
