<?xml version="1.0" encoding="utf-8"?>
<!-- Generator: Adobe Illustrator 26.0.1, SVG Export Plug-In . SVG Version: 6.00 Build 0)  -->
<svg version="1.1" width="536.3" height="29" id="Layer_1" xmlns="http://www.w3.org/2000/svg" xmlns:xlink="http://www.w3.org/1999/xlink" x="0px" y="0px"
	 viewBox="0 0 536.3 29" style="enable-background:new 0 0 536.3 29;" xml:space="preserve">
<g>
	<path d="M13.7,6.9c0-2.3-1.5-3.5-4.2-3.5H2.8v7.3H9C11.9,10.7,13.7,9.3,13.7,6.9 M16.8,22.4h-2.8l-0.6-5.7
		c-0.3-2.5-1.4-3.5-3.9-3.5H2.8v9.2H0V1h9.9c4.1,0,6.6,2.2,6.6,5.7c0,2.8-1.6,4.7-3.8,5.4c1.9,0.4,3.1,1.6,3.3,3.6L16.8,22.4z"/>
	<path d="M34.6,7.1c0-2.6-1.6-3.7-4.2-3.7h-5.9V11h6C33.1,11,34.6,9.7,34.6,7.1 M37.4,7.1c0,4.2-2.8,6.4-7,6.4h-6v8.9h-2.8V1h8.8
		C34.7,1,37.4,3,37.4,7.1"/>
	<path d="M50.3,11.7c0-6.6,3.8-11.1,9.7-11.1c4.5,0,8.2,2.7,8.8,6.9h-2.9c-0.7-2.8-2.9-4.4-5.8-4.4c-4.3,0-6.9,3.2-6.9,8.6
		c0,5.4,2.6,8.7,6.9,8.7c3.4,0,5.7-2,6.2-5.8H69C68.3,19.8,65,23,60,23C54,22.9,50.3,18.2,50.3,11.7"/>
	<path d="M84.4,13.7l-2.9-8.1l-0.7-2.2L80,5.5l-3,8.1H84.4z M85.2,16.1h-9.1l-2.3,6.3h-3L79.2,1h3.2l8.3,21.4h-3.1L85.2,16.1z"/>
	<polygon points="110.8,1 110.8,22.4 107.6,22.4 96.4,5 96.4,22.4 93.8,22.4 93.8,1 96.9,1 108.2,18.5 108.2,1 	"/>
	<path d="M132.5,11.7c0-5.3-3-8.6-7.3-8.6c-4.3,0-7.3,3.3-7.3,8.6c0,5.3,3,8.7,7.3,8.7C129.6,20.4,132.5,17.1,132.5,11.7
		 M115.1,11.7c0-6.5,4.1-11.1,10.1-11.1c6,0,10.1,4.6,10.1,11.1c0,6.6-4.1,11.2-10.1,11.2C119.3,22.9,115.1,18.3,115.1,11.7"/>
	<polygon points="156.8,1 156.8,22.4 153.6,22.4 142.4,5 142.4,22.4 139.7,22.4 139.7,1 142.8,1 154.1,18.5 154.1,1 	"/>
	<polygon points="193.8,1 193.8,22.4 191.2,22.4 191.2,8.2 191.3,4.4 189.8,8.2 184.7,22.4 182,22.4 176.5,7.7 175.1,4.3 175.1,8.2
		175.1,22.4 172.6,22.4 172.6,1 176.5,1 182.6,17.4 183.3,19.5 184.1,17.4 189.9,1 	"/>
	<polygon points="215,20 215,22.4 199.5,22.4 199.5,1 214.7,1 214.7,3.4 202.3,3.4 202.3,10.2 213.7,10.2 213.7,12.6 202.3,12.6
		202.3,20 	"/>
	<path d="M234.2,11.7c0-5.7-2.4-8.3-7.1-8.3h-4.4V20h4.2C232,20,234.2,17.3,234.2,11.7 M237.1,11.7c0,6.5-3.2,10.7-10,10.7h-7.1V1
		h7.7C234,1,237.1,5.1,237.1,11.7"/>
	<rect x="242" y="1" width="2.8" height="21.4"/>
	<path d="M249.6,11.7c0-6.6,3.8-11.1,9.7-11.1c4.5,0,8.2,2.7,8.8,6.9h-2.9c-0.7-2.8-2.9-4.4-5.8-4.4c-4.3,0-6.9,3.2-6.9,8.6
		c0,5.4,2.6,8.7,6.9,8.7c3.4,0,5.7-2,6.2-5.8h2.8c-0.7,5.2-4,8.3-9.1,8.3C253.3,22.9,249.6,18.2,249.6,11.7"/>
	<path d="M283.7,13.7l-2.9-8.1L280,3.3l-0.7,2.2l-3,8.1H283.7z M284.5,16.1h-9.1l-2.3,6.3h-3L278.5,1h3.2l8.3,21.4h-3.1L284.5,16.1z
		"/>
	<polygon points="307,20 307,22.4 293.1,22.4 293.1,1 295.9,1 295.9,20 307,20 	"/>
	<path d="M319,15.5h2.7c0.3,3.6,2.5,5.1,6.2,5.1c3.7,0,5.5-1.5,5.5-3.9c0-2-1.2-3.1-4.5-3.8l-3-0.6c-3.5-0.7-6-2.2-6-5.6
		c0-3.6,2.7-6.1,7.6-6.1c4.8,0,7.7,2.3,8,6.5h-2.7c-0.3-2.7-2.1-4.2-5.4-4.2c-3.1,0-4.9,1.3-4.9,3.6c0,1.7,1.1,2.7,3.7,3.2l3.8,0.8
		c4,0.8,6.1,2.7,6.1,6.1c0,3.4-2.4,6.4-8.3,6.4C322.4,22.9,319.3,20.4,319,15.5"/>
	<polygon points="356.9,1 348.8,13.6 348.8,22.4 345.9,22.4 345.9,13.6 337.5,1 340.9,1 346.4,9.8 347.4,11.4 348.3,9.8 353.7,1
		"/>
	<path d="M358.5,15.5h2.7c0.3,3.6,2.5,5.1,6.2,5.1c3.7,0,5.5-1.5,5.5-3.9c0-2-1.2-3.1-4.5-3.8l-3-0.6c-3.5-0.7-6-2.2-6-5.6
		c0-3.6,2.7-6.1,7.6-6.1c4.8,0,7.7,2.3,8,6.5h-2.7c-0.3-2.7-2.1-4.2-5.4-4.2c-3.1,0-4.9,1.3-4.9,3.6c0,1.7,1.1,2.7,3.7,3.2l3.8,0.8
		c4,0.8,6.1,2.7,6.1,6.1c0,3.4-2.4,6.4-8.3,6.4C361.9,22.9,358.8,20.4,358.5,15.5"/>
	<polygon points="395.2,3.4 388.1,3.4 388.1,22.4 385.3,22.4 385.3,3.4 378.1,3.4 378.1,1 395.2,1 	"/>
	<polygon points="414.6,20 414.6,22.4 399.1,22.4 399.1,1 414.3,1 414.3,3.4 401.9,3.4 401.9,10.2 413.3,10.2 413.3,12.6
		401.9,12.6 401.9,20 	"/>
	<polygon points="440.8,1 440.8,22.4 438.2,22.4 438.2,8.2 438.3,4.4 436.7,8.2 431.6,22.4 429,22.4 423.4,7.7 422,4.3 422.1,8.2
		422.1,22.4 419.5,22.4 419.5,1 423.5,1 429.6,17.4 430.3,19.5 431,17.4 436.9,1 	"/>
	<path d="M445.3,15.5h2.7c0.3,3.6,2.5,5.1,6.2,5.1c3.7,0,5.5-1.5,5.5-3.9c0-2-1.2-3.1-4.5-3.8l-3-0.6c-3.5-0.7-6-2.2-6-5.6
		c0-3.6,2.7-6.1,7.6-6.1c4.8,0,7.7,2.3,8,6.5H459c-0.3-2.7-2.1-4.2-5.4-4.2c-3.1,0-4.9,1.3-4.9,3.6c0,1.7,1.1,2.7,3.7,3.2l3.8,0.8
		c4,0.8,6.1,2.7,6.1,6.1c0,3.4-2.4,6.4-8.3,6.4C448.7,22.9,445.7,20.4,445.3,15.5"/>
	<path d="M465.9,25.2h0.3c0.9,0,1.4-0.5,1.4-1.4v-1.5l-1.7,0.1v-3h3.3v4.1c0,2.2-1,3.2-3,3.2h-0.3V25.2z"/>
	<polygon points="498.2,20 498.2,22.4 484.2,22.4 484.2,1 487,1 487,20 498.2,20 	"/>
	<polygon points="516.1,20 516.1,22.4 502.1,22.4 502.1,1 504.9,1 504.9,20 516.1,20 	"/>
	<path d="M517.5,11.7c0-6.6,3.8-11.1,9.7-11.1c4.5,0,8.2,2.7,8.8,6.9h-2.9c-0.7-2.8-2.9-4.4-5.8-4.4c-4.3,0-6.9,3.2-6.9,8.6
		c0,5.4,2.6,8.7,6.9,8.7c3.4,0,5.7-2,6.2-5.8h2.8c-0.7,5.2-4,8.3-9.1,8.3C521.2,22.9,517.5,18.2,517.5,11.7"/>
</g>
</svg>
