<?xml version="1.0" encoding="utf-8"?>
<!-- Generator: Adobe Illustrator 25.4.1, SVG Export Plug-In . SVG Version: 6.00 Build 0)  -->
<svg width="551" height="35" version="1.1" id="Layer_1" xmlns="http://www.w3.org/2000/svg" xmlns:xlink="http://www.w3.org/1999/xlink" x="0px" y="0px"
	 viewBox="0 0 368.5 22.7" enable-background="new 0 0 368.5 22.7" xml:space="preserve">
<g>
	<path d="M3.7,9.5c0,0.9,0.1,1.7,0.4,2.4c0.2,0.7,0.6,1.4,1,1.9s1,0.9,1.6,1.2s1.3,0.4,2.1,0.4c0.8,0,1.4-0.1,2.1-0.4
		c0.6-0.3,1.1-0.7,1.6-1.2s0.8-1.1,1-1.9c0.2-0.7,0.4-1.5,0.4-2.4c0-0.9-0.1-1.7-0.4-2.4c-0.2-0.7-0.6-1.3-1-1.8s-1-0.9-1.6-1.2
		S9.5,3.6,8.7,3.6c-0.9,0-1.6,0.2-2.2,0.5C5.9,4.4,5.4,4.9,5,5.4S4.2,6.6,4,7.3C3.8,7.9,3.7,8.7,3.7,9.5 M15.6,9.4
		c0,1.1-0.1,2.1-0.4,3c-0.3,0.9-0.7,1.7-1.3,2.4c-0.6,0.7-1.3,1.2-2.1,1.6c-0.9,0.4-1.9,0.6-3,0.6c-1.1,0-2.2-0.2-3-0.6
		s-1.6-1-2.1-1.7c-0.6-0.7-1-1.5-1.3-2.5c-0.3-0.9-0.4-1.9-0.4-3c0-1.1,0.2-2.1,0.5-3C2.7,5.4,3.1,4.6,3.7,4
		c0.6-0.6,1.3-1.1,2.2-1.5C6.7,2.2,7.7,2,8.7,2c1.1,0,2.1,0.2,3,0.6c0.9,0.4,1.6,0.9,2.2,1.5c0.6,0.7,1,1.5,1.3,2.4
		C15.5,7.3,15.6,8.3,15.6,9.4"/>
	<path d="M19.3,9.5c0,0.9,0.1,1.7,0.4,2.4s0.6,1.4,1,1.9s1,0.9,1.6,1.2s1.3,0.4,2.1,0.4c0.8,0,1.4-0.1,2.1-0.4
		c0.6-0.3,1.1-0.7,1.6-1.2c0.4-0.5,0.8-1.1,1-1.9c0.2-0.7,0.4-1.5,0.4-2.4c0-0.9-0.1-1.7-0.4-2.4c-0.2-0.7-0.6-1.3-1-1.8
		s-1-0.9-1.6-1.2S25,3.6,24.3,3.6c-0.9,0-1.6,0.2-2.2,0.5c-0.6,0.3-1.1,0.8-1.6,1.3c-0.4,0.5-0.7,1.2-0.9,1.9
		C19.4,7.9,19.3,8.7,19.3,9.5 M31.2,9.4c0,1.1-0.1,2.1-0.4,3c-0.3,0.9-0.7,1.7-1.3,2.4c-0.6,0.7-1.3,1.2-2.1,1.6
		c-0.9,0.4-1.9,0.6-3,0.6c-1.1,0-2.2-0.2-3-0.6s-1.6-1-2.1-1.7c-0.6-0.7-1-1.5-1.3-2.5c-0.3-0.9-0.4-1.9-0.4-3c0-1.1,0.2-2.1,0.5-3
		c0.3-0.9,0.8-1.7,1.4-2.3c0.6-0.6,1.3-1.1,2.2-1.5C22.3,2.2,23.2,2,24.3,2c1.1,0,2.1,0.2,3,0.6c0.9,0.4,1.6,0.9,2.2,1.5
		c0.6,0.7,1,1.5,1.3,2.4C31,7.3,31.2,8.3,31.2,9.4"/>
	<path d="M34.8,9.5c0,0.9,0.1,1.7,0.4,2.4c0.2,0.7,0.6,1.4,1,1.9s1,0.9,1.6,1.2s1.3,0.4,2.1,0.4c0.8,0,1.4-0.1,2.1-0.4
		c0.6-0.3,1.1-0.7,1.6-1.2s0.8-1.1,1-1.9c0.2-0.7,0.4-1.5,0.4-2.4c0-0.9-0.1-1.7-0.4-2.4c-0.2-0.7-0.6-1.3-1-1.8s-1-0.9-1.6-1.2
		s-1.3-0.4-2.1-0.4c-0.9,0-1.6,0.2-2.2,0.5c-0.6,0.3-1.1,0.8-1.6,1.3s-0.7,1.2-0.9,1.9C34.9,7.9,34.8,8.7,34.8,9.5 M46.7,9.4
		c0,1.1-0.1,2.1-0.4,3c-0.3,0.9-0.7,1.7-1.3,2.4c-0.6,0.7-1.3,1.2-2.1,1.6C42,16.8,41,17,39.8,17c-1.1,0-2.2-0.2-3-0.6
		s-1.6-1-2.1-1.7c-0.6-0.7-1-1.5-1.3-2.5c-0.3-0.9-0.4-1.9-0.4-3c0-1.1,0.2-2.1,0.5-3c0.3-0.9,0.8-1.7,1.4-2.3
		c0.6-0.6,1.3-1.1,2.2-1.5C37.8,2.2,38.8,2,39.8,2c1.1,0,2.1,0.2,3,0.6c0.9,0.4,1.6,0.9,2.2,1.5c0.6,0.7,1,1.5,1.3,2.4
		C46.6,7.3,46.7,8.3,46.7,9.4"/>
	<path d="M61.6,9.8l-0.5,0.4l-0.5,0.4l-0.5,0.4l-0.5,0.4l0.5,0.4l0.5,0.4l0.5,0.4l0.5,0.4v0.4v0.4v0.4v0.4L60.8,14l-0.8-0.6
		l-0.8-0.6l-0.8-0.6v-0.4v-0.4v-0.4v-0.4l0.8-0.6l0.8-0.6l0.8-0.6l0.8-0.6v0.4v0.4v0.4V9.8z M57.7,9.8l-0.5,0.4l-0.5,0.4l-0.5,0.4
		l-0.5,0.4l0.5,0.4l0.5,0.4l0.5,0.4l0.5,0.4v0.4v0.4v0.4v0.4l-0.8-0.6l-0.8-0.6l-0.8-0.6l-0.8-0.6v-0.4v-0.4v-0.5v-0.4l0.8-0.6
		l0.8-0.6l0.8-0.6l0.8-0.6v0.4v0.4v0.4V9.8z"/>
	<path d="M69.6,4.1L69,5.8l-0.6,1.7l-0.6,1.7l-0.6,1.7h1.2h1.2h1.2H72l-0.6-1.7l-0.6-1.7l-0.6-1.7L69.6,4.1z M76.3,16.7h-0.5h-0.5
		h-0.5h-0.5l-0.4-1.1l-0.4-1.1L73,13.4l-0.4-1.1h-1.5h-1.5h-1.5h-1.5l-0.4,1.1l-0.4,1.1l-0.4,1.1l-0.4,1.1h-0.5h-0.5h-0.5h-0.5
		l1.4-3.6l1.4-3.6l1.4-3.6l1.4-3.6h0.5h0.5h0.5h0.5l1.4,3.6l1.4,3.6l1.4,3.6L76.3,16.7z"/>
	<path d="M79.3,11.4c0,0.6,0.1,1.2,0.2,1.7s0.4,0.9,0.6,1.3c0.3,0.4,0.6,0.6,1,0.8c0.4,0.2,0.9,0.3,1.4,0.3c0.5,0,0.9-0.1,1.3-0.3
		c0.4-0.2,0.7-0.5,1-0.8c0.3-0.4,0.5-0.8,0.6-1.3c0.1-0.5,0.2-1.1,0.2-1.7s-0.1-1.2-0.2-1.7c-0.1-0.5-0.4-0.9-0.6-1.3
		c-0.3-0.4-0.6-0.6-1-0.8c-0.4-0.2-0.9-0.3-1.4-0.3c-0.5,0-0.9,0.1-1.3,0.3c-0.4,0.2-0.7,0.5-1,0.8c-0.3,0.4-0.5,0.8-0.6,1.3
		C79.4,10.2,79.3,10.8,79.3,11.4 M79.3,7.7c0.2-0.3,0.4-0.6,0.7-0.8c0.2-0.2,0.5-0.4,0.8-0.5s0.6-0.2,0.9-0.3C82,6,82.4,6,82.8,6
		c0.7,0,1.4,0.1,2,0.4s1.1,0.6,1.5,1.1c0.4,0.5,0.7,1,0.9,1.7s0.3,1.4,0.3,2.3c0,0.8-0.1,1.6-0.3,2.3c-0.2,0.7-0.5,1.3-0.9,1.8
		c-0.4,0.5-0.9,0.9-1.5,1.1c-0.6,0.2-1.2,0.4-1.9,0.4c-0.4,0-0.7,0-1.1-0.1s-0.6-0.2-0.9-0.3s-0.6-0.3-0.8-0.5
		c-0.2-0.2-0.5-0.5-0.7-0.8v1.4V18v1.4v1.4H79h-0.4h-0.4h-0.4v-3.6v-3.6V9.9V6.3h0.4h0.4h0.4h0.4v0.4V7v0.4L79.3,7.7L79.3,7.7z"/>
	<polygon points="101.5,16.7 101.1,16.7 100.6,16.7 100.1,16.7 99.7,16.7 99.7,13.5 99.7,10.3 99.7,7.1 99.7,4 97.8,4 95.9,4 94,4
		92.1,4 92.1,7.1 92.1,10.3 92.1,13.5 92.1,16.7 91.6,16.7 91.1,16.7 90.6,16.7 90.2,16.7 90.2,13.1 90.2,9.5 90.2,5.9 90.2,2.3
		93,2.3 95.9,2.3 98.7,2.3 101.6,2.3 101.6,5.9 101.6,9.5 101.6,13.1 101.6,16.7 	"/>
	<polygon points="104.6,16.7 104.6,14.1 104.6,11.5 104.6,8.9 104.6,6.3 105.1,6.3 105.5,6.3 105.9,6.3 106.3,6.3 106.3,8.4
		106.3,10.5 106.3,12.6 106.3,14.8 106.3,14.8 106.4,14.8 106.4,14.8 106.4,14.8 107.5,12.6 108.7,10.5 109.9,8.4 111,6.3
		111.6,6.3 112.1,6.3 112.7,6.3 113.2,6.3 113.2,8.9 113.2,11.5 113.2,14.1 113.2,16.7 112.8,16.7 112.4,16.7 112,16.7 111.5,16.7
		111.5,14.6 111.5,12.4 111.5,10.3 111.5,8.2 111.5,8.2 111.5,8.2 111.5,8.2 111.5,8.2 110.3,10.3 109.2,12.4 108,14.6 106.8,16.7
		106.3,16.7 105.7,16.7 105.2,16.7 	"/>
	<polygon points="127.8,8.1 129.4,10.2 130.9,12.4 132.5,14.5 134.1,16.7 133.5,16.7 132.9,16.7 132.3,16.7 131.7,16.7 130.4,14.9
		129.1,13 127.8,11.2 126.5,9.4 125.9,9.9 125.3,10.5 124.7,11.1 124.1,11.6 124.1,12.9 124.1,14.1 124.1,15.4 124.1,16.7
		123.6,16.7 123.1,16.7 122.6,16.7 122.2,16.7 122.2,13.1 122.2,9.5 122.2,5.9 122.2,2.3 122.6,2.3 123.1,2.3 123.6,2.3 124.1,2.3
		124.1,4 124.1,5.8 124.1,7.6 124.1,9.4 125.9,7.6 127.7,5.8 129.5,4 131.3,2.3 132,2.3 132.6,2.3 133.2,2.3 133.9,2.3 132.3,3.7
		130.8,5.2 129.3,6.6 	"/>
	<path d="M139.7,11.9c-0.3,0-0.6,0.1-1,0.1s-0.7,0.1-1,0.3c-0.3,0.1-0.5,0.3-0.7,0.6s-0.3,0.6-0.3,1c0,0.3,0,0.5,0.1,0.7
		c0.1,0.2,0.2,0.4,0.4,0.5s0.4,0.3,0.6,0.3c0.2,0.1,0.5,0.1,0.9,0.1c0.4,0,0.8-0.1,1.2-0.2c0.4-0.1,0.7-0.3,1-0.5
		c0.3-0.2,0.5-0.5,0.7-0.8c0.2-0.3,0.3-0.6,0.3-0.9v-0.5v-0.5v-0.5v-0.5c-0.2,0.1-0.3,0.2-0.5,0.3c-0.2,0.1-0.4,0.1-0.6,0.2
		c-0.2,0-0.4,0.1-0.6,0.1C140.1,11.8,139.9,11.9,139.7,11.9 M144.8,16.6c-0.1,0-0.2,0.1-0.3,0.1c-0.1,0-0.2,0-0.3,0.1
		c-0.1,0-0.2,0-0.3,0c-0.1,0-0.2,0-0.3,0c-0.2,0-0.5,0-0.6-0.1c-0.2-0.1-0.3-0.2-0.5-0.3c-0.1-0.1-0.2-0.3-0.3-0.5
		c-0.1-0.2-0.1-0.4-0.1-0.7c-0.2,0.3-0.5,0.5-0.8,0.7c-0.3,0.2-0.6,0.4-0.9,0.5s-0.6,0.2-1,0.3s-0.7,0.1-1.1,0.1
		c-0.5,0-1-0.1-1.4-0.2c-0.4-0.1-0.8-0.3-1-0.6s-0.5-0.6-0.7-0.9S135,14.5,135,14s0.1-0.9,0.2-1.2s0.4-0.7,0.7-1
		c0.3-0.3,0.7-0.5,1.1-0.7c0.5-0.2,1-0.3,1.6-0.4c0.6-0.1,1.1-0.1,1.6-0.2c0.4-0.1,0.8-0.1,1-0.2c0.3-0.1,0.4-0.2,0.6-0.4
		c0.1-0.2,0.2-0.5,0.2-0.8c0-0.3,0-0.5-0.1-0.7s-0.2-0.4-0.5-0.5c-0.2-0.1-0.5-0.2-0.7-0.3c-0.3-0.1-0.6-0.1-1-0.1
		c-0.4,0-0.8,0-1.1,0.1c-0.3,0.1-0.6,0.2-0.8,0.4c-0.2,0.2-0.4,0.4-0.5,0.7s-0.2,0.6-0.2,1h-0.4h-0.4h-0.4h-0.4
		c0-0.5,0.1-1.1,0.3-1.5c0.2-0.4,0.5-0.8,0.9-1.1c0.4-0.3,0.8-0.5,1.4-0.7s1.1-0.2,1.8-0.2c0.3,0,0.7,0,1,0.1c0.3,0,0.6,0.1,0.9,0.2
		s0.5,0.2,0.8,0.3c0.2,0.1,0.4,0.3,0.6,0.4c0.2,0.2,0.3,0.4,0.4,0.6c0.1,0.2,0.2,0.4,0.2,0.7c0,0.2,0.1,0.5,0.1,0.7s0,0.5,0,0.7
		c0,0.4,0,0.8,0,1.2c0,0.4,0,0.8,0,1.2s0,0.8,0,1.2s0,0.8,0,1.2c0,0.2,0,0.4,0,0.5c0,0.1,0.1,0.2,0.1,0.3c0,0.1,0.1,0.1,0.2,0.2
		c0.1,0,0.2,0,0.3,0h0.1c0,0,0.1,0,0.1,0c0,0,0.1,0,0.1,0c0,0,0.1,0,0.1,0v0.3V16v0.3L144.8,16.6L144.8,16.6z"/>
	<polygon points="146.6,16.7 146.6,14.1 146.6,11.5 146.6,8.9 146.6,6.3 147,6.3 147.5,6.3 147.9,6.3 148.3,6.3 148.3,7.3
		148.3,8.3 148.3,9.4 148.3,10.4 149.6,10.4 150.9,10.4 152.2,10.4 153.5,10.4 153.5,9.4 153.5,8.3 153.5,7.3 153.5,6.3 154,6.3
		154.4,6.3 154.8,6.3 155.2,6.3 155.2,8.9 155.2,11.5 155.2,14.1 155.2,16.7 154.8,16.7 154.4,16.7 154,16.7 153.5,16.7 153.5,15.5
		153.5,14.3 153.5,13.1 153.5,11.9 152.2,11.9 150.9,11.9 149.6,11.9 148.3,11.9 148.3,13.1 148.3,14.3 148.3,15.5 148.3,16.7
		147.9,16.7 147.5,16.7 147,16.7 146.6,16.7 	"/>
	<path d="M159.3,11.5c0,0.6,0.1,1.2,0.2,1.7c0.1,0.5,0.4,0.9,0.6,1.3s0.6,0.6,1,0.8c0.4,0.2,0.9,0.3,1.4,0.3c0.5,0,1-0.1,1.4-0.3
		c0.4-0.2,0.7-0.5,1-0.8s0.5-0.8,0.6-1.3c0.1-0.5,0.2-1.1,0.2-1.7c0-0.6-0.1-1.2-0.2-1.7c-0.1-0.5-0.4-0.9-0.6-1.3s-0.6-0.6-1-0.8
		c-0.4-0.2-0.9-0.3-1.4-0.3s-1,0.1-1.4,0.3c-0.4,0.2-0.8,0.5-1,0.8c-0.3,0.4-0.5,0.8-0.7,1.3C159.3,10.3,159.3,10.8,159.3,11.5
		 M167.6,11.4c0,0.9-0.1,1.7-0.3,2.4c-0.2,0.7-0.5,1.3-1,1.8c-0.4,0.5-1,0.9-1.6,1.1c-0.6,0.2-1.3,0.4-2.1,0.4s-1.5-0.1-2.1-0.4
		s-1.2-0.6-1.6-1.1c-0.4-0.5-0.8-1-1-1.7c-0.2-0.7-0.3-1.5-0.3-2.3s0.1-1.6,0.4-2.3s0.6-1.3,1-1.8s1-0.9,1.6-1.1
		c0.6-0.2,1.3-0.4,2.1-0.4s1.5,0.1,2.1,0.4c0.6,0.2,1.1,0.6,1.6,1.1s0.8,1,1,1.7C167.5,9.8,167.6,10.5,167.6,11.4"/>
	<polygon points="169.8,16.7 169.8,14.1 169.8,11.5 169.8,8.9 169.8,6.3 170.3,6.3 170.7,6.3 171.1,6.3 171.5,6.3 171.5,7.3
		171.5,8.3 171.5,9.4 171.5,10.4 172.8,10.4 174.1,10.4 175.5,10.4 176.8,10.4 176.8,9.4 176.8,8.3 176.8,7.3 176.8,6.3 177.2,6.3
		177.6,6.3 178,6.3 178.5,6.3 178.5,8.9 178.5,11.5 178.5,14.1 178.5,16.7 178,16.7 177.6,16.7 177.2,16.7 176.8,16.7 176.8,15.5
		176.8,14.3 176.8,13.1 176.8,11.9 175.5,11.9 174.2,11.9 172.8,11.9 171.5,11.9 171.5,13.1 171.5,14.3 171.5,15.5 171.5,16.7
		171.1,16.7 170.7,16.7 170.3,16.7 169.8,16.7 	"/>
	<polygon points="190,2.3 191.2,5.3 192.3,8.4 193.5,11.4 194.6,14.5 195.8,11.4 196.9,8.4 198,5.3 199.1,2.3 199.8,2.3 200.4,2.3
		201.1,2.3 201.7,2.3 201.7,5.9 201.7,9.5 201.7,13.1 201.7,16.7 201.3,16.7 200.9,16.7 200.4,16.7 200,16.7 200,13.7 200,10.7
		200,7.7 200,4.7 198.8,7.7 197.7,10.7 196.6,13.7 195.5,16.7 195,16.7 194.6,16.7 194.2,16.7 193.8,16.7 192.7,13.7 191.5,10.7
		190.4,7.7 189.2,4.7 189.2,7.7 189.2,10.7 189.2,13.7 189.2,16.7 188.8,16.7 188.3,16.7 187.8,16.7 187.4,16.7 187.4,13.1
		187.4,9.5 187.4,5.9 187.4,2.3 188,2.3 188.7,2.3 189.4,2.3 	"/>
	<path d="M209.1,7.4c-0.4,0-0.8,0.1-1.1,0.2c-0.4,0.1-0.7,0.4-0.9,0.6c-0.3,0.3-0.5,0.6-0.6,1s-0.3,0.8-0.3,1.3h1.5h1.5h1.5h1.5
		c0-0.5-0.1-0.9-0.3-1.3c-0.2-0.4-0.4-0.7-0.6-1s-0.6-0.5-0.9-0.6C210,7.4,209.6,7.4,209.1,7.4 M209.2,17c-0.8,0-1.5-0.1-2.1-0.4
		c-0.6-0.2-1.1-0.6-1.5-1.1s-0.8-1-1-1.7s-0.3-1.4-0.3-2.3c0-0.8,0.1-1.6,0.4-2.3c0.2-0.7,0.6-1.3,1-1.8c0.4-0.5,0.9-0.9,1.5-1.1
		s1.2-0.4,2-0.4c0.9,0,1.6,0.2,2.2,0.5c0.6,0.3,1.1,0.7,1.5,1.3c0.4,0.5,0.6,1.1,0.8,1.8s0.2,1.4,0.2,2.2v0.1v0.1v0.1v0.1h-2h-2h-2
		h-2l0,0l0,0l0,0l0,0c0,0.5,0.1,1.1,0.2,1.5s0.4,0.8,0.6,1.1c0.3,0.3,0.6,0.5,1,0.7s0.9,0.2,1.4,0.2c0.4,0,0.7,0,1-0.1
		c0.3-0.1,0.5-0.2,0.8-0.4c0.2-0.2,0.4-0.4,0.6-0.7s0.3-0.6,0.4-1h0.4h0.4h0.4h0.4c-0.1,0.6-0.3,1.1-0.6,1.6c-0.2,0.5-0.6,0.8-1,1.1
		s-0.8,0.5-1.3,0.7C210.4,16.9,209.8,17,209.2,17"/>
	<path d="M222.6,7.8h-1h-1h-1h-1V8v0.2v0.2v0.2c0,0.6,0,1.3-0.1,2c-0.1,0.6-0.2,1.3-0.3,1.9c-0.1,0.6-0.2,1.1-0.4,1.6
		s-0.3,0.9-0.4,1.1h1.3h1.3h1.3h1.3v-1.9v-1.8V9.6L222.6,7.8L222.6,7.8z M224,20v-0.8v-0.8v-0.8v-0.8h-2h-2h-2h-2v0.8v0.8v0.8V20
		h-0.4h-0.4h-0.4h-0.4v-1.2v-1.2v-1.2v-1.2h0.3h0.3h0.3h0.3c0.1-0.3,0.3-0.7,0.5-1.2c0.1-0.5,0.3-1,0.4-1.6c0.1-0.6,0.2-1.2,0.3-1.9
		c0.1-0.7,0.1-1.3,0.1-2V7.9V7.4V6.8V6.3h1.9h1.9h1.9h1.9v2.2v2.2V13v2.2h0.3h0.3h0.3h0.3v1.2v1.2v1.2V20h-0.4h-0.4h-0.4L224,20
		L224,20z"/>
	<polygon points="227.4,16.7 227.4,14.1 227.4,11.5 227.4,8.9 227.4,6.3 227.8,6.3 228.2,6.3 228.6,6.3 229.1,6.3 229.1,8.4
		229.1,10.5 229.1,12.6 229.1,14.8 229.1,14.8 229.1,14.8 229.1,14.8 229.1,14.8 230.3,12.6 231.4,10.5 232.6,8.4 233.8,6.3
		234.3,6.3 234.9,6.3 235.4,6.3 236,6.3 236,8.9 236,11.5 236,14.1 236,16.7 235.6,16.7 235.1,16.7 234.7,16.7 234.3,16.7
		234.3,14.6 234.3,12.4 234.3,10.3 234.3,8.2 234.3,8.2 234.3,8.2 234.3,8.2 234.3,8.2 233.1,10.3 231.9,12.4 230.7,14.6
		229.6,16.7 229,16.7 228.5,16.7 227.9,16.7 227.4,16.7 	"/>
	<polygon points="245.9,16.7 245,15.4 244,14.1 243.1,12.8 242.1,11.6 241.7,12 241.3,12.3 240.9,12.7 240.5,13.1 240.5,14
		240.5,14.9 240.5,15.8 240.5,16.7 240.1,16.7 239.6,16.7 239.2,16.7 238.8,16.7 238.8,14.1 238.8,11.5 238.8,8.9 238.8,6.3
		239.2,6.3 239.6,6.3 240.1,6.3 240.5,6.3 240.5,7.5 240.5,8.7 240.5,10 240.5,11.2 241.7,10 242.9,8.7 244.1,7.5 245.2,6.3
		245.8,6.3 246.4,6.3 247,6.3 247.6,6.3 246.5,7.3 245.5,8.3 244.4,9.3 243.4,10.4 244.5,11.9 245.7,13.5 246.9,15.1 248.1,16.7
		247.5,16.7 247,16.7 246.5,16.7 245.9,16.7 	"/>
	<path d="M253.6,11.9c-0.3,0-0.6,0.1-1,0.1s-0.7,0.1-1,0.3c-0.3,0.1-0.5,0.3-0.7,0.6s-0.3,0.6-0.3,1c0,0.3,0,0.5,0.1,0.7
		c0.1,0.2,0.2,0.4,0.4,0.5s0.4,0.3,0.6,0.3c0.2,0.1,0.5,0.1,0.9,0.1c0.4,0,0.8-0.1,1.2-0.2c0.4-0.1,0.7-0.3,1-0.5
		c0.3-0.2,0.5-0.5,0.7-0.8c0.2-0.3,0.3-0.6,0.3-0.9v-0.5v-0.5v-0.5v-0.5c-0.2,0.1-0.3,0.2-0.5,0.3c-0.2,0.1-0.4,0.1-0.6,0.2
		s-0.4,0.1-0.6,0.1C254,11.8,253.8,11.9,253.6,11.9 M258.7,16.6c-0.1,0-0.2,0.1-0.3,0.1c-0.1,0-0.2,0-0.3,0.1c-0.1,0-0.2,0-0.3,0
		s-0.2,0-0.3,0c-0.2,0-0.5,0-0.6-0.1c-0.2-0.1-0.3-0.2-0.5-0.3c-0.1-0.1-0.2-0.3-0.3-0.5c-0.1-0.2-0.1-0.4-0.1-0.7
		c-0.2,0.3-0.5,0.5-0.8,0.7c-0.3,0.2-0.6,0.4-0.9,0.5s-0.6,0.2-1,0.3s-0.7,0.1-1.1,0.1c-0.5,0-1-0.1-1.4-0.2c-0.4-0.1-0.8-0.3-1-0.6
		c-0.3-0.2-0.5-0.6-0.7-0.9s-0.2-0.8-0.2-1.2s0.1-0.9,0.2-1.2s0.4-0.7,0.7-1c0.3-0.3,0.7-0.5,1.1-0.7c0.5-0.2,1-0.3,1.6-0.4
		c0.6-0.1,1.1-0.1,1.6-0.2c0.4-0.1,0.8-0.1,1-0.2c0.3-0.1,0.4-0.2,0.6-0.4c0.1-0.2,0.2-0.5,0.2-0.8c0-0.3,0-0.5-0.1-0.7
		s-0.2-0.4-0.5-0.5c-0.2-0.1-0.5-0.2-0.7-0.3c-0.3-0.1-0.6-0.1-1-0.1c-0.4,0-0.8,0-1.1,0.1c-0.3,0.1-0.6,0.2-0.8,0.4
		c-0.2,0.2-0.4,0.4-0.5,0.7s-0.2,0.6-0.2,1h-0.4h-0.4h-0.4h-0.4c0-0.5,0.1-1.1,0.3-1.5c0.2-0.4,0.5-0.8,0.9-1.1
		c0.4-0.3,0.8-0.5,1.4-0.7S253,6,253.7,6c0.3,0,0.7,0,1,0.1c0.3,0,0.6,0.1,0.9,0.2s0.5,0.2,0.8,0.3c0.2,0.1,0.4,0.3,0.6,0.4
		c0.2,0.2,0.3,0.4,0.4,0.6c0.1,0.2,0.2,0.4,0.2,0.7c0,0.2,0.1,0.5,0.1,0.7s0,0.5,0,0.7c0,0.4,0,0.8,0,1.2c0,0.4,0,0.8,0,1.2
		s0,0.8,0,1.2s0,0.8,0,1.2c0,0.2,0,0.4,0,0.5c0,0.1,0.1,0.2,0.1,0.3c0,0.1,0.1,0.1,0.2,0.2c0.1,0,0.2,0,0.3,0h0.1c0,0,0.1,0,0.1,0
		c0,0,0.1,0,0.1,0c0,0,0.1,0,0.1,0v0.3V16v0.3L258.7,16.6L258.7,16.6z"/>
	<path d="M269.2,16.7h-0.4h-0.4h-0.4h-0.4v-2.2v-2.2V10V7.8h-0.9h-0.9h-0.9h-0.9l0,1.1l0,1.1l0,1.1l0,1.1c0,0.9-0.1,1.6-0.3,2.1
		c-0.2,0.6-0.4,1-0.6,1.4s-0.6,0.6-0.9,0.8s-0.7,0.2-1,0.2c-0.1,0-0.2,0-0.4,0s-0.2,0-0.3,0s-0.2,0-0.3-0.1c-0.1,0-0.2,0-0.2-0.1
		v-0.3V16v-0.3v-0.3c0,0,0.1,0,0.2,0.1s0.2,0,0.2,0c0.1,0,0.2,0,0.2,0c0.1,0,0.1,0,0.2,0c0.2,0,0.4,0,0.5-0.1
		c0.2-0.1,0.3-0.2,0.5-0.5s0.3-0.5,0.4-0.9c0.1-0.4,0.1-0.8,0.2-1.4l0-1.6l0-1.6l0-1.6l0-1.6h1.8h1.8h1.8h1.8v2.6v2.6v2.6
		L269.2,16.7L269.2,16.7z"/>
	<path d="M284,17c-1,0-2-0.2-2.8-0.5s-1.5-0.9-2.1-1.5c-0.6-0.6-1-1.5-1.3-2.4c-0.3-0.9-0.5-2-0.5-3.1c0-1,0.1-2,0.4-2.9
		s0.7-1.7,1.3-2.4c0.6-0.7,1.3-1.2,2.1-1.6c0.9-0.4,1.8-0.6,2.9-0.6c0.7,0,1.4,0.1,2.1,0.3c0.7,0.2,1.3,0.5,1.9,0.9
		c0.5,0.4,1,0.9,1.4,1.4c0.4,0.6,0.6,1.2,0.6,2h-0.5h-0.5h-0.5h-0.5c-0.1-0.5-0.3-0.9-0.5-1.3s-0.5-0.7-0.9-0.9
		c-0.4-0.3-0.8-0.5-1.2-0.6c-0.5-0.1-1-0.2-1.5-0.2c-0.9,0-1.6,0.2-2.2,0.5c-0.6,0.3-1.1,0.8-1.5,1.3s-0.7,1.2-0.9,1.9
		c-0.2,0.7-0.3,1.4-0.3,2.2c0,0.9,0.1,1.7,0.3,2.5c0.2,0.7,0.5,1.4,1,1.9s0.9,0.9,1.5,1.2c0.6,0.3,1.3,0.4,2,0.4
		c0.6,0,1.2-0.1,1.6-0.3s0.9-0.4,1.3-0.8s0.6-0.8,0.9-1.3c0.2-0.5,0.4-1.1,0.5-1.8h0.5h0.5h0.5h0.5c-0.1,0.9-0.3,1.7-0.6,2.4
		c-0.3,0.7-0.8,1.3-1.3,1.8s-1.2,0.9-1.9,1.1C285.7,16.9,284.9,17,284,17"/>
	<polygon points="292.5,16.7 292.5,14.1 292.5,11.5 292.5,8.9 292.5,6.3 293,6.3 293.4,6.3 293.8,6.3 294.3,6.3 294.3,8.4
		294.3,10.5 294.3,12.6 294.3,14.8 294.3,14.8 294.3,14.8 294.3,14.8 294.3,14.8 295.5,12.6 296.6,10.5 297.8,8.4 299,6.3
		299.5,6.3 300.1,6.3 300.6,6.3 301.1,6.3 301.1,8.9 301.1,11.5 301.1,14.1 301.1,16.7 300.7,16.7 300.3,16.7 299.9,16.7
		299.4,16.7 299.4,14.6 299.4,12.4 299.4,10.3 299.4,8.2 299.4,8.2 299.4,8.2 299.4,8.2 299.4,8.2 298.2,10.3 297.1,12.4
		295.9,14.6 294.7,16.7 294.2,16.7 293.6,16.7 293.1,16.7 292.5,16.7 	"/>
	<path d="M308.4,17c-0.8,0-1.5-0.1-2.1-0.4c-0.6-0.2-1.1-0.6-1.5-1.1c-0.4-0.5-0.7-1-0.9-1.7s-0.3-1.4-0.3-2.2
		c0-0.9,0.1-1.7,0.4-2.4s0.6-1.3,1-1.8s1-0.9,1.6-1.1s1.3-0.4,2.1-0.4c0.6,0,1.2,0.1,1.7,0.2s1,0.4,1.3,0.7c0.4,0.3,0.7,0.7,0.9,1.2
		s0.4,1,0.5,1.6h-0.4H312h-0.4h-0.4c-0.1-0.4-0.2-0.7-0.3-1c-0.1-0.3-0.3-0.5-0.5-0.7c-0.2-0.2-0.5-0.3-0.8-0.4
		c-0.3-0.1-0.6-0.1-1-0.1c-0.5,0-0.9,0.1-1.3,0.3c-0.4,0.2-0.7,0.5-1,0.8c-0.3,0.4-0.5,0.8-0.6,1.3c-0.1,0.5-0.2,1.1-0.2,1.7
		c0,0.6,0.1,1.2,0.2,1.7c0.1,0.5,0.3,0.9,0.6,1.3s0.6,0.6,1,0.8c0.4,0.2,0.8,0.3,1.3,0.3c0.4,0,0.7-0.1,1.1-0.2s0.6-0.3,0.9-0.5
		c0.2-0.2,0.4-0.5,0.6-0.8c0.2-0.3,0.3-0.7,0.3-1.1h0.4h0.4h0.4h0.4c-0.1,0.6-0.2,1.2-0.5,1.7c-0.2,0.5-0.5,0.9-0.9,1.3
		c-0.4,0.4-0.9,0.6-1.4,0.8C309.6,16.9,309.1,17,308.4,17"/>
	<polygon points="319.3,7.8 319.3,10 319.3,12.2 319.3,14.4 319.3,16.7 318.8,16.7 318.4,16.7 318,16.7 317.6,16.7 317.6,14.4
		317.6,12.2 317.6,10 317.6,7.8 316.6,7.8 315.7,7.8 314.7,7.8 313.8,7.8 313.8,7.4 313.8,7 313.8,6.6 313.8,6.2 316.1,6.2
		318.4,6.2 320.7,6.2 323,6.2 323,6.6 323,7 323,7.4 323,7.8 322.1,7.8 321.1,7.8 320.2,7.8 	"/>
	<path d="M328.5,7.4c-0.4,0-0.8,0.1-1.1,0.2c-0.4,0.1-0.7,0.4-0.9,0.6c-0.3,0.3-0.5,0.6-0.6,1s-0.3,0.8-0.3,1.3h1.5h1.5h1.5h1.5
		c0-0.5-0.1-0.9-0.3-1.3c-0.2-0.4-0.4-0.7-0.6-1s-0.6-0.5-0.9-0.6C329.3,7.4,328.9,7.4,328.5,7.4 M328.6,17c-0.8,0-1.5-0.1-2.1-0.4
		c-0.6-0.2-1.1-0.6-1.5-1.1s-0.8-1-1-1.7s-0.3-1.4-0.3-2.3c0-0.8,0.1-1.6,0.4-2.3c0.2-0.7,0.6-1.3,1-1.8c0.4-0.5,0.9-0.9,1.5-1.1
		s1.2-0.4,2-0.4c0.9,0,1.6,0.2,2.2,0.5c0.6,0.3,1.1,0.7,1.5,1.3c0.4,0.5,0.6,1.1,0.8,1.8c0.2,0.7,0.2,1.4,0.2,2.2v0.1v0.1v0.1v0.1
		h-2h-2h-2h-2l0,0l0,0l0,0l0,0c0,0.5,0.1,1.1,0.2,1.5s0.4,0.8,0.6,1.1c0.3,0.3,0.6,0.5,1,0.7s0.9,0.2,1.4,0.2c0.4,0,0.7,0,1-0.1
		c0.3-0.1,0.5-0.2,0.8-0.4c0.2-0.2,0.4-0.4,0.6-0.7s0.3-0.6,0.4-1h0.4h0.4h0.4h0.4c-0.1,0.6-0.3,1.1-0.6,1.6c-0.2,0.5-0.6,0.8-1,1.1
		s-0.8,0.5-1.3,0.7C329.8,16.9,329.2,17,328.6,17"/>
	<polygon points="344.8,16.7 344.8,14.6 344.8,12.6 344.8,10.5 344.8,8.5 344.8,8.5 344.8,8.5 344.8,8.5 344.8,8.5 344,10.5
		343.2,12.6 342.5,14.6 341.7,16.7 341.3,16.7 340.9,16.7 340.5,16.7 340.1,16.7 339.3,14.6 338.6,12.6 337.8,10.5 337,8.5 337,8.5
		337,8.5 337,8.5 337,8.5 337,10.5 337,12.6 337,14.6 337,16.7 336.5,16.7 336.1,16.7 335.7,16.7 335.2,16.7 335.2,14.1 335.2,11.5
		335.2,8.9 335.2,6.3 335.9,6.3 336.5,6.3 337.1,6.3 337.7,6.3 338.5,8.4 339.3,10.5 340.1,12.6 340.9,14.7 340.9,14.7 340.9,14.7
		340.9,14.7 340.9,14.7 341.7,12.6 342.5,10.5 343.3,8.4 344.1,6.3 344.7,6.3 345.3,6.3 345.9,6.3 346.5,6.3 346.5,8.9 346.5,11.5
		346.5,14.1 346.5,16.7 346.1,16.7 345.7,16.7 345.3,16.7 344.8,16.7 	"/>
	<path d="M353.1,6c0.5,0,1,0,1.5,0.2c0.5,0.1,0.9,0.3,1.2,0.5c0.4,0.2,0.6,0.5,0.9,0.9c0.2,0.4,0.3,0.8,0.3,1.3c0,0.3,0,0.6-0.1,0.8
		c-0.1,0.2-0.2,0.5-0.4,0.7c-0.2,0.2-0.3,0.3-0.5,0.5c-0.2,0.1-0.4,0.2-0.6,0.2v0v0v0v0c0.2,0,0.5,0.1,0.7,0.2
		c0.2,0.1,0.5,0.3,0.6,0.5s0.4,0.5,0.5,0.8s0.2,0.7,0.2,1.1c0,0.6-0.1,1.1-0.4,1.5c-0.2,0.4-0.6,0.8-1,1.1c-0.4,0.3-0.9,0.5-1.4,0.6
		c-0.5,0.1-1.1,0.2-1.6,0.2c-0.7,0-1.3-0.1-1.8-0.2s-1-0.4-1.4-0.7s-0.7-0.7-0.9-1.1c-0.2-0.4-0.3-0.9-0.4-1.5h0.4h0.4h0.4h0.4
		c0,0.4,0.1,0.7,0.3,1c0.1,0.3,0.3,0.5,0.6,0.7c0.2,0.2,0.5,0.3,0.9,0.4s0.7,0.1,1.1,0.1c0.4,0,0.8-0.1,1.1-0.2
		c0.3-0.1,0.6-0.2,0.8-0.4s0.4-0.4,0.5-0.6s0.2-0.5,0.2-0.8c0-0.3,0-0.5-0.1-0.7c-0.1-0.2-0.2-0.4-0.4-0.5c-0.2-0.1-0.4-0.3-0.7-0.3
		c-0.3-0.1-0.6-0.1-1-0.1H353h-0.4h-0.4h-0.4v-0.3v-0.3v-0.4v-0.3h0.3h0.3h0.3h0.3c0.3,0,0.6,0,0.9-0.1s0.5-0.2,0.7-0.3
		c0.2-0.1,0.4-0.3,0.5-0.5c0.1-0.2,0.2-0.5,0.2-0.8c0-0.2,0-0.4-0.1-0.5c-0.1-0.2-0.2-0.3-0.4-0.5s-0.4-0.2-0.7-0.3
		c-0.3-0.1-0.6-0.1-0.9-0.1c-0.3,0-0.6,0-0.9,0.1s-0.6,0.2-0.8,0.3c-0.2,0.1-0.5,0.3-0.6,0.6c-0.2,0.2-0.3,0.5-0.3,0.9h-0.4h-0.4
		h-0.4h-0.4c0-0.6,0.2-1.2,0.5-1.6c0.2-0.4,0.6-0.8,1-1c0.4-0.2,0.9-0.4,1.4-0.5C352.1,6,352.6,6,353.1,6"/>
	<path d="M366.7,10.5v0.4v0.4v0.4v0.4l-0.8,0.6l-0.8,0.6l-0.8,0.6l-0.8,0.6v-0.4v-0.4v-0.4v-0.4l0.5-0.4l0.5-0.4l0.5-0.4l0.5-0.4
		l-0.5-0.4l-0.5-0.4l-0.5-0.4l-0.5-0.4V9.4V8.9V8.5V8l0.8,0.6l0.8,0.6l0.8,0.6L366.7,10.5z M362.7,10.5v0.4v0.4v0.4v0.4l-0.8,0.6
		l-0.8,0.6l-0.8,0.6l-0.8,0.6v-0.4v-0.4v-0.4v-0.4l0.5-0.4l0.5-0.4l0.5-0.4l0.5-0.4l-0.5-0.4l-0.5-0.4l-0.5-0.4l-0.5-0.4V9.3V8.9
		V8.5V8.1l0.8,0.6l0.8,0.6l0.8,0.6L362.7,10.5z"/>
</g>
</svg>
