<svg width="175" height="32" viewBox="0 0 175 32" fill="none"
     xmlns="http://www.w3.org/2000/svg">
    <path
            d="M29.9206 22.1157C27.9966 24.8767 24.7997 26.6728 21.1885 26.6728C15.3128 26.6728 10.5471 21.893 10.5471 15.9999C10.5471 10.1068 15.3128 5.32697 21.1885 5.32697C23.2605 5.32697 25.1993 5.92074 26.8273 6.94498L21.1885 15.9999L31.7558 9.86928C30.0538 7.22702 27.5377 5.17853 24.5481 4.08006C22.1801 3.2191 19.6344 2.72925 16.9704 2.72925C14.3064 2.72925 11.7607 3.20426 9.39272 4.08006C6.95069 4.98556 4.83426 6.5145 3.20624 8.48877C1.53382 10.5224 0.527405 13.1498 0.527405 15.9999C0.527405 18.85 1.53382 21.4774 3.20624 23.511C4.81946 25.4853 6.95069 27.0143 9.39272 27.9197C11.7607 28.7807 14.3064 29.2706 16.9704 29.2706C18.6724 29.2706 20.3153 29.0776 21.9137 28.7213C25.2141 27.9643 28.1446 26.2127 30.3498 23.7782L29.9206 22.1157Z"
            fill="#CC0000"/>
    <path
            d="M74.5727 7.27161C73.9807 7.27161 73.4331 7.4052 72.9447 7.64271L66.7878 10.5225C66.4918 8.6818 64.8934 7.27161 62.9694 7.27161C62.3774 7.27161 61.8298 7.4052 61.3414 7.64271L53.8229 11.1608H59.1213V28.6323H66.8618V13.0905C66.8618 12.0217 67.7202 11.1608 68.7859 11.1608C69.8515 11.1608 70.7099 12.0217 70.7099 13.0905V28.6323H78.4504V11.1608C78.4504 9.00837 76.704 7.27161 74.5727 7.27161Z"
            fill="#CC0000"/>
    <path
            d="M123.117 7.27161C122.525 7.27161 121.978 7.4052 121.489 7.64271L115.332 10.5225C115.036 8.6818 113.438 7.27161 111.514 7.27161C110.922 7.27161 110.374 7.4052 109.886 7.64271L102.367 11.1608H107.666V28.6323H115.406V13.0905C115.406 12.0217 116.265 11.1608 117.33 11.1608C118.396 11.1608 119.255 12.0217 119.255 13.0905V28.6323H126.995V11.1608C126.995 9.00837 125.263 7.27161 123.117 7.27161Z"
            fill="#CC0000"/>
    <path
            d="M95.145 27.6526C93.8574 27.994 92.5254 27.237 92.185 25.9455L88.4257 11.8733C88.0853 10.5818 88.8401 9.24588 90.1277 8.90446C91.4153 8.56305 92.7474 9.3201 93.0878 10.6115L96.847 24.6838C97.2022 25.9752 96.4326 27.3112 95.145 27.6526ZM92.6438 7.27161C86.5905 7.27161 81.6768 12.1999 81.6768 18.286C81.6768 24.3572 86.5905 29.2855 92.6438 29.2855C98.697 29.2855 103.611 24.3572 103.611 18.286C103.596 12.185 98.697 7.27161 92.6438 7.27161Z"
            fill="#CC0000"/>
    <path
            d="M48.6576 28.6323H56.3981L51.9433 11.9475C51.2181 9.26072 48.776 7.27161 45.8604 7.27161C45.1056 7.27161 44.3804 7.4052 43.7144 7.64271L34.1239 11.1459H43.9956L45.6828 17.4547C44.04 16.0445 41.9088 15.1835 39.5851 15.1835C37.8387 15.1835 36.2107 15.6289 34.7899 16.4008C33.6799 17.0094 32.7474 17.9 32.0814 18.9836C31.519 19.8891 31.1934 20.9727 31.1934 22.1306C31.1934 23.2884 31.519 24.3572 32.0814 25.2775C32.7474 26.3612 33.6799 27.2518 34.7899 27.8604C36.2107 28.6323 37.8535 29.0776 39.5851 29.0776C42.9152 29.0776 45.8604 27.4448 47.6808 24.9213L48.6576 28.6323ZM46.6744 22.1454C46.6744 24.2978 44.9428 26.0346 42.7968 26.0346C40.6507 26.0346 38.9191 24.2978 38.9191 22.1454C38.9191 19.993 40.6507 18.2563 42.7968 18.2563C44.9428 18.2711 46.6744 20.0079 46.6744 22.1454Z"
            fill="#CC0000"/>
    <path fill-rule="evenodd" clip-rule="evenodd"
          d="M151.534 27.4003C150.735 27.994 149.98 28.2761 149.254 28.2464C148.574 28.2167 147.952 27.905 147.36 27.3112C146.783 26.7323 146.502 26.0791 146.502 25.3518C146.502 24.6244 146.783 23.9119 147.33 23.1994L146.96 22.8283L148.44 21.329L148.825 21.7001C149.417 21.1064 150.128 20.8095 150.942 20.8392C151.711 20.8689 152.377 21.1657 152.94 21.715C153.532 22.3087 153.843 22.9916 153.843 23.7486C153.843 24.5057 153.561 25.233 152.984 25.9604L153.354 26.3315L151.904 27.7862L151.534 27.4003ZM151.608 23.0806C151.341 22.7986 151.06 22.6947 150.779 22.7244C150.616 22.7392 150.394 22.8431 150.113 23.0213L151.726 24.6393C151.889 24.3869 151.978 24.1643 151.993 23.9861C152.022 23.6744 151.904 23.3627 151.608 23.0806ZM148.677 26.0198C148.973 26.3167 149.299 26.4503 149.624 26.4057C149.817 26.376 150.039 26.287 150.261 26.1237L148.648 24.5057C148.47 24.7432 148.366 24.9658 148.352 25.144C148.307 25.4409 148.411 25.7377 148.677 26.0198ZM157.306 22.3978L155.826 23.8822L152.525 17.2469L154.065 15.7031L160.68 19.0133L159.171 20.5274L158.342 20.0524L156.832 21.5665L157.306 22.3978ZM157.039 19.2805L154.775 17.9891L156.077 20.2306L157.039 19.2805ZM162.619 17.0688L161.109 18.5829L156.151 13.6249L158.371 11.3983C159.008 10.76 159.659 10.4037 160.295 10.3592C160.902 10.3295 161.479 10.567 161.997 11.0866C162.545 11.6358 162.811 12.2147 162.811 12.8233C162.797 13.4616 162.471 14.0999 161.82 14.7531L161.05 15.525L162.619 17.0688ZM159.925 14.3671L160.562 13.7288C160.754 13.5359 160.858 13.3577 160.873 13.1796C160.887 12.9718 160.799 12.764 160.591 12.5413C160.399 12.3483 160.147 12.2889 159.881 12.3929C159.689 12.4522 159.481 12.6007 159.274 12.8233L158.845 13.2538L159.925 14.3671ZM166.97 7.28647L168.732 10.6116L167.696 11.6358L164.395 9.83966L167.118 12.5561L165.772 13.9218L160.828 8.94901L162.663 7.10834L166.571 9.39434L164.291 5.47548L166.127 3.63481L171.085 8.6076L169.738 9.95841L166.97 7.28647ZM144.415 1.92773H172.491V9.95841L166.467 16L172.491 22.0415V30.0722H164.499L158.445 24.001L152.392 30.0722H144.4V1.92773H144.415ZM150.143 7.56851H159.822L150.143 17.2914V7.56851ZM169.694 16.0148L172.476 13.2241V18.8055L169.694 16.0148ZM158.445 27.2964L161.228 30.0871H155.663L158.445 27.2964Z"
          fill="#00843D"/>
    <path fill-rule="evenodd" clip-rule="evenodd"
          d="M143.482 0.992538H173.408V31.0222H143.482V0.992538ZM142.713 0.220642H174.163V31.7793H142.713V0.220642Z"
          fill="#00843D"/>
</svg>