<svg
        xmlns="http://www.w3.org/2000/svg"
        width="400"
        height="20"
        viewBox="0 0 310.539 15.0799"
        version="1.1"
        id="svg44"
        style="fill:none">
    <path
            d="m 9.17,4.3099 c 0,-1.52 -0.99,-2.35 -2.81,-2.35 H 1.89 v 4.92 h 4.14 c 1.97,-0.01 3.14,-0.94 3.14,-2.57 z m 2.08,10.41 h -1.9 l -0.43,-3.84 c -0.18,-1.7 -0.91,-2.36 -2.59,-2.36 H 1.88 v 6.21 H 0 v -14.4 h 6.67 c 2.75,0 4.41,1.49 4.41,3.81 0,1.86 -1.05,3.17 -2.57,3.6 1.25,0.24 2.06,1.07 2.21,2.41 z"
            id="path2"
            style="fill:#000000"/>
    <path
            d="m 23.26,4.4599 c 0,-1.72 -1.07,-2.51 -2.85,-2.51 h -3.95 v 5.12 h 4.04 c 1.73,0.01 2.76,-0.9 2.76,-2.61 z m 1.88,-0.01 c 0,2.85 -1.88,4.27 -4.67,4.27 h -4.01 v 6 h -1.88 v -14.4 h 5.93 c 2.79,0 4.63,1.37 4.63,4.13 z"
            id="path4"
            style="fill:#000000"/>
    <path
            d="m 33.769,7.5199 c 0,-4.41 2.53,-7.46 6.49,-7.46 3.02,0 5.48,1.78 5.93,4.61 h -1.92 c -0.44,-1.9 -1.94,-2.93 -3.92,-2.93 -2.91,0 -4.65,2.18 -4.65,5.79 0,3.6 1.72,5.87 4.65,5.87 2.27,0 3.82,-1.31 4.16,-3.9 h 1.86 c -0.49,3.46 -2.71,5.58 -6.08,5.58 -4.05,-0.01 -6.52,-3.19 -6.52,-7.56 z"
            id="path6"
            style="fill:#000000"/>
    <path
            d="m 56.659,8.8499 -1.96,-5.46 -0.47,-1.49 -0.49,1.49 -2,5.46 z m 0.59,1.64 h -6.11 l -1.55,4.23 h -2 l 5.58,-14.4 h 2.12 l 5.56,14.4 h -2.09 z"
            id="path8"
            style="fill:#000000"/>
    <path
            d="m 74.419,0.3199 v 14.4 h -2.14 l -7.53,-11.69 v 11.69 h -1.78 v -14.4 h 2.09 l 7.58,11.75 v -11.75 z"
            id="path10"
            style="fill:#000000"/>
    <path
            d="m 89.01,7.5199 c 0,-3.54 -2.03,-5.79 -4.88,-5.79 -2.87,0 -4.89,2.24 -4.89,5.79 0,3.58 2.03,5.87 4.89,5.87 2.9,0 4.88,-2.25 4.88,-5.87 z m -11.68,0 c 0,-4.37 2.77,-7.46 6.8,-7.46 4.04,0 6.81,3.09 6.81,7.46 0,4.45 -2.77,7.54 -6.81,7.54 -4.03,0.01 -6.8,-3.13 -6.8,-7.54 z"
            id="path12"
            style="fill:#000000"/>
    <path
            d="m 105.289,0.3199 v 14.4 h -2.14 l -7.53,-11.69 v 11.69 h -1.77 v -14.4 h 2.08 l 7.59,11.75 v -11.75 z"
            id="path14"
            style="fill:#000000"/>
    <path
            d="m 130.16,0.3199 v 14.4 h -1.71 v -9.54 l 0.03,-2.59 -1.02,2.56 -3.44,9.57 h -1.78 l -3.72,-9.89 -0.95,-2.27 0.06,2.62 v 9.54 h -1.72 v -14.4 h 2.65 l 4.08,11 0.49,1.44 0.49,-1.44 3.94,-11 z"
            id="path16"
            style="fill:#000000"/>
    <path
            d="m 144.379,13.0799 v 1.64 h -10.37 v -14.4 h 10.18 v 1.64 h -8.31 v 4.53 h 7.66 v 1.64 h -7.66 v 4.95 z"
            id="path18"
            style="fill:#000000"/>
    <path
            d="m 157.319,7.5199 c 0,-3.82 -1.62,-5.56 -4.79,-5.56 h -2.93 v 11.12 h 2.83 c 3.36,0 4.89,-1.82 4.89,-5.56 z m 1.92,0 c 0,4.35 -2.16,7.2 -6.73,7.2 h -4.79 v -14.4 h 5.2 c 4.24,0 6.32,2.77 6.32,7.2 z"
            id="path20"
            style="fill:#000000"/>
    <path
            d="m 164.42,0.3199 h -1.88 v 14.4 h 1.88 z"
            id="path22"
            style="fill:#000000"/>
    <path
            d="m 167.629,7.5199 c 0,-4.41 2.53,-7.46 6.49,-7.46 3.02,0 5.48,1.78 5.93,4.61 h -1.92 c -0.44,-1.9 -1.94,-2.93 -3.92,-2.93 -2.91,0 -4.65,2.18 -4.65,5.79 0,3.6 1.72,5.87 4.65,5.87 2.27,0 3.82,-1.31 4.16,-3.9 h 1.86 c -0.49,3.46 -2.71,5.58 -6.08,5.58 -4.05,-0.01 -6.52,-3.19 -6.52,-7.56 z"
            id="path24"
            style="fill:#000000"/>
    <path
            d="m 190.519,8.8499 -1.96,-5.46 -0.47,-1.49 -0.49,1.49 -2,5.46 z m 0.59,1.64 h -6.11 l -1.56,4.23 h -2 l 5.58,-14.4 h 2.12 l 5.56,14.4 h -2.09 z"
            id="path26"
            style="fill:#000000"/>
    <path
            d="m 206.22,13.0799 v 1.64 h -9.39 v -14.4 h 1.88 v 12.77 h 7.51 z"
            id="path28"
            style="fill:#000000"/>
    <path
            d="m 214.219,10.05 h 1.8 c 0.2,2.41 1.66,3.44 4.14,3.44 2.47,0 3.68,-1.01 3.68,-2.65 0,-1.36 -0.81,-2.1 -3.05,-2.57 l -2.02,-0.43 c -2.35,-0.49 -4.04,-1.46 -4.04,-3.76 0,-2.42 1.8,-4.08 5.12,-4.08 3.2,0 5.15,1.56 5.38,4.35 h -1.8 c -0.17,-1.84 -1.43,-2.81 -3.64,-2.81 -2.06,0 -3.28,0.87 -3.28,2.39 0,1.16 0.71,1.8 2.51,2.18 l 2.53,0.55 c 2.67,0.56 4.13,1.84 4.13,4.08 0,2.3 -1.58,4.29 -5.56,4.29 -3.61,-0.01 -5.66,-1.64 -5.9,-4.98 z"
            id="path30"
            style="fill:#000000"/>
    <path
            d="m 239.7,0.3199 -5.46,8.5 v 5.9 h -1.89 v -5.9 l -5.64,-8.5 h 2.27 l 3.7,5.91 0.63,1.07 0.62,-1.07 3.62,-5.91 z"
            id="path32"
            style="fill:#000000"/>
    <path
            d="m 240.75,10.05 h 1.8 c 0.2,2.41 1.66,3.44 4.14,3.44 2.47,0 3.68,-1.01 3.68,-2.65 0,-1.36 -0.81,-2.1 -3.05,-2.57 l -2.03,-0.43 c -2.35,-0.49 -4.04,-1.46 -4.04,-3.76 0,-2.42 1.8,-4.08 5.12,-4.08 3.2,0 5.15,1.56 5.38,4.35 h -1.8 c -0.17,-1.84 -1.43,-2.81 -3.64,-2.81 -2.06,0 -3.28,0.87 -3.28,2.39 0,1.16 0.71,1.8 2.51,2.18 l 2.53,0.55 c 2.67,0.56 4.13,1.84 4.13,4.08 0,2.3 -1.58,4.29 -5.56,4.29 -3.6,-0.01 -5.65,-1.64 -5.89,-4.98 z"
            id="path34"
            style="fill:#000000"/>
    <path
            d="m 265.439,1.9599 h -4.81 v 12.76 h -1.88 v -12.76 h -4.81 v -1.64 h 11.5 z"
            id="path36"
            style="fill:#000000"/>
    <path
            d="m 278.439,13.0799 v 1.64 h -10.37 v -14.4 h 10.18 v 1.64 h -8.3 v 4.53 h 7.66 v 1.64 h -7.66 v 4.95 z"
            id="path38"
            style="fill:#000000"/>
    <path
            d="m 296.029,0.3199 v 14.4 h -1.71 v -9.54 l 0.03,-2.59 -1.02,2.56 -3.44,9.57 h -1.78 l -3.72,-9.89 -0.95,-2.27 0.06,2.62 v 9.54 h -1.72 v -14.4 h 2.65 l 4.08,11 0.49,1.44 0.48,-1.44 3.95,-11 z"
            id="path40"
            style="fill:#000000"/>
    <path
            d="m 299.089,10.05 h 1.8 c 0.2,2.41 1.66,3.44 4.14,3.44 2.47,0 3.68,-1.01 3.68,-2.65 0,-1.36 -0.81,-2.1 -3.05,-2.57 l -2.03,-0.43 c -2.35,-0.49 -4.04,-1.46 -4.04,-3.76 0,-2.42 1.8,-4.08 5.12,-4.08 3.2,0 5.15,1.56 5.38,4.35 h -1.8 c -0.17,-1.84 -1.43,-2.81 -3.64,-2.81 -2.06,0 -3.28,0.87 -3.28,2.39 0,1.16 0.71,1.8 2.51,2.18 l 2.53,0.55 c 2.67,0.56 4.13,1.84 4.13,4.08 0,2.3 -1.58,4.29 -5.56,4.29 -3.61,-0.01 -5.65,-1.64 -5.89,-4.98 z"
            id="path42"
            style="fill:#000000"/>
</svg>
