<svg width="16" height="24" viewBox="0 0 16 24" fill="none" xmlns="http://www.w3.org/2000/svg">
<path fill-rule="evenodd" clip-rule="evenodd" d="M2 4C0.895431 4 0 4.89543 0 6V18C0 19.1046 0.895431 20 2 20H14C15.1046 20 16 19.1046 16 18V6C16 4.89543 15.1046 4 14 4H2ZM7.87725 10.4741L7.85557 10.1281C7.79054 9.23129 8.36136 8.41214 9.26455 8.09436C9.59693 7.98137 10.1605 7.96725 10.529 8.06611C10.6735 8.10848 10.9481 8.24972 11.1432 8.37683L11.4972 8.60986L11.8874 8.48981C12.1042 8.42626 12.3932 8.32033 12.5233 8.24972C12.6461 8.18616 12.7545 8.15085 12.7545 8.17204C12.7545 8.29209 12.4871 8.70166 12.2632 8.92764C11.9597 9.24541 12.0464 9.27366 12.6606 9.06181C13.0291 8.94176 13.0363 8.94176 12.964 9.07593C12.9207 9.14655 12.6967 9.39371 12.4582 9.61968C12.0536 10.0081 12.0319 10.0504 12.0319 10.3753C12.0319 10.8767 11.7863 11.9218 11.5406 12.4938C11.0854 13.5672 10.1099 14.6759 9.13449 15.2337C7.76164 16.0176 5.93357 16.2153 4.39453 15.7563C3.88152 15.6009 3 15.2055 3 15.1349C3 15.1137 3.26735 15.0854 3.5925 15.0784C4.2717 15.0642 4.9509 14.8806 5.52894 14.5558L5.91912 14.3298L5.47114 14.1815C4.83529 13.9697 4.26447 13.4824 4.11996 13.0234C4.07661 12.8751 4.09106 12.8681 4.49569 12.8681L4.91477 12.861L4.56072 12.6986C4.14164 12.4938 3.75868 12.1478 3.57082 11.7947C3.43353 11.5405 3.26012 10.8978 3.3107 10.8484C3.32515 10.8272 3.47689 10.8696 3.6503 10.9261C4.14886 11.1026 4.21389 11.0603 3.92487 10.7637C3.38295 10.227 3.21677 9.42902 3.47689 8.67342L3.59972 8.33446L4.07661 8.79347C5.05206 9.71855 6.20092 10.2694 7.51597 10.4318L7.87725 10.4741Z" fill="white"/>
</svg>
