<svg width="18" height="18" viewBox="0 0 18 18" fill="none" xmlns="http://www.w3.org/2000/svg">
<path fill-rule="evenodd" clip-rule="evenodd" d="M9.99998 1.5C7.8273 1.5 7.5549 1.50921 6.70161 1.54814C5.85007 1.58701 5.26855 1.72223 4.75966 1.92001C4.23359 2.12445 3.78745 2.398 3.34271 2.84274C2.89797 3.28748 2.62442 3.73363 2.41997 4.2597C2.2222 4.76859 2.08698 5.3501 2.04811 6.20164C2.00918 7.0549 2 7.32733 2 9.50002C2 11.6727 2.00918 11.9451 2.04811 12.7984C2.08698 13.6499 2.2222 14.2314 2.41997 14.7403C2.62442 15.2664 2.89797 15.7125 3.34271 16.1573C3.78745 16.602 4.23359 16.8756 4.75966 17.08C5.26855 17.2778 5.85007 17.413 6.70161 17.4519C7.5549 17.4908 7.8273 17.5 9.99998 17.5C12.1727 17.5 12.4451 17.4908 13.2984 17.4519C14.1499 17.413 14.7314 17.2778 15.2403 17.08C15.7664 16.8756 16.2125 16.602 16.6573 16.1573C17.102 15.7125 17.3755 15.2664 17.58 14.7403C17.7778 14.2314 17.913 13.6499 17.9519 12.7984C17.9908 11.9451 18 11.6727 18 9.50002C18 7.32733 17.9908 7.0549 17.9519 6.20164C17.913 5.3501 17.7778 4.76859 17.58 4.2597C17.3755 3.73363 17.102 3.28748 16.6573 2.84274C16.2125 2.398 15.7664 2.12445 15.2403 1.92001C14.7314 1.72223 14.1499 1.58701 13.2984 1.54814C12.4451 1.50921 12.1727 1.5 9.99998 1.5M10.0159 5.40479C7.74537 5.40479 5.90475 7.2454 5.90475 9.5159C5.90475 11.7864 7.74537 13.627 10.0159 13.627C12.2864 13.627 14.127 11.7864 14.127 9.5159C14.127 7.2454 12.2864 5.40479 10.0159 5.40479V5.40479ZM10.0159 12.1845C8.54206 12.1845 7.34726 10.9897 7.34726 9.51591C7.34726 8.04209 8.54206 6.84729 10.0159 6.84729C11.4897 6.84729 12.6845 8.04209 12.6845 9.51591C12.6845 10.9897 11.4897 12.1845 10.0159 12.1845V12.1845ZM15.2063 5.21433C15.2063 5.74032 14.78 6.16672 14.254 6.16672C13.728 6.16672 13.3016 5.74032 13.3016 5.21433C13.3016 4.68834 13.728 4.26196 14.254 4.26196C14.78 4.26196 15.2063 4.68834 15.2063 5.21433" fill="black"/>
</svg>
