<svg width="18" height="18" viewBox="0 0 18 18" fill="none" xmlns="http://www.w3.org/2000/svg">
<path fill-rule="evenodd" clip-rule="evenodd" d="M17.1477 1.53298C17.4606 1.61634 17.756 1.87043 17.9045 2.18399L17.9831 2.34989L17.9958 9.30907C18.0028 13.1366 18.0008 16.3485 17.9914 16.4466C17.9819 16.5448 17.9493 16.6918 17.9187 16.7734C17.8178 17.0433 17.545 17.3156 17.2583 17.4325L17.1185 17.4896L10.0613 17.4971C3.54996 17.5039 2.9918 17.5012 2.84447 17.4622C2.43938 17.355 2.10628 16.9895 2.02559 16.5636C2.00832 16.4726 1.99975 14.1034 2.00001 9.49008C2.00041 1.89707 1.9907 2.38758 2.14654 2.09867C2.28298 1.84575 2.61203 1.58873 2.88 1.52578C2.93804 1.51214 5.87124 1.50166 9.99773 1.50034C15.8685 1.49845 17.0381 1.5038 17.1477 1.53298ZM5.23823 3.77277C4.80784 3.87722 4.42131 4.24408 4.28629 4.67627C4.1866 4.99545 4.2276 5.43765 4.3842 5.73215C4.48026 5.91278 4.77862 6.20644 4.94964 6.28866C5.49834 6.55247 6.12105 6.45484 6.53947 6.0394C7.06554 5.51709 7.06536 4.65759 6.53909 4.13103C6.27524 3.86707 5.94667 3.73554 5.55999 3.73918C5.45509 3.74015 5.31031 3.75526 5.23823 3.77277ZM12.5094 7.35062C11.7334 7.43225 11.0688 7.80199 10.6832 8.36676C10.485 8.65694 10.469 8.62814 10.4686 7.97929L10.4682 7.52739L9.3683 7.53401L8.26841 7.54065L8.26197 11.2911C8.25722 14.0584 8.26309 15.0506 8.28438 15.0763C8.30813 15.1049 8.51148 15.1099 9.43521 15.1044L10.5572 15.0978L10.5745 12.9765C10.5863 11.5297 10.6014 10.7976 10.6221 10.6738C10.7323 10.0138 11.0009 9.63222 11.4791 9.45598C11.6026 9.41049 11.6846 9.40181 12.0068 9.40013C12.3502 9.39833 12.4029 9.40405 12.5354 9.45754C12.828 9.5757 13.0841 9.88898 13.1732 10.2378C13.271 10.6206 13.274 10.6879 13.289 12.9095L13.3038 15.0978L14.4408 15.1044C15.5684 15.111 15.578 15.1106 15.606 15.0583C15.6444 14.9864 15.6213 10.4355 15.5805 10.0215C15.5204 9.41319 15.3581 8.82834 15.1461 8.45643C14.9297 8.07672 14.5632 7.75057 14.1597 7.57879C13.9232 7.47808 13.515 7.38085 13.1998 7.35022C12.9159 7.32258 12.7753 7.32266 12.5094 7.35062ZM4.43255 7.5449C4.42322 7.55421 4.41559 9.25334 4.41559 11.3207C4.41559 14.7249 4.41938 15.0811 4.45582 15.0951C4.50836 15.1152 6.63705 15.1152 6.68959 15.0951C6.72603 15.0811 6.72982 14.7234 6.72982 11.3038V7.52792H5.58967C4.96256 7.52792 4.44186 7.53556 4.43255 7.5449Z" fill="black"/>
</svg>
