<svg width="16" height="24" viewBox="0 0 16 24" fill="none" xmlns="http://www.w3.org/2000/svg">
<path fill-rule="evenodd" clip-rule="evenodd" d="M14.251 8.34333C14.9395 8.53225 15.4816 9.08888 15.6656 9.79576C16 11.0769 16 13.75 16 13.75C16 13.75 16 16.423 15.6656 17.7042C15.4816 18.4111 14.9395 18.9678 14.251 19.1568C13.0034 19.5 8 19.5 8 19.5C8 19.5 2.99664 19.5 1.74891 19.1568C1.06045 18.9678 0.518273 18.4111 0.334273 17.7042C0 16.423 0 13.75 0 13.75C0 13.75 0 11.0769 0.334273 9.79576C0.518273 9.08888 1.06045 8.53225 1.74891 8.34333C2.99664 8 8 8 8 8C8 8 13.0034 8 14.251 8.34333ZM6.50006 11.5V16.5L10.5001 14.0001L6.50006 11.5Z" fill="white"/>
</svg>
