<svg width="307" height="63" viewBox="0 0 307 63" fill="none" xmlns="http://www.w3.org/2000/svg">
<path d="M12.0918 12.7344C11.5176 13.2031 10.8906 13.5664 10.2109 13.8242C9.53125 14.082 8.76367 14.2109 7.9082 14.2109C5.99805 14.2109 4.48926 13.6484 3.38184 12.5234C2.28027 11.3926 1.72949 9.85742 1.72949 7.91797C1.72949 5.91406 2.32129 4.29102 3.50488 3.04883C4.69434 1.80664 6.24414 1.18555 8.1543 1.18555C8.95703 1.18555 9.66895 1.30566 10.29 1.5459C10.917 1.78027 11.4912 2.12305 12.0127 2.57422L10.9932 3.98926C10.583 3.66113 10.1523 3.4209 9.70117 3.26855C9.25 3.11035 8.74316 3.03125 8.18066 3.03125C6.93848 3.03125 5.91895 3.46191 5.12207 4.32324C4.3252 5.17871 3.92676 6.33008 3.92676 7.77734C3.92676 9.18945 4.30176 10.3057 5.05176 11.126C5.80176 11.9463 6.80957 12.3564 8.0752 12.3564C8.59668 12.3564 9.10352 12.2686 9.5957 12.0928C10.0938 11.9111 10.5654 11.6445 11.0107 11.293L12.0918 12.7344ZM17.9717 14.2109C16.5654 14.2109 15.4463 13.792 14.6143 12.9541C13.7881 12.1104 13.375 10.9824 13.375 9.57031C13.3809 8.09375 13.8145 6.92773 14.6758 6.07227C15.5371 5.2168 16.6914 4.78906 18.1387 4.78906C19.5508 4.7832 20.6582 5.20215 21.4609 6.0459C22.2637 6.88965 22.665 8.01465 22.665 9.4209C22.665 10.8623 22.2402 12.0225 21.3906 12.9014C20.5469 13.7744 19.4072 14.2109 17.9717 14.2109ZM18.0684 12.5762C18.8828 12.5762 19.5039 12.3066 19.9316 11.7676C20.3652 11.2285 20.582 10.4639 20.582 9.47363C20.582 8.50098 20.3652 7.75098 19.9316 7.22363C19.498 6.69043 18.874 6.42383 18.0596 6.42383C17.2568 6.42383 16.6211 6.70215 16.1523 7.25879C15.6895 7.81543 15.458 8.57129 15.458 9.52637C15.458 10.4932 15.6895 11.2432 16.1523 11.7764C16.6152 12.3096 17.2539 12.5762 18.0684 12.5762ZM38.1689 14H36.1299V8.84082C36.1299 8.00293 35.9893 7.39062 35.708 7.00391C35.4326 6.61719 34.9873 6.42383 34.3721 6.42383C33.8271 6.42383 33.3701 6.66406 33.001 7.14453C32.6377 7.625 32.4561 8.21387 32.4561 8.91113V14H30.417V8.72656C30.417 7.95898 30.2676 7.38477 29.9688 7.00391C29.6758 6.61719 29.2363 6.42383 28.6504 6.42383C28.0879 6.42383 27.6309 6.65527 27.2793 7.11816C26.9277 7.5752 26.752 8.17871 26.752 8.92871V14H24.7041V5H26.752V6.35352H26.7871C27.0918 5.85547 27.4873 5.47168 27.9736 5.20215C28.4658 4.92676 29.0137 4.78906 29.6172 4.78906C30.2383 4.78906 30.7715 4.94141 31.2168 5.24609C31.668 5.55078 31.9902 5.97266 32.1836 6.51172C32.5352 5.93164 32.96 5.50098 33.458 5.21973C33.9619 4.93262 34.5479 4.78906 35.2158 4.78906C36.1826 4.78906 36.915 5.09375 37.4131 5.70312C37.917 6.30664 38.1689 7.21484 38.1689 8.42773V14ZM42.6689 12.8838H42.6338V18.1396H40.5859V5H42.6338V6.42383H42.6689C43.0205 5.87891 43.4482 5.47168 43.9521 5.20215C44.4619 4.92676 45.0391 4.78906 45.6836 4.78906C46.8555 4.78906 47.7666 5.19043 48.417 5.99316C49.0732 6.79004 49.4014 7.87402 49.4014 9.24512C49.4014 10.7451 49.0293 11.9492 48.2852 12.8574C47.5469 13.7598 46.5508 14.2109 45.2969 14.2109C44.7285 14.2109 44.2246 14.1025 43.7852 13.8857C43.3457 13.6631 42.9736 13.3291 42.6689 12.8838ZM42.6074 9.14844V10.1855C42.6074 10.8652 42.8184 11.4336 43.2402 11.8906C43.668 12.3477 44.207 12.5762 44.8574 12.5762C45.625 12.5762 46.2227 12.2832 46.6504 11.6973C47.084 11.1113 47.3008 10.3027 47.3008 9.27148C47.3008 8.35156 47.1016 7.64844 46.7031 7.16211C46.3105 6.66992 45.7598 6.42383 45.0508 6.42383C44.3242 6.42383 43.7354 6.67871 43.2842 7.18848C42.833 7.69824 42.6074 8.35156 42.6074 9.14844ZM56.4766 6.74902C56.3535 6.70801 56.2275 6.67871 56.0986 6.66113C55.9756 6.6377 55.8408 6.62598 55.6943 6.62598C54.9971 6.62598 54.4551 6.89551 54.0684 7.43457C53.6816 7.97363 53.4883 8.67676 53.4883 9.54395V14H51.4404V5H53.4883V6.69629H53.5234C53.7344 6.09277 54.0449 5.63281 54.4551 5.31641C54.8652 5 55.3457 4.8418 55.8965 4.8418C56.0723 4.8418 56.2334 4.85352 56.3799 4.87695C56.5264 4.90039 56.6729 4.93848 56.8193 4.99121L56.4766 6.74902ZM65.6523 10.0273H59.4824C59.5117 10.8828 59.7549 11.5303 60.2119 11.9697C60.6689 12.4092 61.2842 12.6289 62.0576 12.6289C62.4326 12.6289 62.8252 12.5498 63.2354 12.3916C63.6455 12.2334 64.0322 11.9844 64.3955 11.6445L65.5117 12.7959C64.9961 13.2705 64.4424 13.625 63.8506 13.8594C63.2588 14.0938 62.5938 14.2109 61.8555 14.2109C60.4785 14.2109 59.3975 13.8096 58.6123 13.0068C57.8271 12.2041 57.4316 11.0732 57.4258 9.61426C57.4258 8.17285 57.8301 7.00977 58.6387 6.125C59.4473 5.23438 60.4785 4.78906 61.7324 4.78906C62.957 4.78906 63.915 5.16992 64.6064 5.93164C65.3037 6.6875 65.6523 7.76562 65.6523 9.16602V10.0273ZM63.6748 8.59473C63.6748 7.84473 63.502 7.27637 63.1562 6.88965C62.8164 6.49707 62.3418 6.30078 61.7324 6.30078C61.1348 6.30078 60.6309 6.51172 60.2207 6.93359C59.8164 7.35547 59.5703 7.90918 59.4824 8.59473H63.6748ZM75.5664 14H73.5273V8.81445C73.5273 8.01758 73.3779 7.41992 73.0791 7.02148C72.7803 6.62305 72.332 6.42383 71.7344 6.42383C71.1191 6.42383 70.6123 6.65527 70.2139 7.11816C69.8154 7.5752 69.6162 8.16406 69.6162 8.88477V14H67.5684V0.675781H69.6162V6.3623H69.6514C69.9854 5.84082 70.3955 5.44824 70.8818 5.18457C71.3682 4.9209 71.9131 4.78906 72.5166 4.78906C73.5186 4.78906 74.2773 5.09668 74.793 5.71191C75.3086 6.32715 75.5664 7.24121 75.5664 8.4541V14ZM85.6387 10.0273H79.4688C79.498 10.8828 79.7412 11.5303 80.1982 11.9697C80.6553 12.4092 81.2705 12.6289 82.0439 12.6289C82.4189 12.6289 82.8115 12.5498 83.2217 12.3916C83.6318 12.2334 84.0186 11.9844 84.3818 11.6445L85.498 12.7959C84.9824 13.2705 84.4287 13.625 83.8369 13.8594C83.2451 14.0938 82.5801 14.2109 81.8418 14.2109C80.4648 14.2109 79.3838 13.8096 78.5986 13.0068C77.8135 12.2041 77.418 11.0732 77.4121 9.61426C77.4121 8.17285 77.8164 7.00977 78.625 6.125C79.4336 5.23438 80.4648 4.78906 81.7188 4.78906C82.9434 4.78906 83.9014 5.16992 84.5928 5.93164C85.29 6.6875 85.6387 7.76562 85.6387 9.16602V10.0273ZM83.6611 8.59473C83.6611 7.84473 83.4883 7.27637 83.1426 6.88965C82.8027 6.49707 82.3281 6.30078 81.7188 6.30078C81.1211 6.30078 80.6172 6.51172 80.207 6.93359C79.8027 7.35547 79.5566 7.90918 79.4688 8.59473H83.6611ZM95.5791 14H93.54V8.87598C93.54 8.06152 93.3877 7.44922 93.083 7.03906C92.7842 6.62891 92.333 6.42383 91.7295 6.42383C91.1084 6.42383 90.5986 6.65527 90.2002 7.11816C89.8018 7.58105 89.6025 8.16406 89.6025 8.86719V14H87.5547V5H89.6025V6.38867H89.6377C89.9658 5.86133 90.376 5.46289 90.8682 5.19336C91.3604 4.92383 91.9229 4.78906 92.5557 4.78906C93.54 4.78906 94.29 5.10547 94.8057 5.73828C95.3213 6.36523 95.5791 7.28223 95.5791 8.48926V14ZM97.2314 13.0508L98.2334 11.7236C98.5732 12.0283 98.9365 12.2598 99.3232 12.418C99.7158 12.5762 100.144 12.6553 100.606 12.6553C101.093 12.6553 101.474 12.5615 101.749 12.374C102.03 12.1865 102.171 11.9053 102.171 11.5303C102.171 11.2432 102.051 11 101.811 10.8008C101.576 10.6016 101.184 10.4404 100.633 10.3174C99.4961 10.0713 98.6992 9.72852 98.2422 9.28906C97.791 8.84375 97.5654 8.27246 97.5654 7.5752C97.5654 6.74902 97.876 6.07812 98.4971 5.5625C99.124 5.04688 99.9355 4.78906 100.932 4.78906C101.482 4.78906 102.001 4.87109 102.487 5.03516C102.979 5.19336 103.428 5.44238 103.832 5.78223L102.883 7.07422C102.537 6.81641 102.206 6.62891 101.89 6.51172C101.573 6.39453 101.236 6.33594 100.879 6.33594C100.416 6.33594 100.053 6.42676 99.7891 6.6084C99.5312 6.78418 99.4023 7.0332 99.4023 7.35547C99.4023 7.67773 99.5312 7.9209 99.7891 8.08496C100.053 8.24902 100.51 8.40137 101.16 8.54199C102.139 8.75879 102.859 9.09277 103.322 9.54395C103.791 9.98926 104.025 10.5869 104.025 11.3369C104.025 12.2217 103.706 12.9219 103.067 13.4375C102.429 13.9531 101.588 14.2109 100.545 14.2109C99.8887 14.2109 99.2822 14.1143 98.7256 13.9209C98.1748 13.7217 97.6768 13.4316 97.2314 13.0508ZM106.961 3.28613C106.58 3.28613 106.267 3.16602 106.021 2.92578C105.774 2.67969 105.651 2.38086 105.651 2.0293C105.651 1.67187 105.774 1.37305 106.021 1.13281C106.267 0.892578 106.58 0.772461 106.961 0.772461C107.342 0.772461 107.655 0.892578 107.901 1.13281C108.147 1.37305 108.271 1.67187 108.271 2.0293C108.271 2.39258 108.147 2.69434 107.901 2.93457C107.655 3.16895 107.342 3.28613 106.961 3.28613ZM107.972 14H105.924V5H107.972V14ZM118.378 5L114.897 14H112.691L109.378 5H111.584L113.544 11.0293C113.626 11.2871 113.69 11.5215 113.737 11.7324C113.79 11.9434 113.831 12.1514 113.86 12.3564H113.896C113.931 12.1338 113.972 11.9199 114.019 11.7148C114.071 11.5098 114.133 11.2959 114.203 11.0732L116.242 5H118.378ZM127.246 10.0273H121.076C121.105 10.8828 121.349 11.5303 121.806 11.9697C122.263 12.4092 122.878 12.6289 123.651 12.6289C124.026 12.6289 124.419 12.5498 124.829 12.3916C125.239 12.2334 125.626 11.9844 125.989 11.6445L127.105 12.7959C126.59 13.2705 126.036 13.625 125.444 13.8594C124.853 14.0938 124.188 14.2109 123.449 14.2109C122.072 14.2109 120.991 13.8096 120.206 13.0068C119.421 12.2041 119.025 11.0732 119.02 9.61426C119.02 8.17285 119.424 7.00977 120.232 6.125C121.041 5.23438 122.072 4.78906 123.326 4.78906C124.551 4.78906 125.509 5.16992 126.2 5.93164C126.897 6.6875 127.246 7.76562 127.246 9.16602V10.0273ZM125.269 8.59473C125.269 7.84473 125.096 7.27637 124.75 6.88965C124.41 6.49707 123.936 6.30078 123.326 6.30078C122.729 6.30078 122.225 6.51172 121.814 6.93359C121.41 7.35547 121.164 7.90918 121.076 8.59473H125.269ZM140.781 14H138.804V12.7168H138.769C138.458 13.2148 138.077 13.5898 137.626 13.8418C137.175 14.0879 136.659 14.2109 136.079 14.2109C135.259 14.2109 134.579 13.9707 134.04 13.4902C133.507 13.0098 133.24 12.3594 133.24 11.5391C133.24 10.7363 133.507 10.0801 134.04 9.57031C134.579 9.06055 135.37 8.73535 136.413 8.59473L138.812 8.28711V8.03223C138.812 7.44043 138.654 7.00684 138.338 6.73145C138.027 6.4502 137.605 6.30957 137.072 6.30957C136.627 6.30957 136.196 6.39746 135.78 6.57324C135.37 6.74902 134.986 7.00977 134.629 7.35547L133.548 6.26562C134.028 5.79102 134.57 5.42773 135.174 5.17578C135.783 4.91797 136.469 4.78906 137.23 4.78906C138.42 4.78906 139.308 5.08789 139.894 5.68555C140.485 6.27734 140.781 7.15918 140.781 8.33105V14ZM138.812 10.3438V9.6582L136.817 9.91309C136.267 9.9834 135.856 10.1328 135.587 10.3613C135.323 10.584 135.191 10.9033 135.191 11.3193C135.191 11.7412 135.323 12.0752 135.587 12.3213C135.856 12.5615 136.202 12.6816 136.624 12.6816C137.28 12.6816 137.808 12.4619 138.206 12.0225C138.61 11.5771 138.812 11.0176 138.812 10.3438ZM151.267 14H149.228V8.87598C149.228 8.06152 149.075 7.44922 148.771 7.03906C148.472 6.62891 148.021 6.42383 147.417 6.42383C146.796 6.42383 146.286 6.65527 145.888 7.11816C145.489 7.58105 145.29 8.16406 145.29 8.86719V14H143.242V5H145.29V6.38867H145.325C145.653 5.86133 146.063 5.46289 146.556 5.19336C147.048 4.92383 147.61 4.78906 148.243 4.78906C149.228 4.78906 149.978 5.10547 150.493 5.73828C151.009 6.36523 151.267 7.28223 151.267 8.48926V14ZM159.854 12.6465C159.525 13.168 159.115 13.5605 158.623 13.8242C158.131 14.082 157.557 14.2109 156.9 14.2109C155.752 14.2109 154.835 13.8125 154.149 13.0156C153.464 12.2129 153.121 11.1113 153.121 9.71094C153.121 8.2168 153.499 7.02441 154.255 6.13379C155.017 5.2373 156.024 4.78906 157.278 4.78906C157.87 4.78906 158.383 4.90332 158.816 5.13184C159.256 5.35449 159.602 5.67676 159.854 6.09863H159.889V0.675781H161.937V14H159.889V12.6465H159.854ZM155.204 9.63184C155.204 10.5518 155.412 11.2725 155.828 11.7939C156.244 12.3154 156.812 12.5762 157.533 12.5762C158.248 12.5762 158.822 12.3154 159.256 11.7939C159.695 11.2725 159.915 10.6045 159.915 9.79004V8.76172C159.915 8.09961 159.704 7.5459 159.282 7.10059C158.86 6.64941 158.321 6.42383 157.665 6.42383C156.897 6.42383 156.294 6.70801 155.854 7.27637C155.421 7.83887 155.204 8.62402 155.204 9.63184ZM179.084 12.7344C178.51 13.2031 177.883 13.5664 177.203 13.8242C176.523 14.082 175.756 14.2109 174.9 14.2109C172.99 14.2109 171.481 13.6484 170.374 12.5234C169.272 11.3926 168.722 9.85742 168.722 7.91797C168.722 5.91406 169.313 4.29102 170.497 3.04883C171.687 1.80664 173.236 1.18555 175.146 1.18555C175.949 1.18555 176.661 1.30566 177.282 1.5459C177.909 1.78027 178.483 2.12305 179.005 2.57422L177.985 3.98926C177.575 3.66113 177.145 3.4209 176.693 3.26855C176.242 3.11035 175.735 3.03125 175.173 3.03125C173.931 3.03125 172.911 3.46191 172.114 4.32324C171.317 5.17871 170.919 6.33008 170.919 7.77734C170.919 9.18945 171.294 10.3057 172.044 11.126C172.794 11.9463 173.802 12.3564 175.067 12.3564C175.589 12.3564 176.096 12.2686 176.588 12.0928C177.086 11.9111 177.558 11.6445 178.003 11.293L179.084 12.7344ZM188.805 14H186.757V12.6553H186.722C186.411 13.1592 186.019 13.5459 185.544 13.8154C185.075 14.0791 184.548 14.2109 183.962 14.2109C182.901 14.2109 182.104 13.8945 181.571 13.2617C181.044 12.6289 180.78 11.6885 180.78 10.4404V5H182.811V10.1943C182.811 10.9854 182.963 11.5801 183.268 11.9785C183.578 12.377 184.047 12.5762 184.674 12.5762C185.289 12.5762 185.79 12.3535 186.177 11.9082C186.563 11.4629 186.757 10.8799 186.757 10.1592V5H188.805V14ZM190.624 13.0508L191.626 11.7236C191.966 12.0283 192.329 12.2598 192.716 12.418C193.108 12.5762 193.536 12.6553 193.999 12.6553C194.485 12.6553 194.866 12.5615 195.142 12.374C195.423 12.1865 195.563 11.9053 195.563 11.5303C195.563 11.2432 195.443 11 195.203 10.8008C194.969 10.6016 194.576 10.4404 194.025 10.3174C192.889 10.0713 192.092 9.72852 191.635 9.28906C191.184 8.84375 190.958 8.27246 190.958 7.5752C190.958 6.74902 191.269 6.07812 191.89 5.5625C192.517 5.04688 193.328 4.78906 194.324 4.78906C194.875 4.78906 195.394 4.87109 195.88 5.03516C196.372 5.19336 196.82 5.44238 197.225 5.78223L196.275 7.07422C195.93 6.81641 195.599 6.62891 195.282 6.51172C194.966 6.39453 194.629 6.33594 194.271 6.33594C193.809 6.33594 193.445 6.42676 193.182 6.6084C192.924 6.78418 192.795 7.0332 192.795 7.35547C192.795 7.67773 192.924 7.9209 193.182 8.08496C193.445 8.24902 193.902 8.40137 194.553 8.54199C195.531 8.75879 196.252 9.09277 196.715 9.54395C197.184 9.98926 197.418 10.5869 197.418 11.3369C197.418 12.2217 197.099 12.9219 196.46 13.4375C195.821 13.9531 194.98 14.2109 193.938 14.2109C193.281 14.2109 192.675 14.1143 192.118 13.9209C191.567 13.7217 191.069 13.4316 190.624 13.0508ZM204.335 13.7363C204.071 13.8887 203.784 14.0029 203.474 14.0791C203.169 14.1611 202.835 14.2021 202.472 14.2021C201.634 14.2021 200.992 13.9824 200.547 13.543C200.102 13.1035 199.879 12.4531 199.879 11.5918V6.59961H198.367V5H199.879V2.80273L201.918 2.2666V5H204.106V6.59961H201.918V11.4512C201.918 11.8672 201.994 12.1689 202.146 12.3564C202.305 12.5381 202.548 12.6289 202.876 12.6289C203.034 12.6289 203.187 12.6084 203.333 12.5674C203.485 12.5205 203.626 12.4531 203.755 12.3652L204.335 13.7363ZM209.819 14.2109C208.413 14.2109 207.294 13.792 206.462 12.9541C205.636 12.1104 205.223 10.9824 205.223 9.57031C205.229 8.09375 205.662 6.92773 206.523 6.07227C207.385 5.2168 208.539 4.78906 209.986 4.78906C211.398 4.7832 212.506 5.20215 213.309 6.0459C214.111 6.88965 214.513 8.01465 214.513 9.4209C214.513 10.8623 214.088 12.0225 213.238 12.9014C212.395 13.7744 211.255 14.2109 209.819 14.2109ZM209.916 12.5762C210.73 12.5762 211.352 12.3066 211.779 11.7676C212.213 11.2285 212.43 10.4639 212.43 9.47363C212.43 8.50098 212.213 7.75098 211.779 7.22363C211.346 6.69043 210.722 6.42383 209.907 6.42383C209.104 6.42383 208.469 6.70215 208 7.25879C207.537 7.81543 207.306 8.57129 207.306 9.52637C207.306 10.4932 207.537 11.2432 208 11.7764C208.463 12.3096 209.102 12.5762 209.916 12.5762ZM230.017 14H227.978V8.84082C227.978 8.00293 227.837 7.39062 227.556 7.00391C227.28 6.61719 226.835 6.42383 226.22 6.42383C225.675 6.42383 225.218 6.66406 224.849 7.14453C224.485 7.625 224.304 8.21387 224.304 8.91113V14H222.265V8.72656C222.265 7.95898 222.115 7.38477 221.816 7.00391C221.523 6.61719 221.084 6.42383 220.498 6.42383C219.936 6.42383 219.479 6.65527 219.127 7.11816C218.775 7.5752 218.6 8.17871 218.6 8.92871V14H216.552V5H218.6V6.35352H218.635C218.939 5.85547 219.335 5.47168 219.821 5.20215C220.313 4.92676 220.861 4.78906 221.465 4.78906C222.086 4.78906 222.619 4.94141 223.064 5.24609C223.516 5.55078 223.838 5.97266 224.031 6.51172C224.383 5.93164 224.808 5.50098 225.306 5.21973C225.81 4.93262 226.396 4.78906 227.063 4.78906C228.03 4.78906 228.763 5.09375 229.261 5.70312C229.765 6.30664 230.017 7.21484 230.017 8.42773V14ZM233.471 3.28613C233.09 3.28613 232.776 3.16602 232.53 2.92578C232.284 2.67969 232.161 2.38086 232.161 2.0293C232.161 1.67187 232.284 1.37305 232.53 1.13281C232.776 0.892578 233.09 0.772461 233.471 0.772461C233.852 0.772461 234.165 0.892578 234.411 1.13281C234.657 1.37305 234.78 1.67187 234.78 2.0293C234.78 2.39258 234.657 2.69434 234.411 2.93457C234.165 3.16895 233.852 3.28613 233.471 3.28613ZM234.481 14H232.434V5H234.481V14ZM243.604 5.94043L238.797 12.3916H243.648V14H236.02V13.1035L240.906 6.6084H236.459V5H243.604V5.94043ZM252.965 10.0273H246.795C246.824 10.8828 247.067 11.5303 247.524 11.9697C247.981 12.4092 248.597 12.6289 249.37 12.6289C249.745 12.6289 250.138 12.5498 250.548 12.3916C250.958 12.2334 251.345 11.9844 251.708 11.6445L252.824 12.7959C252.309 13.2705 251.755 13.625 251.163 13.8594C250.571 14.0938 249.906 14.2109 249.168 14.2109C247.791 14.2109 246.71 13.8096 245.925 13.0068C245.14 12.2041 244.744 11.0732 244.738 9.61426C244.738 8.17285 245.143 7.00977 245.951 6.125C246.76 5.23438 247.791 4.78906 249.045 4.78906C250.27 4.78906 251.228 5.16992 251.919 5.93164C252.616 6.6875 252.965 7.76562 252.965 9.16602V10.0273ZM250.987 8.59473C250.987 7.84473 250.814 7.27637 250.469 6.88965C250.129 6.49707 249.654 6.30078 249.045 6.30078C248.447 6.30078 247.943 6.51172 247.533 6.93359C247.129 7.35547 246.883 7.90918 246.795 8.59473H250.987ZM261.033 12.6465C260.705 13.168 260.295 13.5605 259.803 13.8242C259.311 14.082 258.736 14.2109 258.08 14.2109C256.932 14.2109 256.015 13.8125 255.329 13.0156C254.644 12.2129 254.301 11.1113 254.301 9.71094C254.301 8.2168 254.679 7.02441 255.435 6.13379C256.196 5.2373 257.204 4.78906 258.458 4.78906C259.05 4.78906 259.562 4.90332 259.996 5.13184C260.436 5.35449 260.781 5.67676 261.033 6.09863H261.068V0.675781H263.116V14H261.068V12.6465H261.033ZM256.384 9.63184C256.384 10.5518 256.592 11.2725 257.008 11.7939C257.424 12.3154 257.992 12.5762 258.713 12.5762C259.428 12.5762 260.002 12.3154 260.436 11.7939C260.875 11.2725 261.095 10.6045 261.095 9.79004V8.76172C261.095 8.09961 260.884 7.5459 260.462 7.10059C260.04 6.64941 259.501 6.42383 258.845 6.42383C258.077 6.42383 257.474 6.70801 257.034 7.27637C256.601 7.83887 256.384 8.62402 256.384 9.63184Z" fill="#CC0000"/>
<g clip-path="url(#clip0_32_4053)">
<path d="M292.031 62.7447C286.577 62.7447 280.969 59.9561 280.969 51.9485C280.969 48.0394 283.056 34.2295 296.175 34.2295C301.4 34.2295 307.007 36.9771 307.007 44.908C307.005 46.8103 306.745 48.7036 306.235 50.5363C304.03 58.9328 298.56 62.76 292.036 62.76L292.031 62.7447ZM302.597 44.7289C302.597 38.7731 298.458 37.4172 295.945 37.4172C287.82 37.4172 285.461 47.9012 285.461 52.0815C285.461 55.1515 286.351 56.6098 287.242 57.5768C288.71 59.2039 290.88 59.5109 292.271 59.5109C297.388 59.5109 300.97 54.6757 302.213 48.2901C302.46 47.1119 302.59 45.9122 302.602 44.7084" fill="#6D6E71"/>
<path d="M297.181 48.9301C296.874 51.0074 295.171 52.7113 293.38 52.7369C291.589 52.7624 290.381 51.0944 290.688 49.0171C290.995 46.9397 292.699 45.2358 294.49 45.2103C296.281 45.1847 297.488 46.8527 297.181 48.9301Z" fill="#E11B22"/>
<path d="M1.535 50.3265C0.6447 54.0719 0 56.7172 0 56.7172L0.209785 56.968L7.34242 56.84L7.59313 56.5842L9.01557 50.3163L1.535 50.3265Z" fill="#E11B22"/>
<path d="M9.72303 47.2517H11.5343C16.7687 47.1238 21.9928 46.9856 25.16 42.4676C26.5316 40.2819 27.2768 37.7616 27.3141 35.1815C27.3141 32.311 26.2601 29.6094 23.5176 28.1307C21.4709 27.0357 18.9126 26.9897 14.7374 27.0357L10.8129 27.0767L7.09818 27.1176L6.80141 27.3734C6.07484 31.0063 3.9412 40.1651 2.25781 47.2773L9.72303 47.2517ZM12.4604 34.9717L13.1358 32.0194H14.2308C16.17 31.9784 17.3008 32.0194 18.2423 32.531C18.7587 32.8525 19.1846 33.3003 19.4801 33.832C19.7755 34.3638 19.9306 34.962 19.9308 35.5703C19.9308 37.7244 18.8358 40.1753 16.8915 41.127C15.3565 41.8843 13.4735 41.9303 11.8669 41.9303H10.9817L12.4604 34.9717Z" fill="#E11B22"/>
<path d="M242.862 51.7799L244.033 46.6172L245.221 41.26L245.993 37.8932L247.308 37.8523C249.867 37.7756 251.176 37.8114 252.22 38.277C253.806 38.9729 254.502 40.3237 254.502 42.1094C254.493 43.2009 254.196 44.2706 253.642 45.211C253.087 46.1514 252.295 46.9293 251.345 47.4665H256.999C258.122 45.816 258.733 43.8704 258.754 41.874C258.754 38.9319 257.634 36.9978 255.776 35.8773C253.919 34.7567 251.596 34.7158 248.101 34.7567L245.2 34.7976L242.529 34.8335L242.217 35.0637C241.194 40.559 240.784 42.4164 239.004 50.1118L237.98 54.4457L236.164 61.9518L236.394 62.223L240.421 62.1462L240.692 61.875L241.716 56.8044L242.836 51.7748L242.862 51.7799Z" fill="#6D6E71"/>
<path d="M271.21 49.8926H266.707L270.56 57.7927L272.417 62.0498L272.683 62.2442L277.017 62.0498L277.176 61.7786L274.894 57.2145L271.21 49.8926Z" fill="#6D6E71"/>
<path d="M276.091 35.3554C274.428 34.7773 272.417 34.7363 269.475 34.7363L263.171 34.8131L262.9 35.0433C262.01 39.9963 261.662 41.7769 260.193 48.1215L258.996 53.3815L256.949 61.9723L257.144 62.2026L261.206 62.1668L261.477 61.8956C262.45 56.7789 262.736 55.2951 263.765 50.9152L264.542 47.3898L266.016 41.0861L266.789 37.8728L268.144 37.8319C271.214 37.7961 272.325 37.7961 273.445 38.2208C274.837 38.7324 275.727 39.6125 275.727 41.5466C275.753 42.9192 275.293 44.2568 274.428 45.3227C273.092 46.781 271.133 47.3182 269.076 47.5229L271.926 49.897C273.972 49.4416 275.625 48.9504 277.042 47.7992C277.961 46.9937 278.699 46.0037 279.21 44.8938C279.72 43.7839 279.991 42.5789 280.005 41.3573C280.005 39.0343 279.038 36.4044 276.096 35.3606" fill="#6D6E71"/>
<path d="M226.304 47.2666L225.398 50.3264H291.373L294.192 49.1547L294.243 48.7914L291.531 47.2666H226.304Z" fill="#E11B22"/>
<path d="M33.1976 47.2514H40.6679L40.9186 47.0928L41.942 43.6748L41.7834 43.419L37.5416 43.5162H33.9958L35.1675 38.4507H43.1444L43.3644 38.2614L44.3877 34.6542L44.1984 34.4648L38.8515 34.5621H30.5727L30.3527 34.7514C29.4676 39.1824 29.2782 40.1648 28.1065 45.3531L27.6562 47.2667L33.1976 47.2514Z" fill="#E11B22"/>
<path d="M35.6975 52.778H31.9009L32.474 50.3271H26.9275L26.9019 50.4346L25.3516 56.7946L25.5102 56.9839L31.4557 56.8918H39.6219L39.8471 56.7025L41.0137 52.8394L40.8551 52.6501L35.6975 52.778Z" fill="#E11B22"/>
<path d="M58.3652 50.3271H52.875L53.9956 53.6018L55.0394 56.7946L55.2594 56.9839L60.7649 56.7639L60.9235 56.5081L59.3118 52.6501L58.3652 50.3271Z" fill="#E11B22"/>
<path d="M57.1118 47.2519V47.2059C58.6929 46.73 60.2739 46.2235 61.5428 44.6731C62.5772 43.362 63.1347 41.7381 63.1239 40.0681C63.1239 38.6764 62.776 36.7781 61.0772 35.6371C59.5422 34.5626 57.7565 34.4961 54.2721 34.4961L48.1321 34.5575L47.9427 34.7468C47.1497 39.3518 46.8682 40.7282 45.5993 46.1058L45.3281 47.2571L57.1118 47.2519ZM52.3482 40.2421L52.8599 38.2824L53.6529 38.2517C55.6126 38.2517 57.5774 38.2517 57.5774 40.5952C57.5774 41.0403 57.5774 42.6418 55.4182 43.5986C54.3182 44.0128 53.1424 44.1873 51.9696 44.1103L51.3965 44.0796L52.3482 40.2421Z" fill="#E11B22"/>
<path d="M44.6177 50.3271L43.0469 56.7639L43.2055 56.9532L48.5217 56.8611L48.7417 56.6718C49.3097 53.566 49.5757 52.1896 50.0004 50.3323L44.6177 50.3271Z" fill="#E11B22"/>
<path d="M70.2913 47.2511H77.1886L77.4086 47.0618C77.7872 45.6036 77.9202 45.1635 78.4831 43.4801L78.3245 43.2601L71.2021 43.4494L72.4045 38.4351H80.0795L80.3353 38.2458L81.3177 34.6385L81.1591 34.4492L75.7815 34.5464H67.8865L67.6664 34.7358C66.6431 39.9599 66.3054 41.4744 65.2002 46.2534L64.9648 47.246L70.2913 47.2511Z" fill="#E11B22"/>
<path d="M64.2337 50.3271L63.7425 52.3943L62.668 56.7946L62.8215 56.9839L68.2042 56.8918L68.3935 56.7025L69.468 51.5756L69.7085 50.3271H64.2337Z" fill="#E11B22"/>
<path d="M85.7298 47.2518C86.1341 44.0283 87.7049 37.9651 92.1001 37.9651C92.6878 37.9585 93.2689 38.0898 93.7967 38.3483C94.3245 38.6069 94.7844 38.9856 95.1394 39.454C95.6713 40.3621 95.924 41.4067 95.866 42.4575C95.8491 43.3613 95.7532 44.2618 95.5794 45.1489C95.4566 45.7987 95.298 46.515 95.0678 47.2518H101.018C101.39 45.8523 101.586 44.412 101.602 42.9641C101.602 35.8417 96.6335 34.0713 92.3611 34.0713C89.1938 34.0713 84.6042 34.9258 81.9486 40.1806C80.8509 42.3936 80.1742 44.7914 79.9531 47.2518H85.7298Z" fill="#E11B22"/>
<path d="M93.8568 50.3269C92.8897 52.0358 91.4724 53.3457 89.3797 53.3457C88.8193 53.3577 88.264 53.238 87.7584 52.9963C87.2527 52.7546 86.8108 52.3976 86.4683 51.954C86.1113 51.4723 85.8681 50.916 85.7571 50.3269H80.0469C80.3795 52.8085 81.3823 54.3435 82.6717 55.4026C84.4114 56.8916 86.9134 57.3623 89.2211 57.3623C92.8027 57.3623 94.6959 56.252 95.4225 55.8273C97.0649 54.8449 98.7636 53.1462 100.027 50.3115L93.8568 50.3269Z" fill="#E11B22"/>
<path d="M115.413 47.2519V47.2059C116.994 46.73 118.58 46.2235 119.844 44.6731C120.877 43.3617 121.435 41.738 121.425 40.0681C121.425 38.6764 121.077 36.7781 119.378 35.6371C117.843 34.5626 116.057 34.4961 112.573 34.4961L106.433 34.5575L106.244 34.7468C105.45 39.3518 105.169 40.7282 103.9 46.1058L103.629 47.2571L115.413 47.2519ZM110.649 40.2421L111.161 38.2824L111.954 38.2517C113.913 38.2517 115.878 38.2517 115.878 40.5952C115.878 41.0403 115.878 42.6418 113.719 43.5986C112.619 44.0128 111.443 44.1873 110.27 44.1103L109.702 44.0796L110.649 40.2421Z" fill="#E11B22"/>
<path d="M116.665 50.3271H111.18L112.295 53.6018L113.339 56.7946L113.559 56.9839L119.064 56.7639L119.223 56.5081L117.611 52.6501L116.665 50.3271Z" fill="#E11B22"/>
<path d="M102.915 50.3271L101.344 56.7639L101.502 56.9532L106.819 56.8611L107.039 56.6718C107.607 53.566 107.873 52.1896 108.297 50.3323L102.915 50.3271Z" fill="#E11B22"/>
<path d="M122.474 50.3271L120.652 56.7639L120.811 56.9532L125.175 56.8611L125.365 56.7025L126.915 50.3271H122.474Z" fill="#E11B22"/>
<path d="M140.434 47.2519L144.825 38.6303L143.177 46.4485L143.018 47.2519H148.079L148.974 42.0175L150.304 34.6444L150.115 34.4551L142.952 34.5523L142.701 34.7109C141.529 37.0543 141.212 37.6837 140.107 39.9657L136.484 47.257L140.434 47.2519Z" fill="#E11B22"/>
<path d="M127.7 47.2519L128.59 43.7879L129.921 38.6968L130.397 47.2519H134.981L134.761 43.6293L134.541 39.8941L134.321 34.6444L134.096 34.4551L126.912 34.5472L126.692 34.7058L124.763 42.0175L123.32 47.2519H127.7Z" fill="#E11B22"/>
<path d="M130.566 50.3269L130.684 52.3735L130.935 56.7432L131.155 56.9018L135.458 56.8404L135.714 56.6818C137.044 53.929 137.453 53.1001 138.687 50.6697L138.871 50.3115L130.566 50.3269Z" fill="#E11B22"/>
<path d="M142.405 50.3271L142.262 51.0384L141.09 56.7639L141.315 56.9532L146.314 56.8611L146.565 56.6667L147.557 50.3271H142.405Z" fill="#E11B22"/>
<path d="M150.489 50.3271C148.719 53.653 148.294 54.3795 147.051 56.5746L147.179 56.9532C149.486 56.8611 150.121 56.8611 152.244 56.8611L152.464 56.6718L154.173 53.0901L154.966 51.4324L155.212 50.9207L155.488 50.3425L150.489 50.3271Z" fill="#E11B22"/>
<path d="M156.964 47.2515L157.046 47.0776L161.508 38.0569L161.636 43.3424L161.795 47.0776V47.2515H167.003C166.696 43.4652 166.461 40.165 166.067 34.5776L165.908 34.4189L159.042 34.511L158.791 34.7004C157.21 37.8011 156.386 39.3514 154.805 42.3242L152.145 47.2413L156.964 47.2515Z" fill="#E11B22"/>
<path d="M161.855 50.3271V51.4324L161.927 53.2488L161.989 56.7588L162.178 56.9481L167.591 56.856L167.781 56.6667C167.561 54.1851 167.387 52.1436 167.233 50.3271H161.855Z" fill="#E11B22"/>
<path d="M175.618 47.2519L176.769 41.5468L179.245 47.257H184.572C184.198 46.4025 183.809 45.5122 182.847 43.3171L180.801 38.4768L179.153 34.6137L178.933 34.4551L174.093 34.5523L173.873 34.7416C173.274 38.0009 173.049 39.1419 172.005 43.7316L171.207 47.257L175.618 47.2519Z" fill="#E11B22"/>
<path d="M189.941 47.2519L190.847 43.2506L192.843 34.6444L192.684 34.4551L188.412 34.5472L188.222 34.7058L187.051 40.4313L185.582 47.2519H189.941Z" fill="#E11B22"/>
<path d="M170.484 50.3271L168.949 56.7639L169.108 56.9839L173.57 56.8611L173.759 56.7025L174.741 51.6063L174.997 50.3271H170.484Z" fill="#E11B22"/>
<path d="M180.574 50.3271L181.828 53.2181L183.414 56.8253L183.603 56.9532L187.656 56.8611L187.876 56.6667L189.267 50.3271H180.574Z" fill="#E11B22"/>
<path d="M198.527 47.2511C198.588 43.6694 200.932 38.4095 206.202 38.4095C207.482 38.3918 208.742 38.7321 209.84 39.3919C210.126 39.6119 210.408 39.8677 210.694 40.1185L210.95 40.057L212.153 35.9637L212.055 35.713C210.955 35.0243 209.729 34.5616 208.448 34.352C207.489 34.1644 206.514 34.0684 205.537 34.0654C197.35 34.0654 193.011 40.6148 192.832 47.246L198.527 47.2511Z" fill="#E11B22"/>
<path d="M206.164 52.8036C205.462 53.0025 204.738 53.1092 204.009 53.1208C201.646 53.1208 199.952 52.0975 199.113 50.3271H193.055C193.31 51.8258 193.962 53.2287 194.943 54.3898C197.097 56.7946 200.131 57.3626 202.618 57.3626C204.091 57.3714 205.555 57.1363 206.952 56.6667C207.299 56.5388 207.586 56.3802 207.903 56.2574L208.093 56.0015L209.264 51.5091L209.014 51.3812C208.16 52.0286 207.194 52.511 206.164 52.8036Z" fill="#E11B22"/>
<path d="M221.14 52.778H217.344L217.917 50.3271H212.37L212.339 50.4346L210.789 56.7946L210.948 56.9839L216.898 56.8918H225.065L225.285 56.7025L226.456 52.8394L226.298 52.6501L221.14 52.778Z" fill="#E11B22"/>
<path d="M229.65 34.4551L224.303 34.5523H216.014L215.794 34.7416C214.909 39.1726 214.72 40.155 213.548 45.3433L213.098 47.257H218.634H226.104L226.36 47.0984L227.383 43.6804L227.225 43.4246L222.983 43.5218H219.442L220.614 38.4563H228.586L228.806 38.267L229.829 34.6597L229.65 34.4551Z" fill="#E11B22"/>
</g>
<defs>
<clipPath id="clip0_32_4053">
<rect width="307" height="35.745" fill="white" transform="translate(0 27)"/>
</clipPath>
</defs>
</svg>
