<?xml version="1.0" encoding="utf-8"?>
<!-- Generator: Adobe Illustrator 23.0.2, SVG Export Plug-In . SVG Version: 6.00 Build 0)  -->
<svg version="1.1" id="Слой_1" xmlns="http://www.w3.org/2000/svg" xmlns:xlink="http://www.w3.org/1999/xlink" x="0px" y="0px"
	 width="175" height="32" viewBox="0 0 175 32" style="enable-background:new 0 0 175 32;" xml:space="preserve">
<style type="text/css">
	.st0{fill:#CC0000;}
	.st1{fill-rule:evenodd;clip-rule:evenodd;fill:#00843D;}
	.st2{fill:#00843D;}
</style>
<path class="st0" d="M29.9,22.1c-1.9,2.8-5.1,4.6-8.7,4.6c-5.9,0-10.6-4.8-10.6-10.7S15.3,5.3,21.2,5.3c2.1,0,4,0.6,5.6,1.6L21.2,16
	l10.6-6.1c-1.7-2.6-4.2-4.7-7.2-5.8c-2.4-0.9-4.9-1.4-7.6-1.4s-5.2,0.5-7.6,1.4C7,5,4.8,6.5,3.2,8.5c-1.7,2-2.7,4.7-2.7,7.5
	s1,5.5,2.7,7.5c1.6,2,3.7,3.5,6.2,4.4c2.4,0.9,4.9,1.4,7.6,1.4c1.7,0,3.3-0.2,4.9-0.5c3.3-0.8,6.2-2.5,8.4-4.9L29.9,22.1z"/>
<path class="st0" d="M74.6,7.3c-0.6,0-1.1,0.1-1.6,0.4l-6.2,2.9c-0.3-1.8-1.9-3.3-3.8-3.3c-0.6,0-1.1,0.1-1.6,0.4l-7.5,3.5h5.3v17.5
	h7.7V13.1c0-1.1,0.9-1.9,1.9-1.9c1.1,0,1.9,0.9,1.9,1.9v15.5h7.7V11.2C78.5,9,76.7,7.3,74.6,7.3z"/>
<path class="st0" d="M123.1,7.3c-0.6,0-1.1,0.1-1.6,0.4l-6.2,2.9c-0.3-1.8-1.9-3.3-3.8-3.3c-0.6,0-1.1,0.1-1.6,0.4l-7.5,3.5h5.3
	v17.5h7.7V13.1c0-1.1,0.9-1.9,1.9-1.9c1.1,0,1.9,0.9,1.9,1.9v15.5h7.7V11.2C127,9,125.3,7.3,123.1,7.3z"/>
<path class="st0" d="M95.1,27.7c-1.3,0.3-2.6-0.4-3-1.7l-3.8-14.1c-0.3-1.3,0.4-2.6,1.7-3c1.3-0.3,2.6,0.4,3,1.7l3.8,14.1
	C97.2,26,96.4,27.3,95.1,27.7z M92.6,7.3c-6.1,0-11,4.9-11,11c0,6.1,4.9,11,11,11c6.1,0,11-4.9,11-11C103.6,12.2,98.7,7.3,92.6,7.3z
	"/>
<path class="st0" d="M48.7,28.6h7.7l-4.5-16.7c-0.7-2.7-3.2-4.7-6.1-4.7c-0.8,0-1.5,0.1-2.1,0.4l-9.6,3.5H44l1.7,6.3
	c-1.6-1.4-3.8-2.3-6.1-2.3c-1.7,0-3.4,0.4-4.8,1.2c-1.1,0.6-2,1.5-2.7,2.6c-0.6,0.9-0.9,2-0.9,3.1c0,1.2,0.3,2.2,0.9,3.1
	c0.7,1.1,1.6,2,2.7,2.6c1.4,0.8,3.1,1.2,4.8,1.2c3.3,0,6.3-1.6,8.1-4.2L48.7,28.6z M46.7,22.1c0,2.2-1.7,3.9-3.9,3.9
	c-2.1,0-3.9-1.7-3.9-3.9s1.7-3.9,3.9-3.9C44.9,18.3,46.7,20,46.7,22.1z"/>
<path class="st1" d="M143.5,1h29.9v30h-29.9V1z M142.7,0.2h31.4v31.6h-31.4V0.2z"/>
<path class="st2" d="M172.5,2.1h-28.1h0v28h8l6.1-6l6.1,6h8v-8l-6-6l6-6V2.1L172.5,2.1z M150.1,7.7h9.7l-9.7,9.7V7.7z M150.2,25.1
	c-0.1,0.3-0.2,0.5-0.4,0.8c-0.2,0.3-0.4,0.6-0.7,0.9c-0.1,0.1-0.1,0.1-0.2,0.2c-0.1,0.1-0.1,0.1-0.2,0.2l1.4,1.4l-0.8,0.8l-3.6-3.6
	l1.2-1.2c0.2-0.2,0.4-0.4,0.6-0.5c0.2-0.1,0.3-0.3,0.5-0.3c0.4-0.2,0.7-0.3,1-0.3c0.3,0,0.6,0.1,0.9,0.4c0.2,0.2,0.3,0.4,0.3,0.6
	C150.2,24.6,150.2,24.8,150.2,25.1z M156.2,22.5l-1.6-1.6l-2,1.9l1.6,1.6l-0.8,0.8l-3.6-3.6l0.8-0.8l1.5,1.5l2-1.9l-1.5-1.5l0.8-0.8
	l3.6,3.6L156.2,22.5z M161.1,17.6l-1.3-0.5l-1.6,1.6l0.5,1.3l-0.8,0.8l-1.9-5.2l0.7-0.7l5.2,1.9L161.1,17.6z M165.3,13.5l-2.5-0.3
	l-0.5,0.5l1.4,1.4l-0.8,0.8l-3.6-3.6l1.3-1.3c0.2-0.2,0.4-0.4,0.6-0.6c0.2-0.2,0.4-0.3,0.6-0.4c0.3-0.2,0.6-0.2,0.9-0.2
	c0.3,0,0.6,0.2,0.8,0.4c0.3,0.3,0.4,0.5,0.4,0.9c0,0.3-0.1,0.7-0.4,1.1l0,0l2.7,0.2L165.3,13.5z M170.7,8.1l-1.8-1.8
	c-0.3-0.3-0.6-0.6-0.9-1l0,0c0.1,0.1,0.1,0.3,0.2,0.5c0.1,0.2,0.2,0.4,0.2,0.5l1.1,2.9l-0.5,0.5l-2.9-1.2c-0.2-0.1-0.4-0.1-0.5-0.2
	c-0.2-0.1-0.3-0.2-0.5-0.2l0,0c0.4,0.3,0.7,0.6,1,0.9l1.8,1.8l-0.8,0.8L163.6,8l1.1-1.1l2.4,1c0.4,0.2,0.8,0.4,1.3,0.6l0,0
	c-0.2-0.4-0.4-0.8-0.6-1.3l-1-2.4l1.1-1.1l3.6,3.6L170.7,8.1z"/>
</svg>
