<svg width="436" height="29" viewBox="0 0 436 29" fill="none"
     xmlns="http://www.w3.org/2000/svg">
    <path
            d="M9.87181 3.73777L8.95418 6.20189L8.03658 8.66602L7.11897 11.1301L6.20135 13.5943H8.02179H9.84221H11.6626H13.483L12.5802 11.1301L11.6774 8.66602L10.7746 6.20189L9.87181 3.73777ZM19.8323 22.4117H19.0479H18.2635H17.4791H16.6947L16.1027 20.7788L15.5107 19.146L14.9187 17.5131L14.3267 15.8803H12.0918H9.857H7.62218H5.38735L4.78054 17.5131L4.17373 19.146L3.56691 20.7788L2.9601 22.4117H2.22009H1.48008H0.740071H6.10352e-05L2.10171 17.0678L4.20333 11.7239L6.30496 6.38002L8.40658 1.03613H9.19099H9.9754H10.7598H11.5442L13.6163 6.38002L15.6883 11.7239L17.7603 17.0678L19.8323 22.4117Z"
            fill="black"/>
    <path
            d="M24.2576 14.6036C24.2576 15.5388 24.3612 16.3849 24.5832 17.1271C24.8052 17.8693 25.1308 18.5076 25.5452 19.0123C25.9596 19.5319 26.4776 19.9327 27.0697 20.1999C27.6617 20.4671 28.3425 20.6155 29.0825 20.6155C29.8077 20.6155 30.4589 20.4671 31.0361 20.1999C31.6133 19.9178 32.1165 19.517 32.5161 18.9975C32.9305 18.478 33.2413 17.8397 33.4485 17.0974C33.6557 16.3701 33.7741 15.524 33.7741 14.5888C33.7741 13.6536 33.6705 12.8075 33.4485 12.0653C33.2413 11.3231 32.9157 10.6848 32.5013 10.1801C32.0869 9.66053 31.5837 9.25974 30.9917 8.99255C30.3997 8.72535 29.7337 8.57691 28.9789 8.57691C28.2389 8.57691 27.5729 8.72535 26.9956 8.99255C26.4036 9.25974 25.9152 9.67538 25.5008 10.1801C25.0864 10.6996 24.7756 11.3379 24.5536 12.0653C24.3612 12.8223 24.2576 13.6684 24.2576 14.6036ZM24.1984 9.12614C24.4944 8.65113 24.8348 8.2355 25.19 7.90893C25.56 7.56751 25.9596 7.30031 26.3888 7.0925C26.818 6.88468 27.2916 6.72139 27.7801 6.63233C28.2833 6.52842 28.8161 6.48389 29.3933 6.48389C30.4737 6.48389 31.4505 6.67686 32.3089 7.04797C33.1673 7.41907 33.9221 7.95346 34.5289 8.66597C35.1358 9.36365 35.6094 10.2246 35.935 11.2192C36.2606 12.2137 36.4234 13.3419 36.4234 14.6036C36.4234 15.8505 36.2606 16.9935 35.935 18.0029C35.6094 18.9975 35.1506 19.8881 34.5438 20.6007C33.9518 21.3132 33.2117 21.8624 32.3681 22.2484C31.5245 22.6195 30.5625 22.8273 29.5117 22.8273C28.9493 22.8273 28.4165 22.7827 27.9281 22.6788C27.4397 22.5749 26.9809 22.4413 26.5664 22.2187C26.152 21.996 25.7524 21.7585 25.3824 21.4319C25.0124 21.1054 24.672 20.7194 24.3464 20.2741V22.3077V24.3414V26.375V28.4087H23.71H23.0736H22.4372H21.8008V23.0499V17.6912V12.3325V6.94405H22.3928H22.9848H23.5768H24.1688V7.49329V8.04252V8.59175L24.1984 9.12614Z"
            fill="black"/>
    <path
            d="M57.1437 22.4117H56.4333H55.7376H55.042H54.3464V17.6913V12.9708V8.25038V3.52995H51.5344H48.7224H45.9251H43.1131V8.25038V12.9708V17.6913V22.4117H42.4175H41.7219H41.0115H40.3159V17.0678V11.7239V6.38002V1.03613H44.5339H48.752H52.97H57.1881V6.38002V11.7239V17.0678V22.4117H57.1437Z"
            fill="black"/>
    <path
            d="M61.7021 22.4116V18.5373V14.663V10.8035V6.9292H62.3385H62.9749H63.6113H64.2329V10.091V13.2528V16.4146V19.5764H64.2477H64.2625H64.2773L66.0089 16.4146L67.7406 13.2528L69.4722 10.091L71.2038 6.9292H72.0178H72.8318H73.631H74.445V10.8035V14.6778V18.5522V22.4265H73.8086H73.187H72.5506H71.9142V19.2647V16.1029V12.9411V9.77927H71.8994H71.8846H71.8698L70.1382 12.9411L68.4066 16.1029L66.7046 19.2498L64.9729 22.4116H64.1589H63.3449H62.5457H61.7021Z"
            fill="black"/>
    <path
            d="M95.9941 9.63074L98.3177 12.8222L100.656 16.0137L102.98 19.2201L105.318 22.4115H104.43H103.527H102.625H101.737L99.7977 19.6951L97.8737 16.9786L95.9349 14.2621L94.0109 11.5456L93.1229 12.3769L92.2349 13.2082L91.3469 14.0543L90.4588 14.8856V16.7559V18.6263V20.4967V22.367H89.7632H89.0528H88.3572H87.6616V17.0231V11.6792V6.33534V0.991455H88.3572H89.0528H89.7632H90.4588V3.64856V6.29081V8.94791V11.5902L93.1525 8.94791L95.8461 6.29081L98.5398 3.64856L101.248 0.991455H102.21H103.128H104.045H104.963L102.728 3.14385L100.493 5.29626L98.2437 7.43381L95.9941 9.63074Z"
            fill="black"/>
    <path
            d="M113.636 15.3013C113.177 15.3606 112.674 15.42 112.171 15.5091C111.668 15.5981 111.179 15.7317 110.765 15.9247C110.335 16.1177 109.965 16.3849 109.699 16.756C109.433 17.1271 109.285 17.6169 109.285 18.2404C109.285 18.6412 109.359 18.9974 109.492 19.3092C109.64 19.6209 109.832 19.9029 110.099 20.1256C110.365 20.3483 110.691 20.5264 111.061 20.6303C111.431 20.7491 111.875 20.8084 112.348 20.8084C112.94 20.8084 113.532 20.7045 114.095 20.5264C114.642 20.3334 115.16 20.0662 115.59 19.7545C116.019 19.4279 116.389 19.0271 116.64 18.5966C116.892 18.1662 117.04 17.6912 117.04 17.2013V16.5036V15.806V15.1083V14.3661C116.803 14.5442 116.537 14.6926 116.27 14.7817C115.989 14.8856 115.708 14.9747 115.412 15.0341C115.116 15.0934 114.82 15.138 114.509 15.1825C114.213 15.227 113.917 15.2567 113.636 15.3013ZM121.14 22.3374C121.006 22.3967 120.858 22.4413 120.725 22.471C120.577 22.5007 120.444 22.5452 120.296 22.56C120.148 22.5897 120 22.6046 119.852 22.6194C119.704 22.6343 119.571 22.6343 119.423 22.6343C119.068 22.6343 118.742 22.5749 118.476 22.4858C118.194 22.3819 117.972 22.2483 117.78 22.0553C117.588 21.8624 117.454 21.6249 117.351 21.3428C117.247 21.0608 117.203 20.7342 117.188 20.3631C116.818 20.7787 116.418 21.1498 116.019 21.4616C115.604 21.7733 115.19 22.0256 114.731 22.2335C114.272 22.4413 113.799 22.5749 113.281 22.6788C112.763 22.7827 112.215 22.8272 111.623 22.8272C110.854 22.8272 110.173 22.7233 109.566 22.5303C108.974 22.3374 108.441 22.0405 108.012 21.6694C107.583 21.2983 107.257 20.8233 107.035 20.2889C106.813 19.7545 106.695 19.1459 106.695 18.4631C106.695 17.7802 106.798 17.1568 107.035 16.6075C107.272 16.0583 107.597 15.5833 108.056 15.1825C108.515 14.7817 109.077 14.4551 109.758 14.1879C110.439 13.9356 111.238 13.7426 112.156 13.6387C113.074 13.52 113.843 13.4457 114.48 13.3567C115.116 13.2676 115.604 13.1637 116.004 13.0301C116.389 12.8817 116.655 12.6887 116.833 12.3918C117.01 12.1098 117.084 11.709 117.084 11.1894C117.084 10.7738 117.01 10.4175 116.862 10.1058C116.714 9.79408 116.492 9.52688 116.196 9.30422C115.9 9.0964 115.53 8.93312 115.101 8.81436C114.672 8.71045 114.169 8.65108 113.592 8.65108C113 8.65108 112.482 8.71045 112.023 8.81436C111.564 8.93312 111.194 9.11125 110.868 9.3636C110.557 9.61595 110.306 9.94252 110.113 10.3433C109.921 10.7441 109.803 11.2191 109.743 11.798H109.122H108.5H107.879H107.257C107.287 10.9816 107.449 10.2246 107.745 9.58626C108.041 8.94796 108.471 8.38388 109.033 7.93856C109.581 7.49324 110.261 7.13698 111.046 6.89947C111.83 6.66197 112.718 6.54321 113.725 6.54321C114.228 6.54321 114.731 6.5729 115.205 6.64712C115.664 6.72134 116.122 6.81041 116.537 6.92916C116.951 7.04791 117.336 7.22604 117.662 7.38933C118.002 7.5823 118.298 7.79012 118.564 8.02763C118.831 8.29482 119.023 8.57686 119.186 8.90343C119.334 9.23 119.423 9.55657 119.497 9.91283C119.556 10.2691 119.586 10.6253 119.6 10.9816C119.615 11.3379 119.615 11.6941 119.615 12.0504C119.615 12.6293 119.6 13.2082 119.6 13.7723C119.586 14.3512 119.571 14.9153 119.556 15.4942C119.541 16.0731 119.526 16.6372 119.512 17.2161C119.497 17.7951 119.482 18.3591 119.482 18.9381C119.482 19.2201 119.512 19.4576 119.541 19.6654C119.571 19.8584 119.645 20.0217 119.719 20.1256C119.793 20.2443 119.911 20.3334 120.044 20.3779C120.178 20.4373 120.34 20.4522 120.533 20.4522H120.696C120.74 20.4522 120.799 20.4373 120.844 20.4373C120.888 20.4225 120.947 20.4076 120.992 20.4076C121.051 20.3928 121.095 20.3779 121.169 20.3631V20.853V21.3428V21.8327L121.14 22.3374Z"
            fill="black"/>
    <path
            d="M123.818 22.4116V18.5373V14.663V10.8035V6.9292H124.455H125.091H125.713H126.349V8.45814V10.0019V11.5309V13.0747H128.273H130.212H132.136H134.075V11.5309V10.0019V8.45814V6.9292H134.711H135.333H135.969H136.606V10.8035V14.6778V18.5522V22.4265H135.969H135.333H134.711H134.075V20.6452V18.8787V17.1123V15.3458H132.136H130.212H128.273H126.349V17.1123V18.8787V20.6452V22.4265H125.713H125.091H124.455H123.818V22.4116Z"
            fill="black"/>
    <path
            d="M142.57 14.663C142.57 15.613 142.674 16.4591 142.896 17.2161C143.118 17.9584 143.443 18.5967 143.858 19.1162C144.272 19.6357 144.805 20.0365 145.412 20.3037C146.019 20.5709 146.714 20.7194 147.499 20.7194C148.239 20.7194 148.92 20.5709 149.512 20.3037C150.104 20.0217 150.607 19.6209 151.021 19.1014C151.436 18.5818 151.746 17.9287 151.968 17.1865C152.176 16.4443 152.294 15.5833 152.294 14.6333C152.294 13.7129 152.19 12.8817 151.968 12.1246C151.746 11.3972 151.421 10.7441 151.006 10.2246C150.592 9.70502 150.074 9.28938 149.482 9.02219C148.89 8.74015 148.209 8.60655 147.469 8.60655C146.729 8.60655 146.033 8.75499 145.456 9.02219C144.864 9.30423 144.346 9.70502 143.932 10.2394C143.517 10.759 143.177 11.4121 142.955 12.1543C142.689 12.8965 142.57 13.7426 142.57 14.663ZM154.884 14.5739C154.884 15.8802 154.721 17.0529 154.381 18.092C154.055 19.1162 153.567 19.992 152.93 20.7045C152.294 21.417 151.524 21.9663 150.607 22.3225C149.704 22.6936 148.638 22.8718 147.469 22.8718C146.3 22.8718 145.234 22.6788 144.302 22.3225C143.369 21.9663 142.585 21.417 141.934 20.7045C141.297 20.0068 140.794 19.1459 140.454 18.1365C140.128 17.1419 139.951 15.9841 139.951 14.7075C139.951 13.4309 140.128 12.2879 140.469 11.2636C140.809 10.2394 141.327 9.37844 141.978 8.66593C142.629 7.95341 143.429 7.40418 144.361 7.03307C145.293 6.66197 146.344 6.46899 147.514 6.46899C148.683 6.46899 149.719 6.66197 150.636 7.01823C151.539 7.37449 152.324 7.90888 152.96 8.59171C153.596 9.27454 154.085 10.1355 154.396 11.1449C154.721 12.1395 154.884 13.2973 154.884 14.5739Z"
            fill="black"/>
    <path
            d="M158.199 22.4116V18.5373V14.663V10.8035V6.9292H158.836H159.472H160.108H160.73V8.45814V10.0019V11.5309V13.0747H162.669H164.593H166.532H168.456V11.5309V10.0019V8.45814V6.9292H169.092H169.729H170.35H171.001V10.8035V14.6778V18.5522V22.4265H170.365H169.729H169.107H168.471V20.6452V18.8787V17.1123V15.3458H166.532H164.608H162.669H160.745V17.1123V18.8787V20.6452V22.4265H160.108H159.487H158.85H158.199V22.4116Z"
            fill="black"/>
    <path
            d="M188.096 1.05103L189.798 5.56364L191.514 10.0911L193.217 14.6037L194.933 19.1312L196.576 14.6037L198.234 10.0911L199.891 5.56364L201.549 1.05103H202.526H203.503H204.479H205.441V6.39492V11.7388V17.0827V22.4266H204.79H204.124H203.458H202.792V17.9733V13.5201V9.06686V4.61362L201.12 9.06686L199.462 13.5201L197.79 17.9733L196.132 22.4266H195.525H194.904H194.297H193.69L191.988 17.9733L190.286 13.5201L188.599 9.06686L186.897 4.61362V9.06686V13.5201V17.9733V22.4266H186.216H185.55H184.869H184.188V17.0827V11.7388V6.39492V1.05103H185.165H186.142H187.119H188.096Z"
            fill="black"/>
    <path
            d="M216.379 8.57696C215.757 8.57696 215.18 8.68087 214.677 8.90353C214.159 9.11135 213.7 9.43792 213.315 9.83871C212.93 10.2543 212.59 10.7442 212.353 11.3231C212.116 11.902 211.939 12.5552 211.85 13.2825H214.085H216.32H218.554H220.789C220.73 12.5552 220.582 11.8872 220.36 11.3083C220.123 10.7294 219.827 10.2247 219.457 9.82387C219.087 9.42307 218.628 9.0965 218.11 8.88869C217.592 8.68087 217.015 8.57696 216.379 8.57696ZM216.527 22.9164C215.402 22.9164 214.366 22.7234 213.478 22.3672C212.575 22.0109 211.82 21.4765 211.199 20.7937C210.577 20.1109 210.089 19.2647 209.763 18.2702C209.438 17.2756 209.26 16.1475 209.26 14.8857C209.26 13.6388 209.438 12.481 209.778 11.4567C210.118 10.4325 210.607 9.54183 211.243 8.81446C211.88 8.0871 212.634 7.50818 213.508 7.10739C214.381 6.7066 215.358 6.49878 216.438 6.49878C217.711 6.49878 218.776 6.75113 219.679 7.19645C220.582 7.64178 221.292 8.28008 221.84 9.08166C222.388 9.8684 222.787 10.7887 223.054 11.7981C223.32 12.8075 223.424 13.906 223.424 15.0193V15.1084V15.1974V15.2865V15.3756H220.523H217.622H214.721H211.82L211.806 15.4201L211.791 15.4646L211.776 15.5092L211.761 15.5537C211.761 16.3701 211.865 17.1272 212.087 17.7655C212.309 18.4038 212.634 18.9679 213.034 19.428C213.448 19.8882 213.952 20.2296 214.544 20.4671C215.136 20.7046 215.802 20.8234 216.556 20.8234C217.104 20.8234 217.592 20.764 218.036 20.6304C218.466 20.5116 218.85 20.3038 219.191 20.0366C219.516 19.7694 219.812 19.4429 220.064 19.0124C220.316 18.5819 220.523 18.1069 220.7 17.5131H221.322H221.944H222.565H223.187C222.995 18.4038 222.698 19.1905 222.328 19.8585C221.958 20.5413 221.47 21.0906 220.908 21.5507C220.345 22.0109 219.694 22.3375 218.939 22.575C218.258 22.7976 217.43 22.9164 216.527 22.9164Z"
            fill="black"/>
    <path
            d="M236.285 9.17071H234.79H233.295H231.801H230.306V9.49729V9.82386V10.1504V10.477C230.306 11.4419 230.247 12.4364 230.143 13.3864C230.039 14.3365 229.906 15.2717 229.729 16.1475C229.551 17.0084 229.359 17.81 229.151 18.4928C228.944 19.1757 228.737 19.7546 228.515 20.1554H230.454H232.393H234.331H236.27V17.4092V14.663V11.9169V9.17071H236.285ZM238.401 27.3251V26.1079V24.8907V23.6734V22.4414H235.456H232.511H229.566H226.621V23.6734V24.8907V26.1079V27.3251H226.014H225.407H224.8H224.193V25.529V23.7328V21.9367V20.1554H224.608H225.022H225.437H225.851C226.073 19.7397 226.31 19.146 226.532 18.4335C226.754 17.7358 226.976 16.9045 227.153 16.0139C227.346 15.1232 227.494 14.1732 227.612 13.1935C227.716 12.2138 227.79 11.2192 227.79 10.2395V9.42306V8.57695V7.76052V6.94409H230.543H233.295H236.048H238.801V10.2543V13.5646V16.8748V20.1851H239.304H239.807H240.311H240.814V21.9812V23.7773V25.5735V27.3696H240.207H239.6H238.993L238.401 27.3251Z"
            fill="black"/>
    <path
            d="M243.345 22.4116V18.5373V14.663V10.8035V6.9292H243.966H244.603H245.239H245.875V10.091V13.2528V16.4146V19.5764H245.89H245.905H245.92L247.637 16.4146L249.368 13.2528L251.1 10.091L252.832 6.9292H253.646H254.46H255.318H256.132V10.8035V14.6778V18.5522V22.4265H255.496H254.874H254.238H253.601V19.2647V16.1029V12.9411V9.77927H253.586H253.572H253.557L251.825 12.9411L250.094 16.1029L248.362 19.2647L246.63 22.4265H245.831H245.017H244.203H243.345V22.4116Z"
            fill="black"/>
    <path
            d="M270.843 22.4116L269.437 20.5116L268.031 18.5967L266.611 16.6966L265.205 14.7966L264.598 15.3904L263.991 15.9693L263.384 16.563L262.763 17.1568V18.4631V19.7842V21.0905V22.4116H262.141H261.505H260.868H260.232V18.5373V14.663V10.8035V6.9292H260.868H261.505H262.141H262.763V8.76987V10.6254V12.4661V14.3216L264.524 12.4661L266.3 10.6254L268.061 8.76987L269.822 6.9292H270.681H271.539H272.383H273.241L271.687 8.45814L270.133 9.97225L268.579 11.5012L267.025 13.0301L268.786 15.3755L270.533 17.7209L272.294 20.0663L274.04 22.4265H273.226H272.427H271.613H270.843V22.4116Z"
            fill="black"/>
    <path
            d="M282.225 15.3013C281.766 15.3606 281.263 15.42 280.76 15.5091C280.256 15.5981 279.768 15.7317 279.354 15.9247C278.939 16.1177 278.554 16.3849 278.288 16.756C278.022 17.1271 277.874 17.6169 277.874 18.2404C277.874 18.6412 277.948 18.9974 278.081 19.3092C278.229 19.6209 278.421 19.9029 278.688 20.1256C278.954 20.3483 279.28 20.5264 279.65 20.6303C280.02 20.7491 280.464 20.8084 280.937 20.8084C281.529 20.8084 282.121 20.7045 282.684 20.5264C283.231 20.3334 283.749 20.0662 284.178 19.7545C284.608 19.4279 284.978 19.0271 285.229 18.5966C285.481 18.1662 285.629 17.6912 285.629 17.2013V16.5036V15.806V15.1083V14.3661C285.392 14.5442 285.126 14.6926 284.859 14.7817C284.578 14.8856 284.297 14.9747 284.001 15.0341C283.705 15.0934 283.409 15.138 283.098 15.1825C282.802 15.227 282.521 15.2567 282.225 15.3013ZM289.729 22.3374C289.595 22.3967 289.447 22.4413 289.314 22.471C289.166 22.5007 289.033 22.5452 288.885 22.56C288.737 22.5897 288.589 22.6046 288.441 22.6194C288.293 22.6343 288.16 22.6343 288.012 22.6343C287.656 22.6343 287.331 22.5749 287.065 22.4858C286.783 22.3819 286.561 22.2483 286.369 22.0553C286.176 21.8624 286.043 21.6249 285.94 21.3428C285.836 21.0608 285.792 20.7342 285.777 20.3631C285.407 20.7787 285.007 21.1498 284.608 21.4616C284.193 21.7733 283.779 22.0256 283.32 22.2335C282.861 22.4413 282.388 22.5749 281.87 22.6788C281.352 22.7827 280.804 22.8272 280.212 22.8272C279.442 22.8272 278.762 22.7233 278.155 22.5303C277.548 22.3374 277.03 22.0405 276.601 21.6694C276.186 21.2983 275.846 20.8233 275.624 20.2889C275.402 19.7545 275.284 19.1459 275.284 18.4631C275.284 17.7802 275.387 17.1568 275.624 16.6075C275.861 16.0583 276.186 15.5833 276.645 15.1825C277.104 14.7817 277.666 14.4551 278.347 14.1879C279.028 13.9356 279.827 13.7426 280.745 13.6387C281.662 13.52 282.432 13.4457 283.068 13.3567C283.705 13.2676 284.193 13.1637 284.593 13.0301C284.978 12.8817 285.244 12.6887 285.422 12.3918C285.599 12.1098 285.673 11.709 285.673 11.1894C285.673 10.7738 285.599 10.4175 285.451 10.1058C285.303 9.79408 285.081 9.52688 284.785 9.30422C284.489 9.0964 284.119 8.93312 283.69 8.81436C283.261 8.71045 282.758 8.65108 282.18 8.65108C281.588 8.65108 281.07 8.71045 280.612 8.81436C280.153 8.93312 279.783 9.11125 279.457 9.3636C279.146 9.61595 278.895 9.94252 278.702 10.3433C278.51 10.7441 278.392 11.2191 278.332 11.798H277.711H277.089H276.468H275.846C275.876 10.9816 276.038 10.2246 276.334 9.58626C276.63 8.94796 277.06 8.38388 277.622 7.93856C278.17 7.49324 278.85 7.13698 279.635 6.89947C280.419 6.66197 281.307 6.54321 282.314 6.54321C282.817 6.54321 283.32 6.5729 283.794 6.64712C284.252 6.72134 284.711 6.81041 285.126 6.92916C285.54 7.04791 285.925 7.22604 286.25 7.38933C286.591 7.5823 286.887 7.79012 287.153 8.02763C287.42 8.29482 287.612 8.57686 287.775 8.90343C287.923 9.23 288.012 9.55657 288.086 9.91283C288.145 10.2691 288.174 10.6253 288.189 10.9816C288.204 11.3379 288.204 11.6941 288.204 12.0504C288.204 12.6293 288.189 13.2082 288.175 13.7723C288.16 14.3512 288.145 14.9153 288.13 15.4942C288.115 16.0731 288.1 16.6372 288.086 17.2161C288.071 17.7951 288.056 18.3591 288.056 18.9381C288.056 19.2201 288.086 19.4576 288.115 19.6654C288.145 19.8584 288.219 20.0217 288.293 20.1256C288.367 20.2443 288.485 20.3334 288.619 20.3779C288.752 20.4373 288.915 20.4522 289.107 20.4522H289.27C289.314 20.4522 289.373 20.4373 289.418 20.4373C289.462 20.4225 289.521 20.4076 289.566 20.4076C289.625 20.3928 289.684 20.3779 289.743 20.3631V20.853V21.3428V21.8327L289.729 22.3374Z"
            fill="black"/>
    <path
            d="M305.269 22.4117H304.632H303.996H303.36H302.723V19.1014V15.7912V12.481V9.17071H301.347H299.97H298.594H297.217L297.158 10.8778L297.099 12.5849L297.04 14.2919L296.981 15.999C296.951 17.2608 296.788 18.3295 296.551 19.1757C296.315 20.0366 295.989 20.7195 295.604 21.239C295.219 21.7585 294.761 22.1296 294.272 22.3672C293.784 22.6047 293.251 22.6937 292.718 22.6937C292.526 22.6937 292.348 22.6789 292.171 22.664C291.993 22.6492 291.815 22.6195 291.667 22.5898C291.519 22.5601 291.357 22.5304 291.238 22.4859C291.105 22.4562 291.001 22.4117 290.913 22.3672V21.8625V21.3281V20.8234V20.3187C290.987 20.3632 291.105 20.3929 291.209 20.4226C291.312 20.4523 291.445 20.4671 291.579 20.4819C291.697 20.4968 291.83 20.5116 291.949 20.5116C292.052 20.5265 292.171 20.5265 292.245 20.5265C292.496 20.5265 292.763 20.4671 293.014 20.3335C293.266 20.1999 293.503 19.9772 293.71 19.6507C293.917 19.3241 294.095 18.9085 294.243 18.3444C294.391 17.7952 294.465 17.0975 294.479 16.2662L294.539 13.9357L294.598 11.6052L294.657 9.27462L294.716 6.94409H297.351H299.985H302.619H305.239V10.8184V14.6927V18.567V22.4117H305.269Z"
            fill="black"/>
    <path
            d="M327.217 22.9165C325.693 22.9165 324.317 22.6493 323.118 22.1446C321.919 21.6399 320.868 20.8829 320.01 19.9031C319.151 18.9383 318.485 17.7507 318.041 16.3851C317.582 15.0194 317.36 13.4756 317.36 11.7537C317.36 10.2248 317.582 8.75519 318.012 7.41922C318.441 6.08325 319.092 4.88087 319.936 3.85663C320.794 2.84723 321.845 2.01596 323.088 1.43704C324.346 0.872958 325.782 0.546387 327.425 0.546387C328.461 0.546387 329.526 0.694828 330.503 0.976867C331.495 1.25891 332.427 1.70423 333.241 2.28315C334.055 2.86207 334.751 3.58944 335.269 4.43555C335.787 5.29651 336.127 6.29107 336.231 7.43406H335.535H334.84H334.144H333.448C333.3 6.73639 333.034 6.11294 332.679 5.56371C332.323 5.01447 331.894 4.53946 331.376 4.16836C330.858 3.78241 330.251 3.48553 329.585 3.29255C328.919 3.09958 328.179 2.99567 327.395 2.99567C326.137 2.99567 325.057 3.26286 324.139 3.72303C323.236 4.1832 322.481 4.85119 321.904 5.66761C321.327 6.48404 320.898 7.41922 320.616 8.45831C320.335 9.48256 320.202 10.5959 320.202 11.724C320.202 13.0748 320.365 14.3069 320.705 15.3905C321.031 16.4741 321.504 17.3945 322.126 18.1515C322.748 18.9086 323.503 19.5023 324.376 19.8883C325.249 20.2891 326.255 20.4821 327.365 20.4821C328.268 20.4821 329.082 20.3485 329.807 20.0813C330.533 19.8141 331.154 19.4281 331.687 18.9086C332.22 18.389 332.649 17.7359 332.975 16.9788C333.3 16.2069 333.522 15.3311 333.641 14.3366H334.336H335.032H335.727H336.423C336.305 15.6874 336.009 16.9046 335.52 17.9586C335.047 19.0125 334.395 19.918 333.611 20.6453C332.827 21.3727 331.879 21.9368 330.799 22.3227C329.733 22.7235 328.535 22.9165 327.217 22.9165Z"
            fill="black"/>
    <path
            d="M339.827 22.4116V18.5373V14.663V10.8035V6.9292H340.464H341.085H341.722H342.358V10.091V13.2528V16.4146V19.5764H342.373H342.388H342.402L344.134 16.4146L345.866 13.2528L347.597 10.091L349.329 6.9292H350.128H350.942H351.756H352.555V10.8035V14.6778V18.5522V22.4265H351.934H351.297H350.661H350.024V19.2647V16.1029V12.9411V9.77927H350.01H349.995H349.98L348.263 12.9411L346.532 16.1029L344.8 19.2647L343.068 22.4265H342.254H341.44H340.641H339.827V22.4116Z"
            fill="black"/>
    <path
            d="M363.3 22.857C362.101 22.857 361.051 22.664 360.133 22.2632C359.23 21.8921 358.461 21.328 357.839 20.6304C357.217 19.9327 356.759 19.0717 356.448 18.1068C356.137 17.142 355.974 16.0435 355.974 14.8857C355.974 13.5942 356.152 12.4215 356.492 11.3973C356.833 10.373 357.336 9.4824 357.972 8.75504C358.609 8.02768 359.408 7.4636 360.311 7.07765C361.213 6.6917 362.249 6.48389 363.389 6.48389C364.336 6.48389 365.18 6.60264 365.935 6.85499C366.689 7.10734 367.356 7.44875 367.903 7.92377C368.451 8.38394 368.91 8.96286 369.25 9.64569C369.59 10.3285 369.812 11.1004 369.916 11.9762H369.265H368.613H367.962H367.311C367.193 11.427 367.03 10.9371 366.808 10.5363C366.586 10.1207 366.305 9.76444 365.994 9.4824C365.668 9.20036 365.283 8.9777 364.869 8.8441C364.44 8.69566 363.966 8.63629 363.433 8.63629C362.708 8.63629 362.042 8.78473 361.45 9.05192C360.858 9.33396 360.37 9.73475 359.941 10.2691C359.526 10.7887 359.201 11.4418 358.993 12.1692C358.771 12.9114 358.668 13.7575 358.668 14.6779C358.668 15.6279 358.771 16.474 358.979 17.2162C359.186 17.9584 359.482 18.5967 359.881 19.1162C360.281 19.6358 360.755 20.0366 361.332 20.3186C361.894 20.5858 362.545 20.7343 363.256 20.7343C363.833 20.7343 364.351 20.6452 364.825 20.4819C365.298 20.3186 365.713 20.0663 366.083 19.71C366.438 19.3834 366.734 18.9678 366.971 18.4631C367.208 17.9732 367.37 17.4092 367.474 16.7709H368.11H368.747H369.383H370.02C369.916 17.6912 369.664 18.5225 369.324 19.2795C368.969 20.0217 368.51 20.6749 367.933 21.2093C367.355 21.7437 366.675 22.1593 365.905 22.4265C365.121 22.7085 364.262 22.857 363.3 22.857Z"
            fill="black"/>
    <path
            d="M379.373 9.17057V12.4808V15.7911V19.0865V22.3967H378.752H378.115H377.479H376.842V19.0865V15.7911V12.4808V9.17057H375.466H374.075H372.684H371.307V8.60649V8.04241V7.47833V6.89941H374.711H378.115H381.519H384.923V7.47833V8.04241V8.60649V9.17057H383.532H382.156H380.765H379.373Z"
            fill="black"/>
    <path
            d="M393.004 8.57696C392.383 8.57696 391.805 8.68087 391.302 8.90353C390.784 9.11135 390.325 9.43792 389.941 9.83871C389.556 10.2543 389.215 10.7442 388.979 11.3231C388.742 11.902 388.564 12.5552 388.475 13.2825H390.71H392.945H395.18H397.415C397.355 12.5552 397.207 11.8872 396.985 11.3083C396.749 10.7294 396.453 10.2247 396.083 9.82387C395.713 9.42307 395.254 9.0965 394.736 8.88869C394.218 8.68087 393.641 8.57696 393.004 8.57696ZM393.152 22.9164C392.027 22.9164 390.991 22.7234 390.103 22.3672C389.201 22.0109 388.446 21.4765 387.824 20.7937C387.203 20.1109 386.714 19.2647 386.389 18.2702C386.063 17.2756 385.885 16.1475 385.885 14.8857C385.885 13.6388 386.063 12.481 386.403 11.4567C386.744 10.4325 387.232 9.54183 387.869 8.81446C388.505 8.0871 389.26 7.50818 390.133 7.10739C391.006 6.7066 391.983 6.49878 393.063 6.49878C394.336 6.49878 395.402 6.75113 396.305 7.19645C397.207 7.64178 397.918 8.28008 398.465 9.08166C399.013 9.8684 399.413 10.7887 399.679 11.7981C399.931 12.8075 400.049 13.906 400.049 15.0193V15.1084V15.1974V15.2865V15.3756H397.148H394.247H391.347H388.446L388.431 15.4201L388.416 15.4646L388.401 15.5092L388.387 15.5537C388.387 16.3701 388.49 17.1272 388.712 17.7655C388.934 18.4038 389.26 18.9679 389.659 19.428C390.074 19.8882 390.577 20.2296 391.169 20.4671C391.761 20.7046 392.427 20.8234 393.182 20.8234C393.729 20.8234 394.218 20.764 394.662 20.6304C395.091 20.5116 395.476 20.3038 395.816 20.0366C396.142 19.7694 396.438 19.4429 396.689 19.0124C396.941 18.5819 397.148 18.1069 397.326 17.5131H397.947H398.569H399.191H399.812C399.62 18.4038 399.324 19.1905 398.954 19.8585C398.584 20.5413 398.095 21.0906 397.533 21.5507C396.971 22.0109 396.319 22.3375 395.565 22.575C394.899 22.7976 394.07 22.9164 393.152 22.9164Z"
            fill="black"/>
    <path
            d="M417.232 22.4116V19.3537V16.3107V13.2528V10.1949H417.203H417.188H417.158H417.143L415.989 13.2528L414.849 16.2958L413.71 19.3537L412.57 22.3968H411.978H411.386H410.794H410.217L409.062 19.3537L407.923 16.2958L406.783 13.2528L405.644 10.1949H405.614H405.599H405.57H405.555V13.2528V16.2958V19.3537V22.3968H404.918H404.282H403.66H403.024V18.5225V14.6481V10.8035V6.9292H403.927H404.844H405.747H406.665L407.834 10.0613L409.018 13.2083L410.187 16.3404L411.371 19.4873H411.386H411.401H411.416L412.585 16.3404L413.769 13.2083L414.938 10.0613L416.122 6.9292H417.025H417.928H418.845H419.748V10.8035V14.6778V18.5522V22.4265H419.127H418.49H417.854H417.232V22.4116Z"
            fill="black"/>
    <path
            d="M429.472 6.48389C430.256 6.48389 431.026 6.55811 431.707 6.73624C432.387 6.89952 433.024 7.15187 433.542 7.49329C434.06 7.8347 434.489 8.26518 434.8 8.79957C435.096 9.31912 435.259 9.94257 435.259 10.6699C435.259 11.1153 435.185 11.516 435.052 11.8872C434.918 12.2583 434.726 12.5848 434.504 12.8669C434.267 13.1489 434.001 13.3716 433.705 13.5645C433.424 13.7427 433.113 13.8763 432.787 13.9356V13.9505V13.9653V13.9802V13.995C433.142 14.0692 433.512 14.188 433.867 14.3661C434.208 14.5591 434.548 14.7966 434.83 15.1083C435.111 15.4201 435.348 15.7912 435.51 16.2513C435.673 16.7115 435.777 17.231 435.777 17.8248C435.777 18.6561 435.584 19.3983 435.229 20.0217C434.889 20.66 434.386 21.1796 433.794 21.5952C433.202 22.0109 432.491 22.3374 431.751 22.5452C430.996 22.7531 430.182 22.8718 429.383 22.8718C428.377 22.8718 427.459 22.7531 426.66 22.5156C425.861 22.2781 425.165 21.9366 424.588 21.4765C424.011 21.0163 423.552 20.4671 423.241 19.8139C422.915 19.1608 422.738 18.4186 422.693 17.5725H423.33H423.966H424.603H425.239C425.269 18.1217 425.402 18.6115 425.624 19.0123C425.846 19.428 426.127 19.7545 426.482 20.0217C426.852 20.2889 427.267 20.4819 427.74 20.6155C428.214 20.7491 428.747 20.8085 429.309 20.8085C429.916 20.8085 430.449 20.7194 430.922 20.571C431.381 20.4225 431.781 20.1999 432.106 19.9327C432.432 19.6655 432.669 19.3389 432.832 18.9975C432.994 18.6561 433.083 18.2701 433.083 17.8693C433.083 17.4834 433.024 17.1271 432.905 16.8303C432.787 16.5185 432.595 16.2513 432.328 16.0435C432.062 15.8209 431.736 15.6576 431.307 15.5388C430.893 15.4349 430.389 15.3607 429.797 15.3607H429.265H428.732H428.199H427.666V14.856V14.3513V13.8169V13.3122H428.081H428.495H428.909H429.324C429.768 13.3122 430.197 13.2677 430.582 13.1786C430.967 13.0895 431.322 12.9411 431.618 12.7481C431.914 12.5551 432.151 12.2879 432.313 11.9762C432.476 11.6496 432.565 11.2637 432.565 10.8035C432.565 10.5215 432.491 10.2395 432.358 9.9871C432.21 9.73475 432.003 9.4824 431.721 9.27459C431.44 9.06677 431.1 8.90348 430.7 8.76989C430.301 8.65113 429.842 8.57691 429.309 8.57691C428.85 8.57691 428.391 8.62144 427.962 8.72535C427.533 8.82926 427.104 8.99255 426.749 9.21521C426.379 9.43787 426.068 9.71991 425.846 10.091C425.609 10.4621 425.461 10.8926 425.402 11.427H424.765H424.129H423.493H422.856C422.915 10.477 423.152 9.69022 423.537 9.05192C423.907 8.41362 424.44 7.92377 425.032 7.53782C425.639 7.16672 426.334 6.89952 427.074 6.73624C427.918 6.54326 428.702 6.48389 429.472 6.48389Z"
            fill="black"/>
</svg>