<svg width="19" height="18" viewBox="0 0 19 18" fill="none" xmlns="http://www.w3.org/2000/svg">
<path fill-rule="evenodd" clip-rule="evenodd" d="M17.7827 5.69839C17.9115 5.30444 17.7827 5.01792 17.212 5.01792H15.3157C14.8371 5.01792 14.6161 5.2686 14.4873 5.53726C14.4873 5.53726 13.5115 7.82938 12.1492 9.31565C11.7073 9.74544 11.5048 9.8887 11.2655 9.8887C11.1366 9.8887 10.971 9.74544 10.971 9.3515V5.68046C10.971 5.21489 10.8237 5 10.4186 5H7.43622C7.14165 5 6.95758 5.21489 6.95758 5.42978C6.95758 5.87749 7.63872 5.98491 7.71236 7.23842V9.96033C7.71236 10.5513 7.60193 10.6587 7.36258 10.6587C6.71823 10.6587 5.15339 8.34867 4.21447 5.71631C4.03034 5.19697 3.84626 5 3.36762 5H1.45294C0.900648 5 0.808594 5.25073 0.808594 5.51934C0.808594 6.00283 1.45294 8.43822 3.80941 11.6615C5.37431 13.8641 7.60193 15.046 9.60862 15.046C10.8237 15.046 10.971 14.7774 10.971 14.3297V12.6644C10.971 12.1271 11.0814 12.0376 11.468 12.0376C11.7442 12.0376 12.2412 12.1808 13.3642 13.2374C14.6529 14.4909 14.8739 15.0639 15.5918 15.0639H17.4881C18.0404 15.0639 18.2982 14.7953 18.1509 14.276C17.9852 13.7567 17.3592 13.0046 16.5492 12.1092C16.1073 11.6078 15.4446 11.0527 15.2421 10.7841C14.9659 10.426 15.0396 10.2827 15.2421 9.96033C15.2237 9.96033 17.5433 6.77285 17.7827 5.69839Z" fill="black"/>
</svg>
