<svg width="16" height="24" viewBox="0 0 16 24" fill="none" xmlns="http://www.w3.org/2000/svg">
<path fill-rule="evenodd" clip-rule="evenodd" d="M15.1477 4.03298C15.4606 4.11634 15.756 4.37043 15.9045 4.68399L15.9831 4.84989L15.9958 11.8091C16.0028 15.6366 16.0008 18.8485 15.9914 18.9466C15.9819 19.0448 15.9493 19.1918 15.9187 19.2734C15.8178 19.5433 15.545 19.8156 15.2583 19.9325L15.1185 19.9896L8.06131 19.9971C1.54996 20.0039 0.991798 20.0012 0.844475 19.9622C0.439382 19.855 0.106284 19.4895 0.0255911 19.0636C0.0083233 18.9726 -0.000246277 16.6034 8.0343e-06 11.9901C0.000414933 4.39707 -0.00929991 4.88758 0.146542 4.59867C0.28298 4.34575 0.612034 4.08873 0.880002 4.02578C0.938036 4.01214 3.87124 4.00166 7.99773 4.00034C13.8685 3.99845 15.0381 4.0038 15.1477 4.03298ZM3.23823 6.27277C2.80784 6.37722 2.42131 6.74408 2.28629 7.17627C2.1866 7.49545 2.2276 7.93765 2.3842 8.23215C2.48026 8.41278 2.77862 8.70644 2.94964 8.78866C3.49834 9.05247 4.12105 8.95484 4.53947 8.5394C5.06554 8.01709 5.06536 7.15759 4.53909 6.63103C4.27524 6.36707 3.94667 6.23554 3.55999 6.23918C3.45509 6.24015 3.31031 6.25526 3.23823 6.27277ZM10.5094 9.85062C9.7334 9.93225 9.06884 10.302 8.68317 10.8668C8.48501 11.1569 8.46904 11.1281 8.46856 10.4793L8.4682 10.0274L7.3683 10.034L6.26841 10.0406L6.26197 13.7911C6.25722 16.5584 6.26309 17.5506 6.28438 17.5763C6.30813 17.6049 6.51148 17.6099 7.43521 17.6044L8.55721 17.5978L8.57448 15.4765C8.58626 14.0297 8.60139 13.2976 8.62209 13.1738C8.73231 12.5138 9.00088 12.1322 9.47912 11.956C9.60261 11.9105 9.68455 11.9018 10.0068 11.9001C10.3502 11.8983 10.4029 11.9041 10.5354 11.9575C10.828 12.0757 11.0841 12.389 11.1732 12.7378C11.271 13.1206 11.274 13.1879 11.289 15.4095L11.3038 17.5978L12.4408 17.6044C13.5684 17.611 13.578 17.6106 13.606 17.5583C13.6444 17.4864 13.6213 12.9355 13.5805 12.5215C13.5204 11.9132 13.3581 11.3283 13.1461 10.9564C12.9297 10.5767 12.5632 10.2506 12.1597 10.0788C11.9232 9.97808 11.515 9.88085 11.1998 9.85022C10.9159 9.82258 10.7753 9.82266 10.5094 9.85062ZM2.43255 10.0449C2.42322 10.0542 2.41559 11.7533 2.41559 13.8207C2.41559 17.2249 2.41938 17.5811 2.45582 17.5951C2.50836 17.6152 4.63705 17.6152 4.68959 17.5951C4.72603 17.5811 4.72982 17.2234 4.72982 13.8038V10.0279H3.58967C2.96256 10.0279 2.44186 10.0356 2.43255 10.0449Z" fill="white"/>
</svg>
