<svg width="19" height="24" viewBox="0 0 19 24" fill="none" xmlns="http://www.w3.org/2000/svg">
<path fill-rule="evenodd" clip-rule="evenodd" d="M18.5529 8.76334C18.6937 8.33276 18.5529 8.01959 17.9291 8.01959H15.8565C15.3333 8.01959 15.0918 8.29359 14.951 8.58723C14.951 8.58723 13.8845 11.0926 12.3954 12.7171C11.9125 13.1868 11.6911 13.3434 11.4296 13.3434C11.2887 13.3434 11.1076 13.1868 11.1076 12.7562V8.74376C11.1076 8.23488 10.9466 8 10.5039 8H7.24408C6.92212 8 6.72092 8.23488 6.72092 8.46976C6.72092 8.95911 7.46542 9.07652 7.54591 10.4466V13.4217C7.54591 14.0676 7.4252 14.1851 7.16359 14.1851C6.45931 14.1851 4.74892 11.6601 3.72267 8.78293C3.52141 8.21529 3.32021 8 2.79705 8H0.704277C0.100617 8 0 8.27406 0 8.56764C0 9.09611 0.704277 11.758 3.27994 15.2812C4.99039 17.6886 7.4252 18.9804 9.61854 18.9804C10.9466 18.9804 11.1076 18.6868 11.1076 18.1975V16.3773C11.1076 15.79 11.2283 15.6922 11.6509 15.6922C11.9527 15.6922 12.496 15.8487 13.7235 17.0036C15.132 18.3737 15.3735 19 16.1583 19H18.2309C18.8346 19 19.1163 18.7064 18.9553 18.1388C18.7742 17.5712 18.0901 16.7491 17.2047 15.7704C16.7217 15.2225 15.9973 14.6157 15.776 14.3221C15.4741 13.9306 15.5546 13.7741 15.776 13.4217C15.7559 13.4217 18.2913 9.93774 18.5529 8.76334Z" fill="white"/>
</svg>
