<?xml version="1.0" encoding="utf-8"?>
<!-- Generator: Adobe Illustrator 24.0.2, SVG Export Plug-In . SVG Version: 6.00 Build 0)  -->
<svg version="1.1" id="Layer_1" xmlns="http://www.w3.org/2000/svg" xmlns:xlink="http://www.w3.org/1999/xlink" x="0px" y="0px"
	 viewBox="0 0 293.04 75.18" width="293" height="75" style="enable-background:new 0 0 293.04 75.18;" xml:space="preserve">
<style type="text/css">
	.st0{fill:#CC0000;}
	.st1{fill-rule:evenodd;clip-rule:evenodd;fill:#00843D;}
	.st2{fill:#00843D;}
</style>
<g>
	<path d="M20.42,53.83c0-1.12-0.73-1.73-2.08-1.73h-3.3v3.63h3.06C19.55,55.72,20.42,55.04,20.42,53.83 M21.95,61.52h-1.4
		l-0.31-2.84c-0.13-1.25-0.67-1.75-1.91-1.75h-3.28v4.58h-1.39V50.88h4.92c2.03,0,3.25,1.1,3.25,2.81c0,1.37-0.77,2.34-1.9,2.66
		c0.92,0.18,1.52,0.79,1.63,1.78L21.95,61.52z"/>
	<path d="M30.81,53.95c0-1.27-0.79-1.85-2.11-1.85H25.8v3.78h2.98C30.04,55.87,30.81,55.2,30.81,53.95 M32.2,53.93
		c0,2.11-1.39,3.15-3.45,3.15H25.8v4.43h-1.39V50.88h4.37C30.84,50.88,32.2,51.9,32.2,53.93"/>
	<path d="M38.57,56.2c0-3.26,1.87-5.51,4.79-5.51c2.23,0,4.04,1.31,4.37,3.41h-1.42c-0.33-1.4-1.43-2.17-2.89-2.17
		c-2.15,0-3.43,1.61-3.43,4.27c0,2.66,1.27,4.33,3.43,4.33c1.67,0,2.82-0.97,3.07-2.88h1.37c-0.36,2.55-2,4.12-4.49,4.12
		C40.39,61.77,38.57,59.42,38.57,56.2"/>
	<path d="M55.45,57.18L54,53.15l-0.34-1.1l-0.36,1.1l-1.48,4.03H55.45z M55.88,58.4h-4.5l-1.15,3.12h-1.48l4.11-10.63h1.57
		l4.1,10.63H57L55.88,58.4z"/>
	<polygon points="68.55,50.88 68.55,61.51 66.97,61.51 61.42,52.88 61.42,61.51 60.11,61.51 60.11,50.88 61.65,50.88 67.24,59.55
		67.24,50.88 	"/>
	<path d="M79.32,56.2c0-2.61-1.49-4.27-3.6-4.27c-2.12,0-3.61,1.66-3.61,4.27c0,2.64,1.49,4.33,3.61,4.33
		C77.86,60.53,79.32,58.87,79.32,56.2 M70.7,56.2c0-3.23,2.05-5.51,5.01-5.51c2.98,0,5.03,2.29,5.03,5.51
		c0,3.29-2.05,5.57-5.03,5.57C72.75,61.77,70.7,59.45,70.7,56.2"/>
	<polygon points="91.33,50.88 91.33,61.51 89.75,61.51 84.2,52.88 84.2,61.51 82.89,61.51 82.89,50.88 84.43,50.88 90.02,59.55
		90.02,50.88 	"/>
	<polygon points="109.68,50.88 109.68,61.51 108.41,61.51 108.41,54.46 108.44,52.55 107.68,54.44 105.14,61.51 103.83,61.51
		101.09,54.21 100.38,52.54 100.43,54.47 100.43,61.52 99.16,61.52 99.16,50.88 101.12,50.88 104.13,59 104.49,60.06 104.85,59
		107.76,50.88 	"/>
	<polygon points="120.17,60.3 120.17,61.51 112.52,61.51 112.52,50.88 120.03,50.88 120.03,52.09 113.9,52.09 113.9,55.43
		119.55,55.43 119.55,56.64 113.9,56.64 113.9,60.3 	"/>
	<path d="M129.72,56.2c0-2.82-1.19-4.1-3.54-4.1h-2.17v8.21h2.09C128.58,60.3,129.72,58.96,129.72,56.2 M131.13,56.2
		c0,3.21-1.6,5.32-4.97,5.32h-3.54V50.88h3.84C129.6,50.88,131.13,52.93,131.13,56.2"/>
	<rect x="133.56" y="50.88" width="1.39" height="10.63"/>
	<path d="M137.32,56.2c0-3.26,1.87-5.51,4.79-5.51c2.23,0,4.04,1.31,4.37,3.41h-1.42c-0.33-1.4-1.43-2.17-2.89-2.17
		c-2.15,0-3.43,1.61-3.43,4.27c0,2.66,1.27,4.33,3.43,4.33c1.67,0,2.82-0.97,3.07-2.88h1.37c-0.36,2.55-2,4.12-4.49,4.12
		C139.14,61.77,137.32,59.42,137.32,56.2"/>
	<path d="M154.21,57.18l-1.45-4.03l-0.34-1.1l-0.36,1.1l-1.48,4.03H154.21z M154.64,58.4h-4.5l-1.15,3.12h-1.48l4.11-10.63h1.57
		l4.1,10.63h-1.54L154.64,58.4z"/>
	<polygon points="165.79,60.3 165.79,61.51 158.86,61.51 158.86,50.88 160.25,50.88 160.25,60.3 	"/>
	<path d="M171.69,58.07h1.33c0.15,1.78,1.22,2.54,3.06,2.54c1.82,0,2.71-0.75,2.71-1.96c0-1-0.6-1.55-2.26-1.9l-1.49-0.32
		c-1.73-0.36-2.98-1.07-2.98-2.78c0-1.79,1.33-3.02,3.78-3.02c2.36,0,3.81,1.15,3.96,3.21h-1.33c-0.12-1.36-1.06-2.08-2.68-2.08
		c-1.52,0-2.41,0.65-2.41,1.76c0,0.85,0.52,1.33,1.85,1.61l1.87,0.41c1.97,0.42,3.04,1.36,3.04,3.02c0,1.7-1.16,3.17-4.1,3.17
		C173.38,61.74,171.87,60.53,171.69,58.07"/>
	<polygon points="190.49,50.88 186.46,57.15 186.46,61.51 185.08,61.51 185.08,57.15 180.92,50.88 182.59,50.88 185.32,55.24
		185.78,56.03 186.24,55.24 188.91,50.88 	"/>
	<path d="M191.27,58.07h1.33c0.15,1.78,1.22,2.54,3.06,2.54c1.82,0,2.71-0.75,2.71-1.96c0-1-0.6-1.55-2.26-1.9l-1.49-0.32
		c-1.73-0.36-2.98-1.07-2.98-2.78c0-1.79,1.33-3.02,3.78-3.02c2.36,0,3.81,1.15,3.96,3.21h-1.33c-0.12-1.36-1.06-2.08-2.68-2.08
		c-1.52,0-2.41,0.65-2.41,1.76c0,0.85,0.52,1.33,1.85,1.61l1.87,0.41c1.97,0.42,3.04,1.36,3.04,3.02c0,1.7-1.16,3.17-4.1,3.17
		C192.95,61.74,191.45,60.53,191.27,58.07"/>
	<polygon points="209.48,52.09 205.92,52.09 205.92,61.52 204.54,61.52 204.54,52.09 200.99,52.09 200.99,50.89 209.48,50.89 	"/>
	<polygon points="219.07,60.3 219.07,61.51 211.42,61.51 211.42,50.88 218.93,50.88 218.93,52.09 212.8,52.09 212.8,55.43
		218.45,55.43 218.45,56.64 212.8,56.64 212.8,60.3 	"/>
	<polygon points="232.05,50.88 232.05,61.51 230.78,61.51 230.78,54.46 230.81,52.55 230.05,54.44 227.51,61.51 226.2,61.51
		223.46,54.21 222.76,52.54 222.8,54.47 222.8,61.52 221.53,61.52 221.53,50.88 223.49,50.88 226.5,59 226.86,60.06 227.22,59
		230.13,50.88 	"/>
	<path d="M234.3,58.07h1.33c0.15,1.78,1.22,2.54,3.06,2.54c1.82,0,2.71-0.75,2.71-1.96c0-1-0.6-1.55-2.26-1.9l-1.49-0.32
		c-1.73-0.36-2.98-1.07-2.98-2.78c0-1.79,1.33-3.02,3.78-3.02c2.36,0,3.81,1.15,3.96,3.21h-1.33c-0.12-1.36-1.06-2.08-2.68-2.08
		c-1.52,0-2.41,0.65-2.41,1.76c0,0.85,0.52,1.33,1.85,1.61l1.87,0.41c1.97,0.42,3.04,1.36,3.04,3.02c0,1.7-1.16,3.17-4.1,3.17
		C235.99,61.74,234.48,60.53,234.3,58.07"/>
	<path d="M244.49,62.91h0.15c0.46,0,0.7-0.24,0.7-0.71v-0.77l-0.86,0.08v-1.49h1.64v2.02c0,1.07-0.49,1.61-1.48,1.61h-0.15
		L244.49,62.91L244.49,62.91z"/>
	<polygon points="260.5,60.3 260.5,61.51 253.57,61.51 253.57,50.88 254.96,50.88 254.96,60.3 	"/>
	<polygon points="269.36,60.3 269.36,61.51 262.44,61.51 262.44,50.88 263.82,50.88 263.82,60.3 	"/>
	<path d="M270.09,56.2c0-3.26,1.87-5.51,4.79-5.51c2.23,0,4.04,1.31,4.37,3.41h-1.42c-0.33-1.4-1.43-2.17-2.89-2.17
		c-2.15,0-3.43,1.61-3.43,4.27c0,2.66,1.27,4.33,3.43,4.33c1.67,0,2.82-0.97,3.07-2.88h1.37c-0.36,2.55-2,4.12-4.49,4.12
		C271.91,61.77,270.09,59.42,270.09,56.2"/>
	<path class="st0" d="M37.91,32.11c-1.63,2.33-4.32,3.85-7.37,3.85c-4.96,0-8.99-4.03-8.99-8.99s4.02-8.99,8.99-8.99
		c1.75,0,3.38,0.5,4.77,1.37l-4.76,7.63l8.93-5.16c-1.43-2.22-3.56-3.95-6.08-4.88c-1.99-0.74-4.14-1.13-6.39-1.13
		c-2.25,0-4.4,0.4-6.39,1.13c-2.05,0.76-3.85,2.05-5.22,3.71c-1.42,1.72-2.27,3.92-2.27,6.33c0,2.41,0.85,4.61,2.27,6.33
		c1.37,1.66,3.17,2.96,5.22,3.71c1.99,0.74,4.14,1.13,6.39,1.13c1.43,0,2.83-0.17,4.17-0.47c2.79-0.64,5.25-2.12,7.12-4.16
		L37.91,32.11z"/>
	<path class="st0" d="M75.62,19.6c-0.49,0-0.96,0.11-1.38,0.31l-5.2,2.43c-0.25-1.55-1.6-2.73-3.22-2.73
		c-0.49,0-0.96,0.11-1.38,0.31l-6.35,2.96h4.47v14.72h6.53V24.5c0-0.9,0.73-1.64,1.63-1.64s1.63,0.74,1.63,1.64v13.08h6.53V22.87
		C78.88,21.06,77.42,19.6,75.62,19.6"/>
	<path class="st0" d="M116.6,19.6c-0.49,0-0.96,0.11-1.38,0.31l-5.2,2.43c-0.25-1.55-1.6-2.73-3.22-2.73
		c-0.49,0-0.96,0.11-1.38,0.31l-6.35,2.96h4.47v14.72h6.53V24.51c0-0.9,0.73-1.64,1.63-1.64s1.63,0.74,1.63,1.64v13.08h6.53V22.87
		C119.87,21.06,118.41,19.6,116.6,19.6"/>
	<path class="st0" d="M92.98,36.77c-1.09,0.29-2.21-0.35-2.5-1.45l-3.17-11.85c-0.29-1.09,0.35-2.21,1.45-2.51
		c1.09-0.29,2.21,0.35,2.5,1.45l3.17,11.85C94.72,35.36,94.07,36.48,92.98,36.77 M90.87,19.6c-5.11,0-9.26,4.15-9.26,9.27
		c0,5.12,4.14,9.27,9.26,9.27c5.11,0,9.26-4.15,9.26-9.27C100.12,23.74,95.98,19.6,90.87,19.6"/>
	<path class="st0" d="M53.73,37.59h6.53L56.5,23.54c-0.61-2.27-2.68-3.94-5.13-3.94c-0.64,0-1.25,0.11-1.81,0.32l-8.1,2.96h8.33
		l1.42,5.32c-1.39-1.19-3.18-1.91-5.15-1.91c-1.47,0-2.85,0.38-4.05,1.04c-0.94,0.52-1.72,1.27-2.29,2.18
		c-0.47,0.77-0.75,1.68-0.75,2.65c0,0.98,0.27,1.88,0.75,2.65c0.56,0.91,1.35,1.67,2.29,2.18c1.2,0.66,2.58,1.04,4.05,1.04
		c2.81,0,5.31-1.38,6.84-3.5L53.73,37.59z M52.06,32.14c0,1.81-1.46,3.27-3.27,3.27c-1.81,0-3.27-1.46-3.27-3.27
		c0-1.81,1.46-3.27,3.27-3.27C50.59,28.87,52.06,30.33,52.06,32.14"/>
	<path class="st1" d="M133.79,14.31h25.26V39.6h-25.26V14.31z M133.15,13.67h26.55v26.58h-26.55V13.67z"/>
	<g>
		<path class="st2" d="M138.2,33.95c-0.11-0.01-0.25,0.02-0.4,0.1c-0.08,0.05-0.17,0.11-0.27,0.19c-0.1,0.08-0.22,0.19-0.35,0.32
			l-0.37,0.37l0.91,0.92c0.04-0.03,0.09-0.08,0.15-0.14c0.06-0.05,0.12-0.11,0.18-0.17c0.17-0.17,0.31-0.33,0.4-0.47
			c0.1-0.14,0.16-0.27,0.19-0.39c0.03-0.11,0.03-0.22,0-0.32c-0.03-0.09-0.08-0.17-0.15-0.25C138.41,34.02,138.31,33.96,138.2,33.95
			z"/>
		<polygon class="st2" points="144.08,38.82 148.77,38.82 146.42,36.47 		"/>
		<polygon class="st2" points="158.27,24.61 155.92,26.96 158.27,29.3 		"/>
	</g>
	<path class="st2" d="M145.96,28.47l0.92-0.92l-0.39-0.15c-0.31-0.12-0.68-0.27-1.12-0.47l-0.02,0.01c0.19,0.44,0.34,0.82,0.46,1.13
		L145.96,28.47z"/>
	<path class="st2" d="M149.67,22.56c-0.1-0.02-0.22-0.01-0.35,0.05c-0.09,0.04-0.18,0.1-0.28,0.18s-0.22,0.2-0.37,0.33l-0.46,0.47
		l0.92,0.93l0.33-0.32c0.15-0.15,0.27-0.28,0.36-0.4c0.09-0.11,0.16-0.22,0.21-0.32c0.09-0.17,0.12-0.32,0.1-0.44
		c-0.02-0.12-0.08-0.23-0.17-0.33C149.86,22.63,149.77,22.58,149.67,22.56z"/>
	<path class="st2" d="M158.28,15.09h-23.69v23.72h6.74l5.1-5.11l5.1,5.11h6.74v-6.77l-5.09-5.09l5.09-5.09V15.09z M139.41,19.85
		h8.18l-8.18,8.18V19.85z M139.47,34.58c-0.05,0.22-0.16,0.44-0.31,0.68c-0.16,0.23-0.37,0.47-0.62,0.73
		c-0.06,0.06-0.12,0.11-0.17,0.17c-0.06,0.05-0.11,0.11-0.16,0.15l1.18,1.19l-0.65,0.65l-3.01-3.03l1.03-1.02
		c0.17-0.17,0.33-0.32,0.47-0.43c0.14-0.11,0.28-0.21,0.4-0.29c0.31-0.18,0.59-0.26,0.86-0.26s0.51,0.12,0.73,0.34
		c0.14,0.15,0.24,0.32,0.28,0.5S139.53,34.36,139.47,34.58z M144.53,32.35l-1.31-1.31l-1.65,1.64l1.31,1.32l-0.65,0.65l-3.01-3.04
		l0.65-0.65l1.24,1.25l1.64-1.64l-1.24-1.25l0.65-0.65l3.01,3.03L144.53,32.35z M148.65,28.23l-1.1-0.42l-1.34,1.34l0.42,1.12
		l-0.7,0.69l-1.6-4.44l0.59-0.59l4.42,1.63L148.65,28.23z M152.17,24.75l-2.14-0.21l-0.45,0.44l1.17,1.17l-0.65,0.65l-3.01-3.03
		l1.08-1.08c0.18-0.18,0.35-0.34,0.52-0.47c0.17-0.14,0.33-0.24,0.47-0.32c0.28-0.14,0.54-0.2,0.79-0.18
		c0.25,0.03,0.47,0.14,0.67,0.35c0.21,0.21,0.32,0.46,0.33,0.74s-0.1,0.61-0.31,0.96l0.01,0.01l2.29,0.2L152.17,24.75z
		 M156.76,20.17l-1.53-1.54c-0.22-0.23-0.47-0.5-0.75-0.82l-0.02,0.02c0.05,0.11,0.11,0.25,0.18,0.4s0.13,0.29,0.19,0.44l0.97,2.45
		l-0.42,0.42l-2.44-0.98c-0.15-0.06-0.3-0.12-0.44-0.19c-0.15-0.07-0.28-0.13-0.4-0.19l-0.02,0.02c0.3,0.26,0.57,0.51,0.81,0.75
		l1.53,1.54l-0.65,0.65l-3.01-3.03l0.91-0.91l2.05,0.83c0.34,0.14,0.7,0.3,1.06,0.49h0.02c-0.16-0.32-0.31-0.67-0.47-1.06
		l-0.82-2.06l0.91-0.91l3.01,3.03L156.76,20.17z"/>
</g>
</svg>
